ply
format ascii 1.0
element vertex 320
property float x
property float y
property float z
property uchar blue
property uchar green
property uchar red
end_header
-4532.785156 5133.067871 -26909.544922 11 9 11
-21280.726562 -9256.008789 -16197.239258 48 49 53
-1036.729248 -547.179565 -31.164824 33 35 43
1.930777 1.362770 0.375341 35 38 40
-21145.333984 -9424.250977 -15628.264648 19 22 20
4689985.500000 26450124.000000 6304304.500000 13 10 10
-20953.005859 -9393.594727 -15609.666016 23 18 18
-21075.914062 -9445.729492 -15479.897461 37 27 28
-21138.867188 -9423.963867 -15614.258789 13 9 7
-42238.414062 8761.668945 -52868.406250 8 7 8
53.422462 32.280296 2.116565 39 41 44
-2855.020508 -1060.836304 -43.070019 14 12 10
-21145.121094 -9424.615234 -15627.534180 43 44 45
-20493.595703 -9129.102539 -14338.631836 14 17 15
-1125.003784 -452.494537 -39.922962 19 13 10
-2165.063721 -889.265930 -82.027458 12 9 7
-2126.951416 -887.149353 -73.518135 11 10 9
-29098.267578 10768.204102 -90543.718750 8 8 9
-1402.971191 4691.117676 -20196.078125 23 23 25
4332036.500000 -1281930.250000 8853268.000000 25 25 27
724630.875000 -176866.984375 1509467.000000 10 7 9
0.044722 0.031944 0.080333 18 26 27
0.917815 0.693211 0.367687 41 36 40
-211.324509 -112.665710 -20.728186 52 55 61
-41690.273438 7762.620605 -46365.078125 11 10 11
0.110853 0.013475 0.148917 10 9 12
-21517.609375 -8980.330078 -17422.992188 14 12 15
2748.398193 3554.647217 -9364.620117 19 20 21
1247582.875000 -1301332.750000 9877965.000000 41 43 45
-2116.143311 -883.323425 -75.872734 30 30 30
-20182.152344 -9791.072266 -13819.158203 18 16 18
-2290511.500000 2091436.375000 -4531238.000000 40 42 44
-209.530426 -112.621902 -19.648485 60 63 65
-21145.201172 -9424.719727 -15627.569336 26 26 28
-390833.937500 -584335.000000 -1671038.125000 38 40 45
-0.065115 -0.017690 -0.088596 32 33 35
-20953.183594 -9393.323242 -15609.530273 26 14 28
-0.012975 -0.004486 -0.019494 28 28 29
-20918.990234 -9435.340820 -15141.210938 13 12 14
1.900844 1.346989 0.372365 20 27 38
-20493.546875 -9727.160156 -14311.546875 8 6 9
1.982120 1.393290 0.381545 28 29 30
0.037305 0.018862 0.068517 38 40 43
-21145.216797 -9424.632812 -15627.678711 34 35 36
-466329.843750 -356453.031250 -612132.500000 38 36 37
7555893.000000 -879936.750000 14576925.000000 23 22 25
-1289198.875000 397919.000000 -1987574.375000 24 28 27
72.929169 41.389671 5.900623 25 26 44
1.888436 1.332174 0.379118 14 14 15
0.032542 0.016538 0.060275 23 26 32
8294.777344 -31282.970703 88038.554688 50 49 53
-2856.642334 -1060.988281 -47.042107 18 17 15
-2876.622559 -1065.214355 -47.068512 16 13 12
-20946.941406 -9384.699219 -15559.630859 24 18 20
-216033.031250 -338377.468750 -867875.625000 22 26 39
-0.059474 -0.003018 -0.060555 20 21 24
0.108615 0.014702 0.146449 20 19 22
-43.581600 -27.164118 -1.217486 14 10 7
-21517.380859 -8983.443359 -17417.355469 14 10 7
-21145.326172 -9424.250977 -15628.250977 18 21 19
7531098.000000 -6837671.500000 15445251.000000 5 5 6
-5793.106934 -13123.681641 9509.682617 16 15 16
0.006452 0.002323 0.010124 14 10 8
0.000425 0.000164 0.000665 15 10 8
0.965601 0.680864 0.207948 51 56 59
-4532.240234 5133.830566 -26910.800781 35 35 37
-1922084.000000 411229.281250 -3490391.500000 6 4 6
74564.101562 60685.886719 218675.812500 14 13 14
1.876188 1.324485 0.380196 15 14 16
-46.095257 -29.056559 -1.469705 14 9 7
-4533.668457 5134.198730 -26913.695312 41 42 45
1.937277 1.366326 0.376243 33 35 38
5552.512695 -8720.820312 23218.544922 11 9 13
0.012918 0.006884 0.024006 5 5 6
-285.979401 -180.584198 -2.332350 21 18 17
-738.390381 -380.013123 -56.177124 17 19 42
20228304.000000 -12292031.000000 44623296.000000 23 24 25
0.008091 0.004453 0.015339 40 41 43
-7622758.000000 1419691.875000 -22248706.000000 33 34 35
1.746085 1.214765 0.431406 9 8 11
-1562509.000000 408678.468750 -2787110.250000 9 8 10
-82.626610 -48.697487 -7.554445 40 42 44
-1648889.875000 -2764062.500000 -7107473.500000 20 22 33
-2415.340576 -1018.230896 17.501076 34 36 37
-10596543.000000 11087176.000000 -23138650.000000 7 6 6
-959593.250000 263285.531250 -2600340.750000 37 38 40
-4532.057617 5133.209961 -26912.070312 10 9 12
-171.503479 -97.181396 -5.432973 34 36 48
479474.312500 826048.125000 2348513.500000 10 9 25
-21141.722656 -9426.425781 -15621.248047 16 11 9
-3007.326416 -1082.881714 -45.760849 13 9 7
0.008621 0.004754 0.016386 39 41 42
-10347.661133 6585.128418 -39135.804688 8 7 8
-21145.126953 -9424.819336 -15627.256836 10 8 9
-224105.218750 19361.136719 -450565.250000 60 62 67
-21517.619141 -8980.189453 -17423.082031 27 26 25
87700000.000000 -66851404.000000 172034688.000000 35 38 41
-124.781960 -68.247215 -13.158845 10 8 9
0.040791 0.020527 0.074335 40 43 44
-578044.250000 -250308.859375 -692975.062500 12 12 14
14074.677734 2315.650146 11671.178711 25 25 27
0.037358 0.017143 0.065780 10 8 10
-258.723206 -162.527649 -2.014189 15 11 10
0.024265 0.011627 0.041316 20 21 44
0.906414 0.652141 0.143051 20 20 23
-21517.496094 -8980.570312 -17422.375000 13 9 6
-11356.399414 6736.007324 -40966.574219 9 7 9
0.038933 0.029016 0.072046 21 30 33
-21437.166016 -9301.083984 -15970.784180 11 10 11
-4550.899902 5137.362305 -26944.917969 18 19 21
0.105358 0.111337 0.179308 13 10 8
-20949.937500 -9387.713867 -15593.855469 21 20 20
1.855138 1.308761 0.385120 7 7 9
-21145.324219 -9424.250000 -15628.250000 22 25 24
-2754571.000000 -1383036.375000 -3335113.000000 16 15 17
9765199.000000 -3863288.500000 22231220.000000 15 11 9
75.703651 43.262634 8.132539 60 62 66
183378.578125 -179895.859375 1254422.250000 33 38 35
-1411.864624 -729.336975 7.207515 36 38 40
0.941474 0.675475 0.224156 30 41 43
-3148074.750000 -5158725.000000 -13255637.000000 40 42 46
-21141.419922 -9426.424805 -15624.236328 24 23 24
-2142.359131 -885.131714 -86.698608 12 9 6
-21272.701172 -9344.084961 -15697.521484 12 10 12
-20184.941406 -8762.746094 -12570.093750 21 20 20
-4532.307129 5133.901367 -26910.824219 40 43 44
0.039579 0.018590 0.070578 6 6 6
0.005486 0.002930 0.010448 10 11 40
-0.003592 -0.002450 -0.006100 37 39 41
-4537.698242 5140.171875 -26895.894531 13 13 15
-20953.152344 -9393.208008 -15609.481445 14 17 17
-21145.216797 -9424.630859 -15627.674805 8 6 8
0.054016 0.042924 0.097816 31 34 35
-95238.257812 5273.044922 -147762.859375 40 41 43
-21144.759766 -9424.206055 -15627.116211 17 22 19
-34384.496094 -5145.998047 -36129.941406 24 27 27
-21147.847656 -9422.878906 -15635.017578 15 10 8
-20944.730469 -9384.781250 -15584.509766 25 24 26
-1094.225830 -443.152863 -46.323273 18 13 9
-0.015848 -0.005497 -0.023787 15 11 9
-310935.968750 64246.398438 -550242.000000 30 30 32
-3945.147461 5082.688965 -26082.126953 30 30 32
1.924343 1.356480 0.376741 22 21 23
-41.829727 -27.240763 0.108092 24 18 16
-160.738968 -87.692787 -15.938913 11 9 10
944702.125000 -1003773.562500 1795934.250000 40 42 44
-178888.578125 -260312.703125 -751608.750000 9 8 9
0.025665 0.013126 0.047667 15 19 27
-21144.494141 -9424.172852 -15626.559570 16 20 19
-20954.246094 -9394.125977 -15611.150391 13 11 12
-2604304.750000 -1311463.625000 -2824218.500000 21 19 23
-5313581.000000 3216420.000000 -9500705.000000 8 7 9
1495445.875000 -528652.750000 2815638.500000 16 16 18
1.840619 1.298477 0.388437 14 15 17
1122.670410 4624.176758 -15855.361328 8 8 10
-1069.200928 -444.370880 -37.979004 22 17 15
-21043.041016 -9405.875977 -15598.613281 19 14 10
1.544852 1.197363 0.467007 22 14 16
-20717.917969 -9562.624023 -14749.076172 24 25 27
-935321.687500 913402.937500 -1826495.375000 40 41 43
-1016024.187500 -436825.937500 -1169072.500000 12 11 13
-20952.457031 -9393.356445 -15608.831055 9 8 10
176.294846 100.143265 18.532066 40 41 44
-20947.671875 -9385.873047 -15585.033203 11 8 7
1.889140 1.332539 0.378987 26 27 28
-2909531.000000 548368.125000 -7009372.000000 10 9 11
-21517.546875 -8980.460938 -17422.421875 10 10 12
-111.803612 -72.783745 -3.499557 33 29 28
-21145.017578 -9424.815430 -15627.080078 11 9 11
1.900236 1.347528 0.371314 38 40 42
-374.579773 -199.515945 -39.667755 23 29 41
-21145.138672 -9424.692383 -15627.454102 8 7 9
-18353.656250 -11430.588867 -9498.426758 12 12 14
-4533.338379 5134.185547 -26913.148438 35 36 38
16974778.000000 28101438.000000 -71454512.000000 28 32 33
-293.773621 -160.892410 -29.990559 6 6 6
12928.168945 -1578.781982 19339.570312 11 8 12
85.240768 48.719749 9.173939 59 62 65
0.003337 0.001279 0.005236 14 10 7
-2233.887939 -899.659607 -83.130211 12 8 5
-1087382.250000 955070.750000 -2230779.500000 8 7 8
-1446902.500000 378449.562500 -2564592.500000 37 37 41
-2855.460693 -1062.308716 -44.504913 14 12 10
-443454.937500 -650559.750000 -1777611.750000 39 42 45
-20953.767578 -9352.433594 -15341.170898 16 20 17
-20945.912109 -9387.497070 -15581.096680 13 10 7
0.004828 0.001828 0.007663 14 9 6
-68098.960938 -48793.437500 -110607.070312 18 18 19
1963289.500000 1167259.250000 3398123.250000 10 10 12
-5534.172852 9045.540039 -20395.269531 28 30 31
-5044524.500000 -2516313.500000 -5366311.000000 18 16 21
-5326949.500000 4873432.000000 -10119672.000000 22 23 45
3562181.500000 5945528.000000 17435594.000000 15 16 43
0.033536 0.015179 0.057703 40 42 43
434854.812500 132239.328125 371967.687500 12 12 14
258090.437500 109145.210938 312133.781250 13 11 13
-20953.076172 -9393.227539 -15609.513672 15 14 15
1.892686 1.343883 0.370709 8 8 10
-304648.062500 61073.734375 -591741.562500 11 10 12
-0.015928 -0.005930 -0.023921 15 12 10
-0.092749 -0.026053 -0.122077 10 8 11
-12701.818359 -2117.940186 -21218.507812 38 37 41
-21517.476562 -8980.560547 -17422.259766 26 33 36
0.031897 0.017100 0.055731 7 6 6
1.548238 1.198358 0.465280 27 22 25
0.954412 0.677205 0.218135 17 18 20
500270.406250 -500548.781250 1007264.375000 5 4 7
5319782.000000 2590520.750000 5506524.500000 29 29 31
-21145.460938 -9424.481445 -15628.306641 40 42 43
-21004.572266 -9395.438477 -15286.108398 8 7 8
-19669.789062 -9859.618164 -13034.563477 9 7 9
1.893910 1.332343 0.380638 27 28 30
1.875995 1.324457 0.380203 28 28 30
-21517.648438 -8980.362305 -17422.781250 12 15 24
-21139.390625 -9427.450195 -15615.700195 38 40 41
-21131.076172 -9430.382812 -15597.202148 34 30 30
-140.322495 -76.569687 -14.316001 10 9 10
1217458.000000 -1125719.125000 2533087.750000 6 6 7
-20866.533203 -9470.513672 -15027.098633 9 7 9
47896136.000000 136712816.000000 1370347136.000000 15 12 12
-21517.613281 -8980.355469 -17422.710938 18 19 21
-171.342087 -93.292099 -16.493999 10 10 13
0.913566 0.693380 0.370025 51 53 56
-49857.632812 18382.960938 -122196.625000 8 7 9
-21517.642578 -8975.899414 -17430.189453 27 26 25
0.917562 0.693349 0.367454 44 41 45
-41025.777344 8380.550781 -56993.960938 40 42 44
1.818882 1.252912 0.405620 18 17 20
200088.078125 94210.218750 211368.750000 9 10 10
-21145.435547 -9424.296875 -15628.395508 20 23 22
0.017008 0.008870 0.030994 35 37 39
-0.072417 -0.020714 -0.097061 13 13 16
0.023141 0.014649 0.043176 39 42 43
1483038.625000 1375059.125000 2283300.000000 53 46 46
-20952.142578 -9393.217773 -15608.336914 18 17 19
-357.704834 -229.638809 -1.155501 13 9 6
-20369.185547 -9847.584961 -14048.625000 27 28 30
-22025.867188 -8701.444336 -17174.378906 8 6 9
1.927766 1.361179 0.374925 39 41 42
-20884.562500 -9448.097656 -15403.842773 40 42 44
0.030374 0.017175 0.053902 19 25 38
1.632443 1.320121 0.400963 25 27 29
-21144.914062 -9424.903320 -15626.778320 34 36 38
-4556.386719 5139.104004 -26954.882812 10 10 12
-21144.763672 -9424.202148 -15627.110352 20 24 21
1.885203 1.326996 0.381337 24 24 27
-4501.861328 5714.487793 20971.072266 9 8 10
-4565.777344 5136.525879 -26969.205078 9 7 10
0.038749 0.018318 0.069099 6 5 6
-328.140900 -176.379333 -34.738808 11 12 22
-13249294.000000 -6398585.500000 -13679981.000000 34 35 37
0.045392 0.029773 0.079784 41 44 44
-4532.820801 5133.864258 -26911.937500 8 6 9
-21187.714844 -9374.313477 -15689.955078 34 35 38
-20888.921875 -9454.782227 -15075.774414 41 42 45
-4886602.000000 4614109.500000 -9824290.000000 33 35 40
3850.445801 -1223.648315 36030.246094 19 23 21
-21145.466797 -9424.244141 -15628.508789 17 20 31
1967106.125000 887943.500000 2510712.750000 43 43 46
-21042.105469 -9405.783203 -15596.895508 19 13 10
-4532.772949 5133.357422 -26909.726562 31 32 34
-1779496.625000 1091273.750000 -3737302.250000 10 9 11
0.008380 0.004661 0.015957 40 42 44
-335302.718750 -179169.437500 -337394.750000 15 11 7
-2265.759521 2567.568359 -13456.205078 45 46 50
-21138.517578 -9423.987305 -15613.426758 12 9 6
-632785.375000 -685547.062500 -861259.437500 20 17 16
-449443.125000 -205181.265625 -568604.937500 43 44 48
4757347.000000 2477816.250000 6136885.500000 15 14 17
-4664.374512 5148.386230 -27180.441406 37 35 36
-134668.828125 -63463.339844 -135486.062500 18 18 19
-21144.970703 -9424.856445 -15626.943359 23 24 26
-20915.232422 -9351.235352 -14209.494141 22 21 22
200.702972 109.465881 6.411634 22 24 43
-109.494476 -71.218643 -3.372936 21 14 12
3885587.500000 2100915.000000 5038216.000000 48 49 53
-1982794.000000 -3671121.750000 -11446753.000000 38 41 43
-20952.683594 -9393.404297 -15608.881836 29 28 31
-0.006265 -0.003852 -0.010301 26 28 42
-21517.517578 -8980.515625 -17422.531250 40 41 44
0.107329 0.013137 0.145183 17 16 20
6024037.500000 -1871510.250000 12520120.000000 45 38 35
0.037663 0.018013 0.066919 6 5 5
-25421260.000000 -13454198.000000 -31211682.000000 10 8 10
74.067505 42.349728 7.846912 60 62 66
-20953.152344 -9393.207031 -15609.483398 8 10 9
-30668.998047 8674.750000 -82650.398438 17 16 18
-190.190552 -100.745018 -20.325417 34 43 61
-21517.519531 -8980.500977 -17422.523438 14 17 25
-21145.101562 -9424.815430 -15627.269531 41 42 44
-2992.571777 -1082.323364 -46.983635 12 9 7
1.893530 1.344325 0.370967 6 6 9
-21218.089844 -9338.426758 -15681.400391 23 23 25
-2303.290039 -924.700195 -84.590111 14 10 7
-21147.574219 -9423.102539 -15632.986328 28 27 27
1.912793 1.347473 0.377731 8 8 9
-0.013395 -0.004616 -0.020117 20 17 17
0.969198 0.682019 0.203732 32 33 36
3262510.500000 -3457113.500000 6604354.000000 23 24 25
34405.238281 18894.271484 81573.343750 13 10 13
0.032403 0.014780 0.055754 39 42 43
-20672.859375 -9583.626953 -14697.427734 8 7 9
1.916520 1.350758 0.377173 12 11 13
-774.684998 -381.768402 -72.398880 33 37 43
-246227.281250 75075.398438 -535056.562500 10 9 10
-4481.415527 5123.796875 -26818.550781 22 22 25
0.002875 0.001058 0.004512 14 10 7
-21518.718750 -8978.875977 -17431.644531 37 39 42
1.889358 1.332740 0.378914 26 27 28
-2311.722656 -927.744629 -82.774834 13 9 7
1.912767 1.353593 0.372841 31 33 35
-20953.162109 -9393.231445 -15609.488281 15 30 25
-21096.519531 -9427.799805 -15497.422852 29 20 20
-9731202.000000 3402386.500000 -14953294.000000 13 12 14
-21144.769531 -9424.204102 -15627.135742 12 15 13
-1463666.000000 4777321.000000 -26800660.000000 24 25 27
-4531.056641 5133.805176 -26907.828125 37 38 40
184.257858 105.005486 19.631176 39 41 43
-1612099.000000 -2537122.500000 -6720020.000000 10 8 10
2205637.250000 -455228.531250 4085190.000000 15 15 17
