ply
format ascii 1.0
element vertex 320
property float x
property float y
property float z
property uchar blue
property uchar green
property uchar red
end_header
192.005188 28.429405 202.649750 11 9 11
-0.510539 0.027138 -0.585571 33 35 43
-0.578362 0.015279 -0.647915 35 38 40
28753.982422 -14643.010742 19325.728516 19 22 20
28754.212891 -14642.026367 19326.865234 13 10 10
8203.496094 -3078.784912 1960.541260 23 18 18
0.071935 0.024827 0.107888 17 13 11
28759.212891 -14630.492188 19333.099609 13 9 7
28754.013672 -14643.323242 19325.724609 8 7 8
-0.537569 0.019283 -0.611836 39 41 44
-0.410317 0.082065 -0.477229 14 12 10
28754.498047 -14642.631836 19326.277344 43 44 45
-0.559215 0.016256 -0.632463 17 15 14
-0.176410 0.068163 -0.179771 19 13 10
-0.451319 0.060432 -0.515081 12 9 7
-0.455678 0.061692 -0.517225 11 10 9
-0.765242 -0.406344 -0.429484 8 8 9
-4105.893555 -936.948853 -4612.088867 23 23 25
79.521469 16.975195 90.098488 25 25 27
-47.757236 -8.258145 -55.227566 10 7 9
0.043404 0.033502 0.079799 18 26 27
0.002212 0.155075 -0.070861 41 36 40
-0.259261 0.019158 -0.280771 52 55 61
28753.908203 -14643.425781 19325.626953 11 10 11
0.111261 0.009713 0.148382 10 9 12
28745.597656 -14653.997070 19313.404297 6 6 7
463.397675 113.016792 576.258850 19 20 21
28745.634766 -14653.970703 19313.429688 41 43 45
-0.455506 0.060555 -0.517880 30 30 30
536104.375000 12232025.000000 3890225.750000 18 16 18
28745.623047 -14653.979492 19313.417969 40 42 44
-0.257570 0.019748 -0.278535 60 63 65
8190.814941 -3075.005371 1960.307983 38 40 45
0.107687 0.033182 0.148078 32 33 35
8190.417969 -3074.750732 1960.461548 26 14 28
-0.276870 0.013574 -0.302091 60 63 65
0.071003 0.024549 0.106679 28 28 29
28753.679688 -14644.512695 19325.316406 13 12 14
-0.555674 0.018744 -0.624243 20 27 38
28757.523438 -14640.565430 19327.099609 8 6 9
3172.859863 -1819.723511 15.600607 53 46 46
0.013571 0.006862 0.024925 38 40 43
28754.453125 -14642.782227 19326.207031 34 35 36
8190.813477 -3074.996826 1960.304688 10 9 25
8190.553223 -3075.006592 1960.391602 38 36 37
12730.829102 2327.432861 13514.150391 23 22 25
-0.554146 0.018237 -0.624413 25 26 44
-0.542358 0.016542 -0.622427 14 14 15
0.011411 0.005799 0.021135 23 26 32
28745.695312 -14653.934570 19313.455078 23 24 25
-0.410475 0.082037 -0.476909 18 17 15
-0.409262 0.082645 -0.475713 16 13 12
28754.074219 -14642.489258 19326.126953 24 18 20
-666.629883 -87.441910 -697.797668 9 7 10
0.163343 0.049198 0.178053 20 21 24
0.110613 0.011162 0.148014 20 19 22
-0.563977 0.016238 -0.635656 14 10 7
28745.841797 -14653.860352 19313.587891 14 10 7
28753.988281 -14642.999023 19325.734375 18 21 19
28745.609375 -14653.988281 19313.410156 5 5 6
28752.640625 -14645.851562 19323.404297 16 15 16
0.059910 0.021567 0.094012 14 10 8
0.063714 0.024505 0.099674 15 10 8
-0.268195 0.016681 -0.291797 51 56 59
614.106201 143.302307 735.910278 35 35 37
198452.296875 83893.500000 74804.421875 6 4 6
-0.254946 0.019200 -0.272792 20 14 10
-0.523135 0.019492 -0.607552 15 14 16
-0.566531 0.015948 -0.637891 14 9 7
-0.567883 0.014814 -0.641089 29 31 33
1411.716675 271.110046 1468.265015 41 42 45
-0.548923 0.014616 -0.628667 17 17 19
4340.103516 -1382.412109 1420.264038 11 9 13
0.012918 0.006884 0.024006 5 5 6
-0.549260 0.017437 -0.623816 21 18 17
-0.532735 0.023363 -0.602187 17 19 42
0.008091 0.004453 0.015338 40 41 43
763.381409 191.445526 914.255310 33 34 35
-0.355387 0.025116 -0.540341 9 8 11
3873547.250000 1720120.500000 1162900.625000 9 8 10
28754.009766 -14642.932617 19325.712891 14 17 15
659641.812500 382517.093750 235754.203125 27 28 30
-0.578588 0.015178 -0.648386 40 42 44
8190.774414 -3074.962158 1960.301758 20 22 33
-0.425437 0.062001 -0.507697 34 36 37
28745.652344 -14653.959961 19313.437500 7 6 6
779.740784 198.071152 939.569214 37 38 40
2.908288 0.253137 4.334945 10 9 12
-0.532614 0.021292 -0.606700 34 36 48
-0.512895 0.012258 -0.606646 11 10 12
28754.378906 -14642.723633 19326.148438 16 11 9
-0.402517 0.087396 -0.468470 13 9 7
0.008396 0.004630 0.015959 39 41 42
28745.630859 -14653.973633 19313.427734 40 42 44
-1.114118 -0.507756 -0.890844 8 7 8
28754.722656 -14642.569336 19326.529297 10 8 9
158.023178 33.734146 179.444931 60 62 67
28745.820312 -14653.868164 19313.572266 27 26 25
-1336243584.000000 -1308283136.000000 -953064064.000000 35 38 41
-0.267721 0.016301 -0.291375 10 8 9
0.014519 0.007306 0.026459 40 43 44
8190.835938 -3075.032471 1960.319336 12 12 14
1093.256104 229.540207 1209.069580 25 25 27
0.021994 0.010092 0.038727 10 8 10
-0.549970 0.017473 -0.624388 15 11 10
0.034918 0.016731 0.059455 20 21 44
-0.207526 0.027761 -0.227931 20 20 23
-0.518023 0.013633 -0.611043 17 17 20
0.037812 0.030622 0.071820 21 30 33
-0.895205 -0.472589 -0.684130 18 19 21
0.113641 0.097317 0.178523 13 10 8
28754.031250 -14642.786133 19325.835938 21 20 20
-0.498376 0.017665 -0.595974 7 7 9
28753.988281 -14642.996094 19325.734375 22 25 24
12579.051758 -4536.287109 2475.802979 16 15 17
-0.272603 0.014912 -0.297133 60 62 66
28754.113281 -14642.821289 19325.851562 33 38 35
-0.540783 0.018779 -0.620766 20 20 22
-0.494370 0.031754 -0.574792 36 38 40
-0.230889 0.035654 -0.241605 30 41 43
28754.642578 -14642.426758 19326.453125 23 24 25
8190.770996 -3074.962402 1960.302002 40 42 46
28754.603516 -14642.739258 19325.947266 24 23 24
-0.453010 0.059766 -0.516059 12 9 6
28951.726562 -14447.745117 19431.722656 12 10 12
18472.164062 -8858.749023 10643.195312 28 25 25
285.993164 73.126175 350.499725 40 43 44
8935.799805 -3296.527832 1977.099731 15 11 7
0.019350 0.009088 0.034505 6 6 6
0.005486 0.002930 0.010448 10 11 40
0.061426 0.028350 0.096546 37 39 41
3.020187 0.619464 3.511259 28 29 32
28754.453125 -14642.779297 19326.208984 8 6 8
28753.955078 -14643.176758 19325.685547 24 28 27
0.046960 0.051897 0.097271 31 34 35
38115.253906 1426.446289 28716.144531 40 41 43
28754.416016 -14641.947266 19326.302734 17 22 19
-212483984.000000 -191706096.000000 -154573856.000000 50 49 53
28754.484375 -14642.587891 19326.271484 15 10 8
8190.703125 -3075.041504 1960.308105 25 24 26
-0.180716 0.064967 -0.184611 18 13 9
0.072115 0.025014 0.108237 15 11 9
-260.721008 -50.446907 -269.535614 30 30 32
-0.568186 0.014742 -0.641430 22 21 23
28754.058594 -14643.277344 19325.767578 8 6 9
-0.263705 0.017538 -0.286279 11 9 10
0.061212 0.021895 0.095761 26 24 23
8190.823242 -3075.018066 1960.312744 9 8 9
0.011724 0.005996 0.021776 15 19 27
28754.609375 -14641.435547 19326.585938 16 20 19
8191.202637 -3075.257080 1960.442749 13 11 12
-4815.962402 1140.648560 386.449554 21 19 23
-0.244563 0.020347 -0.263270 33 29 28
7296173.000000 10752526.000000 9011149.000000 9 9 11
8190.837891 -3075.027344 1960.312012 38 41 43
12574.782227 2521.818604 13270.523438 8 8 10
-0.181533 0.064377 -0.185599 22 17 15
28755.839844 -14638.628906 19328.359375 19 14 10
-0.219957 0.139761 -0.428846 22 14 16
2991221.250000 3340825.500000 3452467.500000 24 25 27
28745.677734 -14653.944336 19313.445312 40 41 43
8214.255859 -3084.750977 1964.177246 9 8 10
-0.572013 0.015955 -0.641596 40 41 44
28754.033203 -14642.780273 19325.839844 11 8 7
-0.534122 0.016745 -0.616344 26 27 28
591.699890 152.913940 726.725830 10 9 11
28745.664062 -14653.884766 19313.541016 10 10 12
28754.550781 -14642.751953 19326.302734 26 26 28
28754.800781 -14642.393555 19326.605469 11 9 11
-0.554248 0.019455 -0.621026 38 40 42
-0.556390 0.018528 -0.625032 23 29 41
28754.578125 -14642.629883 19326.353516 8 7 9
2621807.500000 -4994615.500000 946435.500000 12 12 14
904.473450 216.379700 1076.490356 35 36 38
28754.015625 -14642.478516 19326.210938 28 32 33
-0.559145 0.017799 -0.628252 6 6 6
-0.233378 -0.266356 0.234956 11 8 12
-0.272792 0.014794 -0.297382 59 62 65
0.062197 0.023842 0.097602 14 10 7
-0.446773 0.062076 -0.511147 12 8 5
28745.597656 -14653.997070 19313.404297 8 7 8
-1775476.625000 -776162.937500 -491807.656250 37 37 41
-0.410281 0.081949 -0.477099 14 12 10
8190.797852 -3074.992920 1960.307373 39 42 45
28754.335938 -14642.118164 19326.189453 16 20 17
-0.539433 0.017033 -0.620895 20 20 22
28755.083984 -14641.507812 19328.650391 9 7 9
8198.106445 -3078.366943 1961.683228 18 18 19
8190.834473 -3075.030762 1960.317261 10 10 12
33.991959 8.175360 42.868004 28 30 31
4394.940430 -1592.162231 1003.596741 18 16 21
28745.636719 -14653.968750 19313.419922 22 23 45
8190.344238 -3074.663574 1960.521362 8 10 9
8190.833984 -3075.030029 1960.317383 12 12 14
8190.821289 -3075.115967 1960.376953 13 11 13
8190.302246 -3074.732178 1960.545166 15 14 15
-0.548392 0.020681 -0.614962 8 8 10
20542.966797 2694.308594 22261.583984 11 10 12
0.073735 0.027452 0.110738 15 12 10
0.125237 0.044013 0.168268 10 8 11
4126.277832 -1349.901245 1306.627197 38 37 41
28755.478516 -14640.209961 19328.066406 40 42 44
0.031877 0.017089 0.055695 7 6 6
-0.223228 0.138491 -0.429595 27 22 25
-0.239108 0.007504 -0.266771 17 18 20
28745.638672 -14653.966797 19313.427734 5 4 7
4678.954102 -2168.003906 1760.923950 29 29 31
28754.103516 -14643.231445 19325.816406 40 42 43
27116.744141 -16192.634766 18484.953125 8 7 8
28745.703125 -14653.930664 19313.470703 40 41 44
-0.537432 0.018215 -0.619795 27 28 30
-0.523053 0.019643 -0.607409 28 28 30
28745.681641 -14653.942383 19313.453125 12 15 24
28754.333984 -14642.750000 19326.091797 38 40 41
23452.818359 -8005.578125 1992.748657 16 11 9
28755.576172 -14640.730469 19327.666016 34 30 30
-0.264770 0.017084 -0.287711 10 9 10
28754.076172 -14642.643555 19325.933594 13 10 7
28753.652344 -14644.581055 19325.101562 9 7 9
28754.185547 -14642.079102 19326.796875 15 12 12
-0.261942 0.018155 -0.283985 10 10 13
0.005644 0.155674 -0.070362 51 53 56
-601.141235 -85.917557 -711.783447 8 7 9
28745.822266 -14653.867188 19313.574219 27 26 25
0.001567 0.154907 -0.071072 44 41 45
28745.599609 -14653.995117 19313.404297 40 42 44
-0.432261 0.015011 -0.570968 18 17 20
3682.906982 -1954.127075 1677.399414 9 10 10
28753.955078 -14643.173828 19325.685547 20 23 22
0.016963 0.008846 0.030912 35 37 39
0.115251 0.032966 0.154472 13 13 16
0.023118 0.014634 0.043134 39 42 43
-1220.350708 -547.882690 685.471313 12 11 13
-4845.057617 2467.732910 -546.612976 18 17 19
-0.551863 0.017014 -0.626342 13 9 6
28765.041016 -14632.914062 19332.878906 27 28 30
4592652.000000 714327.625000 610747.250000 30 30 32
-0.574171 0.015840 -0.643284 39 41 42
8190.785156 -3074.978271 1960.304199 10 8 10
0.029956 0.016939 0.053161 19 25 38
-0.456330 0.013830 -0.581185 25 27 29
28754.974609 -14642.193359 19326.804688 34 36 38
-0.890169 -0.472380 -0.679341 10 10 12
28758.505859 -14635.245117 19331.546875 37 27 28
28754.412109 -14641.944336 19326.308594 20 24 21
-0.525756 0.010905 -0.616310 24 24 27
8283.729492 -3117.642090 1978.563599 9 8 10
-0.561845 0.014865 -0.636726 35 37 39
0.019950 0.009431 0.035575 6 5 6
-0.559273 0.017992 -0.628116 11 12 22
4458.492188 -2118.090820 1742.932373 34 35 37
0.044077 0.032294 0.079858 41 44 44
-169.471817 -22.341568 -177.918976 8 6 9
28754.507812 -14642.797852 19326.496094 34 35 38
28755.001953 -14642.761719 19325.841797 41 42 45
28745.634766 -14653.969727 19313.425781 33 35 40
28753.871094 -14643.236328 19325.609375 17 20 31
-4415.194824 -3024.940674 -8114.046875 43 43 46
28756.734375 -14636.405273 19329.601562 19 13 10
150.870102 26.765928 189.351944 31 32 34
28754.494141 -14642.632812 19326.277344 10 9 11
0.008380 0.004661 0.015957 40 42 44
-144216608.000000 -148243616.000000 -95730672.000000 8 7 9
-0.818913 -0.247605 -0.764494 45 46 50
28759.537109 -14629.798828 19333.560547 12 9 6
8190.359863 -3074.826904 1960.491333 20 17 16
4105.950684 -1540.634521 980.676575 43 44 48
-93443.914062 33283.074219 -11755.720703 15 14 17
-0.640015 -0.368363 -0.422559 37 35 36
2828.653076 -1685.599731 1580.099121 18 18 19
28754.880859 -14642.303711 19326.697266 23 24 26
28754.333984 -14641.790039 19327.220703 22 21 22
10202712.000000 13214282.000000 7680694.000000 16 16 18
-0.523290 0.023984 -0.597812 22 24 43
-8697.812500 -4822.783203 -12940.828125 48 49 53
8203.310547 -3079.087891 1963.109619 29 28 31
0.064304 0.029600 0.100107 26 28 42
28745.839844 -14653.860352 19313.585938 13 9 6
0.107936 0.009488 0.144932 17 16 20
28754.380859 -14642.723633 19326.150391 29 26 25
0.021229 0.010153 0.037718 6 5 5
8913.507812 -3325.697998 2039.372314 10 8 10
-0.272429 0.015021 -0.296738 60 62 66
2855.137207 660.637268 3193.435059 17 16 18
-0.262586 0.018072 -0.284782 24 30 44
28745.671875 -14653.948242 19313.447266 14 17 25
28754.728516 -14642.557617 19326.503906 41 42 44
-0.402900 0.086839 -0.468886 12 9 7
-0.549150 0.020596 -0.615996 6 6 9
32803.503906 -10156.549805 24884.830078 23 23 25
-0.442641 0.063705 -0.506923 14 10 7
28754.371094 -14642.759766 19326.132812 28 27 27
-0.555458 0.014589 -0.632719 8 8 9
8190.812988 -3074.994873 1960.300659 15 16 43
-0.254555 0.019126 -0.272509 21 15 11
-0.274577 0.014034 -0.300748 32 33 36
28770.781250 -14622.282227 19349.666016 11 10 11
8190.876465 -3075.120605 1960.357666 13 10 13
0.027726 0.012647 0.047707 39 42 43
28758.179688 -14639.299805 19328.175781 8 7 9
-0.561122 0.014865 -0.636259 12 11 13
-0.531868 0.024486 -0.599199 33 37 43
28753.953125 -14643.180664 19325.683594 24 27 27
-1.133168 -0.511761 -0.912335 10 9 10
-0.893393 -0.472793 -0.682216 22 22 25
-0.538424 0.016601 -0.619418 26 27 28
-0.442004 0.063936 -0.506526 13 9 7
28745.804688 -14653.877930 19313.519531 26 33 36
-0.563408 0.017644 -0.631177 31 33 35
8190.359863 -3074.677490 1960.505005 15 30 25
8190.771484 -3074.959473 1960.299683 22 26 39
0.061575 0.022230 0.096021 14 9 7
4988016.000000 7931759.000000 3497764.250000 13 12 14
28754.406250 -14641.963867 19326.292969 12 15 13
-9.103487 -1.823990 -10.022346 9 7 9
-3.243561 -1.074490 -3.668439 37 38 40
-0.573413 0.015782 -0.643019 39 41 43
8190.789062 -3074.981201 1960.306396 10 8 10
28757.396484 -14636.406250 19330.244141 29 20 20
1061.560425 117.218971 1159.469238 15 15 17
