ply
format ascii 1.0
element vertex 120
property float x
property float y
property float z
property uchar blue
property uchar green
property uchar red
end_header
-0.459835 0.013908 -0.660610 35 38 40
-0.191128 0.115117 -0.535406 14 12 10
-0.325262 0.096951 -0.527537 30 30 30
0.108201 0.024994 0.098267 32 33 35
0.042318 -0.025456 0.097364 28 28 29
0.010224 0.001887 0.139445 38 40 43
-0.433492 0.049664 -0.618697 14 14 15
-0.053789 -0.018745 0.048442 23 26 32
0.067605 0.033074 0.169580 15 10 8
-0.040504 -0.052046 -0.059411 40 41 43
0.000125 -0.101151 0.060770 39 41 42
0.059932 0.014088 0.083798 13 10 8
-0.248996 0.006474 -0.283316 60 62 66
-0.424214 -0.014597 -0.659231 20 20 22
0.085570 0.011183 0.155600 37 39 41
-0.125431 0.108611 -0.331166 33 29 28
-0.428002 0.046241 -0.658848 26 27 28
0.128804 0.002557 0.025643 14 10 7
-0.227612 0.088635 -0.557223 14 12 10
-0.144591 0.002659 -0.311456 14 12 14
-0.122737 0.156088 -0.238335 10 9 10
0.068390 0.239019 -0.123840 51 53 56
-0.065307 0.033947 -0.008338 35 37 39
-0.450106 -0.011122 -0.667903 40 41 44
-0.453149 -0.031140 -0.611116 39 41 42
-0.483090 0.008810 -0.567587 35 37 39
0.058005 -0.033813 0.016444 26 28 42
0.020244 0.055684 0.024025 6 5 5
-0.350993 0.091750 -0.430671 14 10 7
-0.401802 -0.006488 -0.630563 26 27 28
-0.076482 -0.070696 -0.281524 19 13 10
-0.256504 -0.007348 -0.442242 12 9 7
-0.028193 0.168264 -0.025406 41 36 40
-0.245377 0.079144 -0.582562 18 17 15
-0.356370 0.030664 -0.535260 16 13 12
0.112057 0.033143 0.164703 20 21 24
-0.179746 0.015964 -0.322265 60 62 66
0.123849 0.097256 -0.001383 14 10 8
-0.125952 0.003839 -0.262872 20 20 23
-0.154526 0.006357 -0.258047 30 41 43
0.016105 0.026237 0.075947 6 6 6
-0.134918 0.119449 -0.157740 18 13 9
-0.196633 0.017162 -0.267869 11 9 10
0.094462 0.003722 0.052289 26 24 23
-0.499305 0.035820 -0.586994 6 6 6
0.062007 -0.004329 0.068369 40 42 43
0.067471 0.063909 0.203361 10 8 11
-0.161208 -0.051277 -0.271416 10 10 13
0.052582 0.167654 -0.168021 44 41 45
0.042280 0.002410 -0.013420 39 42 43
-0.113893 0.173860 -0.466819 22 14 16
-55.028172 -32.130894 11.456571 21 14 12
0.064726 -0.052936 0.226896 17 16 20
0.002827 0.036974 0.053915 39 42 43
-0.000937 0.028162 0.178774 17 13 11
-0.540180 -0.019999 -0.636720 17 15 14
-0.196286 0.019036 -0.326394 52 55 61
0.078200 0.041293 0.117367 10 9 12
-0.237438 0.014443 -0.314779 60 63 65
-0.421861 -0.022594 -0.675814 20 27 38
-0.546212 -0.017135 -0.663770 25 26 44
-0.142459 0.048184 -0.288935 51 56 59
-0.388375 0.063638 -0.648143 17 17 19
-0.452764 0.013512 -0.707358 33 35 38
-0.027202 0.008413 0.101966 5 5 6
-0.256040 0.014063 -0.595240 9 8 11
-0.443396 0.034085 -0.604250 11 10 12
-0.272854 -1.141013 0.424039 40 43 44
-0.520658 0.028604 -0.676748 15 11 10
0.087828 -0.016567 0.063577 20 21 44
-0.027073 -0.068531 0.107411 21 30 33
-0.410587 0.122567 -0.601729 7 7 9
0.054869 0.024930 0.090573 15 19 27
-0.070696 0.005466 -0.236139 22 17 15
-0.487855 0.030753 -0.676108 38 40 42
-0.520343 -0.033446 -0.690272 23 29 41
0.056383 0.084350 0.182006 6 5 6
0.064062 0.153758 0.116611 41 44 44
0.091704 0.048041 0.144492 15 12 10
-0.203339 0.052854 -0.299273 59 62 65
-0.416798 0.017419 -0.585355 27 28 30
-0.448828 0.044976 -0.553784 28 28 30
-0.334365 -0.061738 -0.565900 13 9 6
-0.051327 0.005862 0.121303 19 25 38
-0.035982 -0.016018 -0.008243 40 42 44
-0.494161 0.018098 -0.611338 8 8 10
-0.232374 0.174027 -0.556743 12 9 7
-0.427699 0.040484 -0.678582 6 6 9
-0.496859 0.031852 -0.665840 12 11 13
-0.455618 0.056172 -0.601243 33 37 43
-0.333890 0.011939 -0.599659 13 9 7
-0.331237 -0.039009 -0.540209 11 10 9
0.101240 0.159310 0.067779 18 26 27
0.102768 0.022330 0.181757 20 19 22
-0.355039 -0.063651 -0.638974 15 14 16
-0.366646 0.048902 -0.700727 21 18 17
-0.418686 0.086377 -0.652163 17 19 42
-0.412616 -0.030533 -0.624721 16 16 17
14.248573 -31.118904 -13.457573 40 42 44
-0.298690 0.058838 -0.466082 13 9 7
-0.162927 0.067668 -0.306140 10 8 9
-0.448033 -0.037091 -0.599168 11 12 22
-0.406884 -0.013289 -0.640666 17 17 20
-0.397315 0.020642 -0.585181 12 9 6
0.084745 0.134127 -0.030565 10 11 40
0.066484 0.040639 0.033665 31 34 35
0.119089 -0.012343 0.105036 15 11 9
-0.335603 0.000375 -0.601107 12 8 5
0.075593 -0.028326 0.070112 14 9 6
-0.049279 -0.055391 0.022005 7 6 6
-0.086035 0.064357 -0.362350 27 22 25
-0.199377 0.056261 -0.364152 17 18 20
0.109769 -0.011647 0.197236 13 13 16
-0.441161 0.027679 -0.637862 24 24 27
-0.459278 0.063953 -0.583384 14 15 17
-0.323436 0.026215 -0.567748 25 27 29
-0.165377 -0.039660 -0.326519 24 30 44
-0.224085 -0.027590 -0.225465 32 33 36
-0.467722 -0.020193 -0.616112 31 33 35
-0.412174 0.028484 -0.731492 39 41 43
