ply
format ascii 1.0
element vertex 326
property float x
property float y
property float z
property uchar blue
property uchar green
property uchar red
end_header
-9066.751953 -52635.460938 -13488.196289 14 9 8
-331.226837 -9.265495 98.431297 16 19 18
9064.924805 1559.048950 7988.952148 40 41 43
-9088.064453 -53059.261719 -13206.910156 8 7 8
9064.713867 1559.033936 7989.069336 30 30 32
-9087.780273 -53057.812500 -13206.589844 38 39 41
4546876.500000 21609312.000000 -16187331.000000 22 21 23
-11.785349 -25750.085938 -2608.671631 31 30 33
-9088.032227 -53058.972656 -13206.901367 19 17 17
1068087.875000 6725616.500000 -5310504.000000 19 19 22
-9066.660156 -52635.480469 -13488.272461 27 26 25
9064.904297 1559.036987 7988.934570 6 6 7
-9066.787109 -52635.488281 -13488.116211 40 42 43
-2609974.250000 10654962.000000 -1088443.250000 28 28 31
-1011622.750000 4832988.500000 66884.882812 19 17 21
-62565320.000000 14239987.000000 -931036.687500 22 23 25
-891731.375000 -3766510.750000 2615085.250000 53 53 57
-9066.836914 -52635.437500 -13488.381836 15 16 42
-9077.389648 -52847.285156 -13347.564453 55 58 65
3854774.750000 24713844.000000 -18707000.000000 10 8 10
9065.017578 1559.132568 7989.100098 15 12 11
725060.187500 100830944.000000 -3674765.000000 13 11 9
-9073.349609 -52827.558594 -13357.987305 39 39 42
1520122.500000 7711147.000000 -4993768.500000 26 27 29
-99263.242188 -693249.687500 526622.312500 16 15 16
-9066.727539 -52635.492188 -13488.302734 29 29 32
-9066.844727 -52635.039062 -13488.560547 9 8 10
-9066.801758 -52635.437500 -13488.337891 20 20 41
-9126.228516 -52920.566406 -13340.384766 13 12 14
-9088.051758 -53058.742188 -13206.835938 6 6 8
433253.062500 1936199.375000 -1631889.250000 6 5 7
-36837.011719 -236492.859375 175034.734375 40 41 43
-9087.431641 -53054.410156 -13209.138672 27 28 29
9064.923828 1559.047119 7988.951172 40 42 44
-9066.739258 -52635.390625 -13488.295898 19 19 22
-9066.777344 -52635.425781 -13488.220703 17 15 17
9064.794922 1559.039307 7989.001465 25 23 24
9065.005859 1559.128662 7989.094727 15 11 10
-9088.032227 -53058.984375 -13206.898438 13 9 8
-9079.290039 -52856.644531 -13343.548828 30 25 24
-9066.716797 -52635.531250 -13488.253906 16 17 37
1196696.875000 4623364.500000 -4168527.500000 18 16 18
-9088.098633 -53058.843750 -13206.859375 9 7 9
-9066.824219 -52635.476562 -13488.346680 18 18 19
9064.696289 1559.032349 7989.088867 18 19 21
9064.967773 1559.041382 7988.923828 7 7 8
-9066.697266 -52635.355469 -13488.312500 40 42 44
-9088.039062 -53058.730469 -13206.833008 21 21 22
-626940.187500 -2697780.250000 1965718.000000 8 7 9
9064.998047 1559.114014 7989.064453 13 9 6
2056.656738 21663.632812 1948.166138 35 33 34
-9087.429688 -53054.480469 -13209.032227 23 23 25
-9088.105469 -53058.925781 -13206.875977 6 5 7
0.436941 -0.055471 0.643846 17 17 20
9064.691406 1559.008057 7989.021973 9 7 9
-9066.758789 -52635.328125 -13488.170898 39 41 43
-8931.661133 -52171.296875 -13699.828125 10 8 10
-13031668.000000 56095088.000000 -5139643.000000 11 9 12
-9066.863281 -52635.546875 -13488.154297 27 28 29
125965.734375 349389.468750 -229569.906250 59 56 58
-9066.822266 -52635.414062 -13488.268555 6 6 8
-9066.707031 -52635.484375 -13488.207031 39 41 43
-9085.224609 -53053.402344 -13211.076172 10 7 10
7204.184570 -5017.678711 14158.225586 22 21 24
9064.657227 1559.006104 7989.041016 40 42 45
-9077.404297 -52847.335938 -13347.472656 18 20 32
0.270335 -0.062976 0.638159 10 7 10
-67612.218750 -694116.062500 488482.093750 40 41 44
-6407458.500000 28580242.000000 -734261.375000 9 10 12
-72918.781250 -396523.875000 254781.890625 32 31 34
9064.671875 1559.030029 7989.106445 26 27 29
9064.951172 1559.058105 7988.959473 22 30 42
-9066.750977 -52635.554688 -13488.350586 36 37 40
19041.617188 510549.281250 -351812.593750 30 29 32
39416.523438 -514371.062500 336140.875000 25 24 26
-9066.806641 -52635.523438 -13488.150391 14 10 7
-9087.968750 -53058.269531 -13206.711914 13 10 7
-9066.828125 -52635.070312 -13488.697266 20 19 21
-9088.099609 -53058.804688 -13206.849609 14 11 7
-9088.056641 -53058.894531 -13206.906250 31 32 34
-9087.917969 -53058.070312 -13206.655273 12 8 7
-9066.712891 -52635.484375 -13488.172852 36 39 40
-9088.038086 -53058.722656 -13206.831055 9 7 9
-150475.218750 -646076.125000 505008.312500 17 17 19
-9084.666992 -52872.210938 -13335.745117 24 24 26
-9066.760742 -52635.554688 -13488.170898 7 6 7
-9088.078125 -53058.796875 -13206.849609 25 25 26
-9066.866211 -52635.027344 -13488.598633 9 7 10
0.550595 -0.034305 0.636506 23 22 25
-22.857679 -2.596381 6.017378 13 9 7
-9088.099609 -53058.808594 -13206.850586 15 11 7
-9066.776367 -52635.511719 -13488.266602 14 10 7
9064.794922 1559.035889 7989.002441 26 26 26
2.982767 6.614649 -2.443830 26 27 29
-163.290482 -13.114409 51.312099 17 21 18
0.306090 0.066397 0.639700 32 34 35
-9066.743164 -52635.539062 -13488.323242 10 10 37
-9066.728516 -52635.304688 -13488.206055 9 10 18
-9066.726562 -52635.292969 -13488.239258 7 6 7
-9066.829102 -52635.503906 -13488.085938 40 42 43
-9088.097656 -53058.843750 -13206.858398 39 40 42
9064.910156 1559.038208 7988.926758 40 42 44
-9077.612305 -52846.984375 -13347.300781 23 29 44
11682949.000000 58519564.000000 -36825412.000000 25 24 26
-9066.666016 -52635.441406 -13488.236328 38 40 42
9064.983398 1559.105957 7989.062500 24 24 23
-7458725.000000 29534532.000000 -414254.593750 11 10 13
-2393600.500000 11594981.000000 -812612.250000 55 57 61
-9088.105469 -53058.875000 -13206.865234 24 25 26
-9087.919922 -53058.082031 -13206.659180 32 31 32
-9066.682617 -52635.421875 -13488.227539 7 7 9
8315.711914 -1775.507690 10835.169922 26 25 29
-9088.104492 -53058.859375 -13206.862305 28 27 28
-9077.276367 -52846.609375 -13347.878906 40 41 44
-9087.827148 -53057.613281 -13207.453125 43 44 46
9064.687500 1559.029175 7989.083984 31 33 35
-9066.759766 -52635.406250 -13488.275391 13 9 6
1341689.625000 8115141.000000 -5408117.500000 6 6 8
9064.967773 1559.040649 7988.923828 10 11 12
-9066.719727 -52635.433594 -13488.291992 22 19 18
-12571.228516 -232598.125000 182401.125000 10 9 11
-9088.109375 -53058.847656 -13206.859375 24 23 24
-4463.597656 -63809.988281 54268.574219 6 4 6
-8666943.000000 -44951580.000000 32160960.000000 32 33 35
9355.664062 3076.487549 6713.378418 7 6 8
3.508523 4.655777 -2.378172 8 7 9
-9087.772461 -53057.796875 -13206.584961 30 26 26
0.450736 -0.051280 0.605976 9 7 10
-9088.100586 -53058.867188 -13206.864258 41 42 45
-9088.006836 -53058.648438 -13206.813477 8 7 8
-9077.363281 -52847.417969 -13347.625977 27 33 48
-9066.750977 -52635.519531 -13488.190430 7 7 8
-9737.788086 -57149.214844 -11018.336914 11 10 12
-9088.102539 -53058.832031 -13206.856445 15 11 9
-1709284.000000 5345664.500000 -240879.265625 12 10 13
9064.667969 1559.088623 7989.081055 32 33 35
1196033.750000 6256482.500000 -3835266.500000 29 28 31
25663.576172 103980.937500 -97030.476562 45 44 47
-9066.733398 -52635.347656 -13488.142578 39 41 43
-9088.076172 -53058.812500 -13206.852539 10 9 10
-9088.036133 -53058.617188 -13206.805664 28 19 19
-9088.060547 -53058.773438 -13206.843750 20 20 21
9064.955078 1559.033325 7988.914551 8 9 43
9064.808594 1559.044189 7989.007812 14 9 8
-9087.819336 -53057.726562 -13207.487305 7 7 8
9064.956055 1559.057495 7988.960449 11 15 24
63357.285156 393071.750000 -288885.218750 7 5 7
9064.618164 1559.013306 7989.091797 35 36 39
9064.943359 1559.064209 7988.965332 41 43 45
9064.717773 1559.028809 7989.045898 8 6 9
-9066.732422 -52635.566406 -13488.322266 39 41 43
29959.013672 126315.296875 -100753.695312 27 27 30
-46.709690 -7.014973 12.262345 13 10 7
9064.993164 1559.070801 7988.977539 12 12 13
0.344629 -0.078249 0.705438 41 42 45
-9088.017578 -53058.648438 -13206.977539 38 39 42
9064.908203 1559.036743 7988.934570 6 5 6
-9066.737305 -52635.429688 -13488.310547 21 20 22
-9077.762695 -52848.507812 -13347.086914 12 10 11
-9088.105469 -53058.875000 -13206.866211 23 23 24
0.526146 -0.061569 0.632983 34 34 37
-9088.052734 -53058.660156 -13206.816406 42 41 41
-9077.382812 -52852.742188 -13345.643555 14 13 15
-9066.652344 -52635.410156 -13488.289062 29 30 34
-5.489939 0.535057 1.712457 13 9 7
-9088.115234 -53058.953125 -13206.879883 9 7 8
15207.583008 74809.929688 -40129.847656 24 23 26
-9066.681641 -52635.488281 -13488.225586 39 41 43
-9066.723633 -52635.421875 -13488.276367 40 42 44
-9080.071289 -52860.531250 -13341.795898 23 16 13
-9087.852539 -53058.000000 -13207.406250 9 7 10
21.291702 6.612273 -6.662331 21 20 20
-9066.808594 -52635.539062 -13488.161133 23 24 25
-42165.332031 -298852.750000 180884.265625 8 8 11
0.557977 -0.041619 0.650622 33 35 38
61218.875000 447550.593750 -315679.000000 12 10 12
-9066.759766 -52635.343750 -13488.179688 7 6 7
9064.643555 1559.002686 7989.057617 14 13 15
-9066.711914 -52635.457031 -13488.254883 35 35 38
-9088.098633 -53058.843750 -13206.858398 7 6 7
-9066.698242 -52635.460938 -13488.318359 6 5 7
282771.312500 1555857.750000 -948883.000000 28 27 30
-47.454231 -2.203106 13.384432 10 13 11
8679.461914 -49406.144531 40933.675781 38 40 42
9064.958984 1559.071899 7988.984375 40 41 44
-9066.737305 -52635.468750 -13488.373047 20 21 23
9064.693359 1559.009277 7989.018555 26 27 29
9064.829102 1559.038452 7988.986328 15 10 7
9064.934570 1559.054199 7988.962402 7 6 7
9064.976562 1559.048340 7988.929688 40 41 43
9064.933594 1559.055054 7988.958984 7 6 7
9064.691406 1559.009644 7989.020996 8 7 9
0.424408 -0.065847 0.673632 7 7 9
-9087.711914 -53057.683594 -13206.555664 28 25 25
-9088.093750 -53058.851562 -13206.861328 31 33 34
-9087.869141 -53058.238281 -13207.345703 25 24 27
0.270212 -0.062249 0.721597 37 38 40
-9088.075195 -53058.808594 -13206.851562 41 43 44
9064.986328 1559.108887 7989.060059 27 26 25
9064.807617 1559.042969 7989.009277 13 9 8
-9066.769531 -52635.558594 -13488.158203 39 40 42
-9066.697266 -52635.421875 -13488.301758 7 7 9
9065.038086 1559.084961 7988.971191 26 33 36
1422723.625000 7728835.500000 -6141138.500000 8 7 9
-9077.956055 -52849.402344 -13346.580078 15 14 16
-9066.784180 -52635.328125 -13488.268555 7 6 7
-9077.756836 -52849.128906 -13346.825195 28 24 23
7979.933105 22846.371094 -34827.968750 54 54 56
9064.829102 1559.039307 7988.987793 14 9 8
-9088.038086 -53058.726562 -13206.832031 12 11 12
377119.875000 5261742.000000 -3822109.000000 24 25 27
9064.969727 1559.041260 7988.922852 9 10 11
169972.953125 861110.625000 -619698.312500 20 19 22
80992.265625 195092.468750 -88331.187500 35 31 39
-9088.070312 -53058.781250 -13206.845703 24 23 25
147.362839 19.593018 -52.887039 14 17 15
9065.004883 1559.129150 7989.096680 14 10 8
-9088.103516 -53058.859375 -13206.862305 42 43 45
-9088.101562 -53058.867188 -13206.864258 25 25 27
9064.989258 1559.064087 7988.984863 26 28 29
-9066.708008 -52635.445312 -13488.277344 25 26 28
-9088.101562 -53058.867188 -13206.863281 20 19 20
-9088.000000 -53058.640625 -13206.811523 8 8 9
-9087.609375 -53055.242188 -13208.297852 10 7 11
9064.636719 1559.008667 7989.072754 25 26 28
-13895.228516 -117392.750000 80925.820312 40 40 43
-3717347.500000 -34441988.000000 26998110.000000 9 8 10
-9087.441406 -53054.410156 -13209.114258 30 32 33
-9087.701172 -53057.652344 -13206.546875 24 20 21
-9088.105469 -53058.820312 -13206.853516 16 11 10
4.264780 2.781105 -1.231578 11 8 7
-9087.648438 -53056.289062 -13208.238281 28 27 29
53.095390 11.357314 -12.932937 12 9 7
-9088.099609 -53058.804688 -13206.849609 15 11 9
-9088.060547 -53058.761719 -13206.840820 7 6 7
-9088.005859 -53058.644531 -13206.812500 11 10 11
9064.973633 1559.045776 7988.931152 40 42 44
-9088.115234 -53058.957031 -13206.880859 26 24 28
-9088.115234 -53058.953125 -13206.880859 7 5 6
0.770659 0.065197 0.906908 28 32 33
-6994793.500000 31495294.000000 -1288333.125000 19 18 21
-9088.104492 -53058.832031 -13206.856445 18 14 13
9065.457031 1564.562378 7984.772461 41 42 45
20913.701172 56063.906250 -31603.480469 30 30 32
1480346.875000 7974818.500000 -5038290.000000 22 23 26
-9074.149414 -52831.394531 -13356.188477 28 28 31
-9066.765625 -52635.492188 -13488.226562 30 30 31
9263.750000 2229.284668 7432.769043 9 8 10
9064.931641 1559.035889 7988.928711 40 42 44
9064.958984 1559.034180 7988.912109 24 23 33
-0.527880 0.245839 1.064291 24 18 20
-9087.654297 -53056.328125 -13208.216797 24 23 25
-9088.005859 -53058.644531 -13206.812500 10 9 10
-9066.820312 -52635.457031 -13488.235352 28 30 43
0.488801 -0.073258 0.570433 10 8 12
-5828.753906 -99857.101562 45971.296875 37 38 41
-9066.774414 -52635.351562 -13488.314453 34 36 39
-9066.776367 -52635.414062 -13488.151367 14 10 8
-9088.101562 -53058.867188 -13206.864258 25 25 27
-9066.810547 -52635.453125 -13488.245117 7 8 9
9065.272461 1564.206055 7985.142090 12 12 14
9064.722656 1559.034790 7989.055176 30 29 31
-9066.705078 -52635.570312 -13488.329102 12 12 13
-9066.811523 -52635.382812 -13488.280273 8 8 9
9064.642578 1559.010132 7989.058105 11 10 12
-9088.791992 -53071.027344 -13202.979492 16 12 10
-71696.656250 -582547.062500 435847.656250 7 6 8
-9079.465820 -52860.656250 -13341.457031 14 11 15
-9066.678711 -52635.382812 -13488.202148 8 6 8
-9088.109375 -53058.843750 -13206.859375 18 14 13
9064.938477 1559.041382 7988.932617 33 35 39
-9066.804688 -52635.421875 -13488.322266 40 42 44
9064.866211 1559.059570 7989.006348 39 41 46
9888.552734 7128.096191 3332.376953 13 12 14
-9066.716797 -52635.386719 -13488.247070 38 40 43
9064.815430 1559.032349 7988.984375 14 10 8
-9087.974609 -53058.289062 -13206.717773 13 8 6
21.225834 5.701659 -6.282337 29 29 33
34174.246094 113345.117188 -91637.289062 22 22 25
-9077.428711 -52847.300781 -13347.553711 61 63 67
-9077.416992 -52847.304688 -13347.542969 59 62 65
-9066.686523 -52635.566406 -13488.244141 12 12 13
9064.693359 1559.025879 7989.071289 26 26 29
9064.666992 1559.106567 7989.091309 7 6 9
-9087.996094 -53058.429688 -13206.757812 39 38 39
-3381.308838 -41788.921875 9304.421875 40 40 44
-9066.865234 -52635.070312 -13488.613281 39 41 44
9064.830078 1559.042480 7988.988770 14 10 8
9064.642578 1559.009644 7989.059082 11 10 12
32195.755859 117746.515625 -73824.968750 23 24 25
12485.854492 19493.484375 -8483.492188 8 7 9
-9088.102539 -53058.855469 -13206.861328 25 26 28
-9066.664062 -52635.476562 -13488.311523 36 36 38
-1384693.875000 -7125688.000000 5121010.000000 5 4 6
-9066.788086 -52635.519531 -13488.222656 17 13 11
9064.998047 1559.113403 7989.065918 14 10 7
9064.950195 1559.040283 7988.922852 5 5 7
9064.935547 1559.048706 7988.913574 41 42 45
-9066.738281 -52635.445312 -13488.218750 12 8 9
9064.982422 1559.061035 7988.957520 6 5 7
-6270957.500000 26461920.000000 -1539854.500000 20 20 22
-9077.747070 -52848.527344 -13347.048828 24 25 27
9260.401367 2431.966064 7239.648926 7 5 8
9064.960938 1559.038818 7988.918457 39 40 42
0.510604 -0.034402 0.624543 35 36 39
-9087.972656 -53058.281250 -13206.716797 12 8 6
9064.639648 1559.011719 7989.066895 25 25 28
0.061921 -0.005794 0.659199 10 9 10
9064.917969 1559.049316 7988.962402 41 43 45
-637228.375000 -5324679.000000 3917173.000000 7 7 8
-9066.782227 -52635.394531 -13488.265625 34 36 39
74174.695312 368097.312500 -277076.687500 57 59 62
-1977458.625000 8894171.000000 -330944.625000 24 23 27
-2622439.000000 -12973818.000000 8094765.000000 14 12 14
9064.899414 1559.035400 7988.940430 8 7 8
-343.832947 -9.735972 102.473289 17 21 20
5.472408 4.787894 -5.161089 17 20 20
-9088.031250 -53058.695312 -13206.825195 7 7 9
-9077.282227 -52846.855469 -13347.807617 14 13 15
9064.988281 1559.051392 7988.944336 18 18 20
-115848.671875 -795911.500000 602724.062500 27 27 29
-9088.098633 -53058.843750 -13206.858398 8 5 7
9065.587891 1569.600342 7980.831055 8 6 9
-14876.535156 -260247.828125 203569.515625 7 6 8
-9089.516602 -53061.992188 -13204.418945 16 11 9
9064.648438 1559.029297 7989.126465 40 42 44
