ply
format ascii 1.0
element vertex 527
property float x
property float y
property float z
property uchar blue
property uchar green
property uchar red
end_header
132385.343750 156553.156250 -443817.812500 9 7 9
314.293915 147.564819 541.318542 40 42 44
1234.750244 191.009216 -852.275513 33 35 43
-280025.781250 -345607.406250 532259.875000 23 18 18
481.317810 21.653997 -697.859131 14 13 15
771.516907 155.878937 -682.629150 17 17 19
-166517408.000000 -34524732.000000 247971200.000000 39 41 44
285.467682 106.103020 428.144653 22 20 19
44428.718750 14470.594727 -75558.304688 27 16 29
74294.593750 21924.511719 -59018.410156 27 25 28
771.119812 143.481705 -695.423584 8 6 9
484.384460 22.974783 -699.186035 38 38 40
771.563171 155.660156 -682.921875 24 20 20
279.924438 169.820831 527.121033 26 29 30
483.247467 22.619741 -698.523193 26 26 29
276092.125000 473368.250000 -1387258.250000 41 43 45
537.024292 145.896774 730.680176 32 33 35
29749714.000000 13764949.000000 -576926528.000000 38 28 30
439.337646 151.898651 660.087280 28 28 29
-1197101312.000000 -393472224.000000 21256108.000000 8 6 9
1047.882690 51.751575 -799.711853 10 12 11
755.501892 167.407730 -70.492317 11 11 13
487.785889 23.902826 -699.816711 35 36 38
1151.286377 161.050018 -688.741638 24 25 26
-310954.875000 -586677.625000 1415809.125000 10 9 10
924.670532 204.644318 -668.647095 22 26 39
-3932.618896 -917.957947 -287.809570 41 43 45
186.656921 71.561760 291.074615 15 11 8
44022668.000000 20673168.000000 2431486.750000 6 4 6
19577810.000000 46023912.000000 -147959344.000000 41 42 45
-2389149.250000 -448594.750000 6300373.500000 98 104 109
824651.250000 1402606.625000 -4167677.500000 11 9 13
863.819336 170.379227 -594.187500 8 7 8
8917.335938 4939.539062 -8395.264648 38 37 40
770.957031 143.424805 -695.414551 34 36 38
-37483.816406 -10978.842773 29622.968750 13 12 14
235974.656250 225017.203125 -662567.937500 23 24 25
291.437561 136.887344 519.698059 6 6 6
-36445024.000000 -16009610.000000 -1693818.875000 9 8 10
770.820557 143.418243 -695.502441 9 9 11
771.451660 155.932358 -682.578125 26 23 21
559.476807 429.968262 846.789124 13 10 8
5301.246582 1022.142334 -10257.294922 40 42 44
326925856.000000 38453848.000000 -555763008.000000 36 38 40
6818.949707 1780.435425 -5309.438965 38 40 45
485.670288 23.755453 -699.572815 27 26 25
869.860718 180.826431 -688.229858 9 7 10
129979880.000000 85851696.000000 -131047696.000000 9 9 10
-321032.062500 -158108.140625 -36520.699219 4 4 6
928.988586 101.991982 -654.875977 14 17 17
529490752.000000 130051512.000000 -13441006.000000 39 40 42
-809.133423 -330.258514 -4029.940186 38 40 43
8483.852539 4072.261230 429.647888 7 6 8
40508.914062 5667.888672 -29667.291016 57 60 64
770.585388 149.840759 -688.701660 26 32 28
-298.386810 -68.858498 -317.809479 35 36 39
33358.117188 9287.385742 -25283.277344 78 83 87
-4318127.500000 -1823877.250000 -545437.937500 8 7 8
86301784.000000 30775866.000000 1653532.000000 24 25 27
517217.781250 222292.828125 72214.945312 45 47 51
12098820.000000 46359024.000000 -83276488.000000 16 15 18
770.855225 143.401031 -695.523376 43 44 45
-869.267212 -324.877625 -3571.423828 17 17 20
804.343872 164.830063 -677.786743 28 23 23
483.850677 22.944807 -698.257507 10 10 12
1545648.500000 2292371.000000 -7691117.500000 9 8 10
51678184.000000 20291406.000000 7286262.500000 7 6 8
-85321.773438 -124070.976562 384428.937500 11 8 12
185.747879 71.203354 291.482269 14 10 7
2336445.750000 817573.000000 30415.349609 7 6 7
-337944.500000 -91411.460938 801646.125000 58 61 66
-40197.195312 -13511.895508 1071.184937 35 38 41
484.775177 23.125116 -699.332825 14 10 8
771.079773 143.369339 -695.589233 12 14 12
463.122711 126.855347 589.690369 23 23 25
-16667667.000000 -7887994.500000 -1032423.437500 27 28 30
-3740839.000000 -1782596.000000 -258569.796875 34 35 38
16905.722656 8790.402344 -33227.699219 13 10 7
29502.222656 47642.921875 -160615.218750 16 15 17
819.039856 158.573746 -229.423340 59 62 65
822.136169 158.003387 -165.431473 35 39 47
565.297791 175.158966 47.054100 10 9 10
-28101.146484 -36660.066406 101967.968750 22 21 23
771.057373 143.482727 -695.544800 10 8 11
568.854858 250.739227 136.134430 51 53 56
771.661926 155.956741 -682.683899 28 26 25
-1727982208.000000 -419284000.000000 44576264.000000 18 18 20
-15390.909180 -10054.009766 17860.039062 29 29 31
876.326904 179.184235 -537.096008 60 63 66
1223.617676 157.038315 -752.468140 39 41 42
75614688.000000 36402956.000000 7926813.500000 23 24 26
55182.980469 65785.109375 -93189.703125 16 17 18
1645425.625000 8652800.000000 -17644276.000000 10 10 12
770.486633 143.246323 -695.466797 37 27 28
103141.359375 121963.859375 -187360.375000 15 11 7
1201.438965 231.878082 -1181.850342 11 10 11
771.486633 155.885147 -682.610840 13 13 15
-383272.625000 -1449409.625000 2783035.750000 8 6 9
771.087036 156.175064 -682.302734 19 23 21
770.992493 143.298706 -695.601624 17 20 31
-8593.912109 -14909.804688 38834.437500 31 32 34
-9422489.000000 -3653824.000000 -647860.500000 41 42 45
708.760742 163.127014 -79.566666 51 53 57
4151754752.000000 817328000.000000 -390449728.000000 6 5 6
9821.889648 5284.643066 -18697.193359 20 17 16
2727985.750000 3883260.500000 -9798848.000000 32 31 34
424.640808 114.326370 576.659119 23 23 25
-28235406.000000 -1299794.000000 12569789.000000 22 21 22
771.133972 149.637741 -689.051880 31 33 35
-210399.953125 -64483.660156 373093.718750 35 34 35
-255152.015625 -552402.562500 1553089.750000 6 5 8
319.217865 146.941574 496.952515 26 28 42
772404.875000 381487.875000 79721.906250 25 26 28
-389728.312500 -480252.375000 739765.500000 45 38 35
844.140137 164.226791 -599.719604 25 25 27
-48036308.000000 -13647230.000000 201837184.000000 28 20 16
770.724243 143.379211 -695.484253 18 18 20
14015927.000000 5255383.000000 669044.812500 9 8 10
-844.497253 -337.798920 -4041.128418 9 9 11
770.893799 143.399445 -695.536926 28 27 27
236.080582 81.357002 354.553223 20 17 17
-897.442749 -617.594971 -2725.740967 19 17 17
-234488.718750 -415599.687500 1198221.250000 35 36 38
771.168152 143.507843 -695.553040 9 7 9
481.335724 21.661318 -697.865356 24 24 26
856.114807 206.348373 -639.946045 15 30 25
485.694641 23.860746 -699.555786 14 10 8
506000.906250 204172.468750 83640.242188 29 28 32
262.876129 94.056595 394.222687 14 10 8
-739191168.000000 -1172606976.000000 1868657664.000000 27 25 25
482.124329 22.062302 -698.130249 9 7 9
770.370300 156.437775 -681.822876 14 17 15
38887.531250 -5020.834473 -38384.175781 12 9 7
770.202759 149.767075 -688.576355 19 13 10
-3303618.250000 -7037553.000000 19552576.000000 23 23 25
-4274347.000000 -9005676.000000 24505522.000000 25 25 27
296536.843750 406782.750000 -1420404.125000 13 13 15
-1561.711304 -1064.610596 5650.362793 14 11 8
-3078888.000000 -4799913.000000 14129900.000000 19 20 21
-936.987915 -243.769211 -3718.205811 16 15 17
955.822693 148.267181 -302.477325 43 47 55
5283110.500000 6722086.000000 -21318016.000000 7 7 8
-1312031.875000 1108214.875000 11557763.000000 42 29 46
-422.416840 138.683258 762.071716 60 63 65
-5506756.000000 -2160047.000000 -498774.875000 13 12 14
290.107574 138.747101 515.451965 6 5 5
770.920593 143.438934 -695.525513 24 23 25
770.746277 143.384689 -695.492676 22 22 24
13117504.000000 58996688.000000 -113630704.000000 9 8 11
-3748709.000000 -1614441.000000 -45015.859375 17 17 19
2527801.500000 -377024.250000 -2799475.250000 16 13 12
11245914.000000 3623727.250000 -315241.875000 44 43 47
-1106135.625000 -669274.250000 3024494.000000 15 11 9
94501.898438 13818.067383 -215124.984375 38 40 42
485.680817 23.783777 -699.583374 14 10 7
1210.677124 135.508453 -738.781860 13 13 14
2796720.250000 4860509.500000 -13883517.000000 35 35 37
1058588.000000 1252420.250000 -1935933.750000 15 11 8
1102.803223 318.467346 -656.802795 17 17 19
-2114877.000000 -1061522.625000 -220249.593750 39 39 41
-32978.335938 -6589.717773 28474.726562 12 13 15
1031244.812500 139391.312500 -721365.937500 15 13 17
485.688507 23.497725 -699.622803 41 43 45
-294395.750000 -145240.359375 -27011.449219 26 27 29
451.538757 167.236572 680.228088 28 28 27
2923873.000000 1162391.000000 446914.281250 7 6 8
771.170105 149.659897 -689.058044 24 16 13
-160276.015625 -334799.312500 909130.375000 40 41 44
770.585449 143.160767 -695.558228 27 26 26
641.539185 -129.796173 226.647354 10 7 10
9856100.000000 60679712.000000 -124884024.000000 9 8 10
915.752014 170.947952 -702.584595 11 13 12
481.462738 22.203638 -697.896423 38 40 42
3375.784424 1573.832275 -5686.498047 26 18 14
134613744.000000 935990080.000000 -1827342976.000000 10 9 10
-382660384.000000 -202638048.000000 365604800.000000 29 28 31
19365.820312 -98858.875000 -31108.277344 9 8 10
-34106880.000000 -11140839.000000 -196153.750000 22 22 25
770.975952 143.390564 -695.559265 21 24 22
816.550354 143.366409 -63.245464 30 41 43
770.807678 143.388382 -695.511963 23 24 25
769.451172 184.944763 -544.101685 22 21 20
-878031.375000 -1026329.000000 3347855.500000 36 37 39
-22072.673828 -2767.509766 24464.683594 15 12 10
484.137482 223.448074 760.943359 37 39 41
11285.531250 1919.918701 -24109.384766 39 42 43
-310171.156250 -537492.250000 1557446.250000 26 26 28
-4149.032715 -1641.375488 -18545.082031 20 19 22
481.231018 21.595104 -697.940247 40 42 45
866.640198 223.478256 -75.084267 18 13 9
-234368.875000 -474331.500000 1746582.750000 30 30 32
-665877.125000 -810710.937500 2270664.750000 27 29 31
1728.640137 141.434616 -903.005432 11 9 10
218.204468 78.050056 341.360748 26 24 23
13713280.000000 5753770.000000 205298.562500 16 16 18
10375.163086 -115406.117188 -665.567871 40 41 43
-100783.507812 -212816.906250 175014.703125 9 8 10
3537.152588 1591.773926 -7448.345703 16 11 9
19726.351562 21146.404297 -60990.234375 17 14 17
-2286612.250000 -2672309.000000 8802195.000000 9 9 10
770.983398 143.390396 -695.559814 15 20 17
-3244504320.000000 -6556742144.000000 18933272576.000000 10 10 10
768.986572 157.225616 -681.208008 21 20 19
481.299805 21.647608 -697.851624 6 5 7
1167.813477 265.491058 -873.473572 40 42 46
770.498840 149.839157 -688.662354 16 20 17
2664.603027 720.829041 -2037.945312 39 40 42
936.126404 143.034729 -708.323425 8 10 9
6965182.500000 2986578.000000 786311.500000 7 6 8
727.329468 204.306030 957.319641 10 8 11
19473870.000000 6477050.500000 -2124487.500000 50 49 53
770.855652 143.399612 -695.522888 10 9 11
485.739166 23.569492 -699.626160 40 41 44
-1432023.375000 -1306048.625000 4026875.750000 9 8 9
-30248938.000000 -12599731.000000 -2625808.000000 11 10 11
380680.718750 224926.781250 -1054132.875000 15 10 7
770.564575 143.235031 -695.503906 29 20 20
770.763489 156.418610 -681.999512 18 21 19
771.442810 155.882507 -682.590027 23 24 25
408.427704 184.846573 194.214157 10 10 13
483.609467 22.837109 -698.310913 30 31 33
23087362.000000 6829181.000000 -1313101.000000 7 6 7
-1867528.500000 -328042.375000 1881635.500000 12 10 9
744908736.000000 182313904.000000 -18352948.000000 41 43 45
355699.562500 -45243.222656 -4031058.750000 51 45 49
209041712.000000 34056044.000000 -24840870.000000 6 6 7
486.450623 23.446678 -699.074158 32 32 35
771.889221 156.015732 -682.876526 40 38 37
-12916515.000000 -6110917.500000 -908589.500000 40 41 43
52963.605469 30757.806641 -57625.894531 9 8 10
308.370422 145.775116 549.893127 6 5 6
-4768403.000000 -58603.449219 2134954.250000 19 15 15
630.494934 192.372162 -283.096466 22 14 16
765338.937500 1829947.125000 -5024702.000000 40 42 45
1957576.500000 854812.437500 93411.726562 37 37 41
2597878.750000 1054287.500000 432425.812500 13 11 13
34026152.000000 42425564.000000 -134327104.000000 35 36 38
5369347.000000 7297417.500000 -22913274.000000 14 14 15
771.398804 155.925278 -682.553528 15 11 9
-140045.375000 -551453.000000 1731047.250000 37 35 36
416391.093750 489477.687500 -1330000.750000 9 8 10
1315.676270 199.579269 -921.863770 22 24 43
717.149048 166.410339 -62.399719 9 7 11
-3246.809814 -912.648499 3692.071533 100 105 111
-670535.812500 -1450118.875000 4050469.250000 17 16 18
21089114.000000 47681624.000000 -127235408.000000 8 6 8
-849.868347 -338.373505 -3840.895020 19 19 21
648.620972 162.358307 -47.658539 10 9 10
1660.835083 395.322723 -2101.708984 81 84 89
-10151173.000000 -45432260.000000 85405792.000000 26 25 27
-221469248.000000 -542984128.000000 1766533376.000000 8 8 10
-235764.359375 -141880.312500 410415.281250 38 39 40
771.009460 143.352615 -695.585754 24 27 27
-27257.710938 -6071.328125 21553.785156 39 41 44
486.270844 23.399010 -698.843445 31 31 34
770.903259 143.319107 -695.576721 17 20 18
604.884033 394.254791 1059.381348 34 38 43
-22163292.000000 -8853303.000000 -2190938.250000 6 5 7
-13336433.000000 1599649.375000 16150642.000000 13 10 8
770.812500 143.243637 -695.588440 12 15 13
770.660828 143.312622 -695.498352 37 30 29
97509.101562 85988.445312 -265079.593750 33 34 36
754.266968 138.479477 -759.358765 16 11 11
771.457336 155.910828 -682.587341 19 15 14
912.862549 184.747040 -718.529053 33 34 36
770.670044 143.316589 -695.499695 44 39 39
-3064.266602 -625.487122 9095.215820 32 42 58
770.725281 149.617905 -688.878479 60 63 66
247.524902 85.428947 371.238068 17 13 11
6195.115723 6149.718262 -9445.956055 18 15 18
2171064.250000 988782.625000 -42796008.000000 24 16 17
-798.333496 -377.590149 -4388.094238 16 14 16
771.498413 155.919571 -682.605774 15 11 9
771.194214 143.512680 -695.555115 9 7 10
13910720.000000 4406241.000000 -1500072.125000 17 16 19
771.161194 149.763382 -688.992981 33 38 36
501.645477 -489.438690 6700.539551 23 17 14
-26377792.000000 -10948915.000000 -3150752.750000 7 7 8
385.989227 194.383057 653.641907 33 35 44
171.262329 190.893600 373.596985 60 63 65
470113.718750 2571191.750000 -5206926.000000 27 27 30
-621.066650 -313.670013 -3674.420166 9 8 10
-9095258.000000 3421400.750000 27127568.000000 19 15 12
8119.478516 2242.326904 -6355.954590 9 8 9
6533.273438 1870.554077 4233.908691 77 82 86
291.657562 194.923386 -11.441193 25 26 44
-398934272.000000 -412035264.000000 579584640.000000 30 31 32
770.848206 156.300262 -681.946594 19 19 21
209.684998 56.195580 284.295135 16 17 18
771.004822 143.357422 -695.580627 18 22 25
775.313416 162.068497 -71.527779 51 56 59
435.478790 266.125916 820.042786 18 18 20
770.551636 143.294891 -695.469421 23 24 26
1579.666504 161.213226 -1026.018555 32 34 36
-118562.195312 -27494.769531 319267.375000 42 49 75
630.463074 191.850800 -283.357086 9 8 11
482.291107 22.153862 -698.059326 24 25 27
863.856201 170.390045 -594.427429 36 32 34
1796.356201 269.591461 -2064.091064 44 52 74
-184054688.000000 -29655940.000000 278671168.000000 34 36 48
-81511.484375 -15098.416016 181501.765625 22 22 24
606866.500000 312195.531250 89968.007812 28 29 31
-16788112.000000 -5920148.500000 -671925.812500 15 14 18
842.934998 149.713547 -534.346619 10 9 10
240.167297 115.080162 408.940002 20 21 44
485.863861 23.306471 -698.790344 28 29 32
770.928589 143.282196 -695.601318 22 25 24
115346.515625 117616.195312 -166308.968750 16 15 17
1045236.375000 -740613.062500 -1589589.250000 21 16 12
485.631195 23.583549 -699.683411 26 28 29
-35989076.000000 -77090424.000000 213941552.000000 13 13 15
770.849182 143.385666 -695.528748 15 10 8
770.892212 143.431412 -695.520752 8 6 8
19387.000000 3535.864502 -41458.937500 23 24 26
807.559143 138.049179 -436.771973 15 11 9
-1449303.375000 32107.476562 674072.687500 43 34 29
1330.820435 209.974716 -728.770874 24 23 33
732.311951 161.491867 -97.754654 57 60 64
770.880371 143.436615 -695.513184 31 31 33
771.100769 143.492828 -695.550415 8 6 9
162908.515625 334353.031250 -828926.125000 9 7 9
1423.000000 218.787811 -789.018494 40 42 44
-1533239.750000 -700922.562500 -66361.054688 30 30 32
-101957.140625 -20309.390625 87033.187500 13 14 16
789.378479 243.162399 24.517824 22 17 15
768.193542 142.656570 -694.779297 14 11 11
110789200.000000 49533460.000000 6530337.000000 40 40 42
738.162903 157.240967 -97.414116 24 26 62
254692608.000000 97807672.000000 14114591.000000 9 7 9
770.628113 143.299957 -695.557373 26 26 28
771.032410 143.437546 -695.416382 11 9 11
1220.064575 127.401588 -754.708252 34 36 38
770.863098 143.390671 -695.529785 23 20 19
-6839.804688 -14755.362305 36621.773438 11 8 11
16368.604492 4046.722168 -12686.910156 10 9 25
2245.918945 447.049164 -844.406311 8 7 8
481.759857 21.884899 -697.903687 24 25 28
485.460968 23.161880 -698.644104 22 21 24
769.756653 156.341446 -681.579834 13 10 7
-99080.390625 -59972.335938 111659.414062 18 18 19
1145012.375000 1765184.375000 -5229139.000000 28 30 31
898807.687500 5776771.000000 -11832551.000000 18 16 21
-258875264.000000 -52431472.000000 20603754.000000 41 42 44
364571.812500 495312.437500 -1556758.875000 14 14 15
240.864517 89.675713 361.737885 15 12 10
695.024231 170.127518 -58.494179 59 62 65
485.939362 23.674013 -699.737610 26 33 36
23109.251953 4009.449219 -50727.441406 39 42 43
4479.159668 1037.192505 -3432.120117 14 14 17
-832189.187500 53874.957031 708861.625000 38 41 42
485.700256 23.503225 -699.653198 12 15 24
9863.905273 3809.998535 -8580.711914 22 20 19
770.894104 143.378952 -695.544434 38 40 41
768.485352 142.678925 -694.907776 13 11 10
87500.476562 65877.632812 -149944.078125 56 53 55
24329444.000000 -11551653.000000 -64267504.000000 36 32 30
5977.408203 1568.790771 -4591.078125 39 41 44
313.892029 175.700562 557.627136 10 14 23
-30879530.000000 -8822464.000000 3623241.250000 40 42 44
1220.771240 125.840622 -762.306458 8 8 10
913.083984 206.242477 -483.131012 43 42 47
-868895.562500 -319528.968750 -104571.281250 8 6 9
771.444031 155.932831 -682.573059 19 15 14
-758247.312500 -45128.417969 9444926.000000 52 43 45
-774.089233 -311.523712 -3839.728271 34 35 39
-1299.009399 -352.687836 4297.975586 48 50 56
483.664551 22.849571 -698.329651 40 42 44
2526.145020 2215.422607 -6117.094727 30 31 33
24597.728516 6073.017090 -18754.804688 26 28 84
-2342560.500000 -3072593.250000 4492163.500000 33 34 37
784.278442 168.604507 -133.482330 60 62 66
-3321879.500000 -1277178.000000 -181047.937500 8 7 9
-3889.639160 -800.860107 11959.680664 39 42 44
-7890955.500000 2772067.500000 25313056.000000 13 10 8
1225.358154 185.270691 -750.990356 31 33 34
-62808164.000000 -18095824.000000 2179897.750000 9 10 43
238.019501 85.930367 371.169922 14 9 7
1226.919922 127.373779 -770.197205 6 6 9
771.052795 143.361099 -695.589661 26 28 29
3387927.500000 3761786.750000 -12165589.000000 34 35 37
771.458313 155.863297 -682.651001 9 7 9
-3597002.500000 -977345.375000 8578116.000000 61 63 67
79178.007812 15880.498047 -67321.046875 14 17 20
-2150050.250000 -738730.000000 -57133.667969 8 7 9
3235062.500000 17396782.000000 -34718692.000000 22 22 25
10700219.000000 15457052.000000 -45814592.000000 8 7 9
46559208.000000 -6828565.000000 -67921208.000000 13 9 7
-49826232.000000 -16971682.000000 -3631790.750000 13 12 14
1389076.625000 1860922.625000 -5820785.000000 37 38 40
1074069.000000 1030240.250000 -3629628.000000 9 8 10
-239417.390625 -61833.113281 198369.656250 10 8 10
764.164673 156.844894 -678.741943 24 18 20
770.934753 143.283844 -695.598389 19 22 20
766.508972 155.146881 -680.509644 16 12 12
770.591125 143.158096 -695.557556 12 9 8
-118822072.000000 -152628848.000000 223614528.000000 7 7 8
-967780.187500 -976993.375000 5257326.000000 9 9 12
-618761152.000000 -24299512.000000 84992216.000000 14 17 25
35070020.000000 68297704.000000 -170693984.000000 10 7 9
399.202606 285.144714 717.082153 18 26 27
-1540629.500000 -3330352.500000 9285461.000000 17 17 18
209.790771 75.524681 329.211212 14 10 8
21497428.000000 7624804.000000 356840.218750 18 16 18
770.166992 143.047501 -695.457947 35 35 36
771.076233 143.489059 -695.546875 40 42 43
-196.717880 2.925769 -546.897827 16 15 18
-10738433.000000 -42179492.000000 79606848.000000 9 7 10
-17904944.000000 -7475722.000000 -242576.156250 36 39 41
881.152893 197.072342 -659.002991 38 36 37
770404.312500 1423887.250000 -3463713.250000 37 37 39
770.790100 143.394379 -695.506042 38 40 41
2176934.500000 3698274.750000 -11755698.000000 31 31 34
485.657898 23.754601 -699.572815 27 26 25
-96717.617188 -14048.595703 223748.687500 11 11 13
40910108.000000 17030188.000000 3587528.000000 16 15 16
579.624084 -14.942803 -759.308167 26 25 27
178898.437500 22433.462891 -196056.421875 24 23 23
770.894531 143.433014 -695.520386 34 35 36
481.828430 21.910511 -697.903198 25 26 28
8051142.000000 -1238479.500000 -467461.875000 40 42 44
36159.394531 21481.208984 -97119.351562 15 11 9
484.604797 23.092022 -699.232727 14 9 8
-269048.125000 -464882.687500 1373275.125000 33 34 35
989.992065 166.842911 -673.269714 34 36 37
2033300.375000 460882.187500 -5068188.000000 91 95 107
3103076.750000 5240021.000000 -15603179.000000 37 38 40
145055.328125 42492.171875 -114577.906250 16 15 18
-2075545.250000 340018.968750 2312632.000000 13 9 7
413871104.000000 441293376.000000 -613671616.000000 29 29 31
803281.125000 235159.390625 -3312092.750000 33 25 20
826.806519 165.321045 -169.936783 10 8 9
1323.699463 162.590134 -809.346558 19 20 36
1930.444580 131.459610 -1354.381226 11 12 22
128884.453125 289801.906250 -774567.312500 25 25 27
770.608643 143.200546 -695.539795 12 9 6
-777.782166 -298.451294 -4414.322754 38 40 43
-5729.865234 -1243.817871 -193.133972 6 5 6
11188979.000000 29069472.000000 -115527344.000000 36 34 36
236152.593750 287002.718750 -804778.437500 10 9 10
1147.218628 189.660706 -561.085327 10 9 11
770.870911 143.310196 -695.573669 21 25 23
484.521362 23.069206 -699.221375 19 15 14
-30138508.000000 -56194908.000000 136354688.000000 38 39 41
875.413269 223.734665 -82.514977 19 14 11
-317000.093750 -357339.562500 518998.906250 25 25 27
770.872131 143.310440 -695.573792 20 23 22
753.347351 161.621277 -90.834183 59 61 64
1070.781250 166.383865 -672.264282 26 28 66
771.076660 149.628403 -689.032166 22 21 24
-28020176.000000 -13401230.000000 -1965505.625000 23 23 25
899.199585 209.380356 -716.015320 11 8 7
248.135590 251.161606 494.643311 31 34 35
247.259369 85.765236 371.113495 15 11 9
769.941528 156.296173 -681.695190 25 24 23
-4607953408.000000 -29958694912.000000 -1282705024.000000 14 9 8
863.936829 178.435013 -383.872559 38 40 43
770.786743 143.234238 -695.581848 16 20 19
-998886.375000 -6828482.500000 13883158.000000 21 19 23
768.734253 156.702423 -680.932434 11 8 7
863.960327 170.512650 -594.735596 8 8 9
-499.701843 -640.599609 677.876892 30 30 33
824.396912 152.281830 -506.110199 40 42 45
33938712.000000 13008896.000000 1848209.250000 9 7 9
771.011169 149.606888 -689.009399 26 26 29
1168.972778 121.809822 -823.897034 12 8 5
525.504883 147.641846 706.835327 18 18 20
278.396057 105.412102 441.817413 14 9 6
-4293826.000000 37997.238281 3454847.250000 40 41 43
768.467285 142.685150 -694.906250 13 11 10
485.691345 23.782854 -699.584290 13 9 6
1099.800171 178.389633 -648.574646 10 10 42
852.263672 131.528442 -286.383850 14 14 55
316756.812500 554690.312500 -1584430.500000 38 37 41
295.181458 158.241608 515.738281 7 6 6
790.553467 176.159821 -84.477692 17 18 20
2548315136.000000 644103552.000000 -87428256.000000 5 4 7
9997639.000000 -2230108.750000 -155293232.000000 29 28 30
-98487.921875 -114188.218750 166520.750000 18 15 19
866.037415 158.662292 -164.373444 21 21 53
-123728.851562 -216038.578125 615299.625000 26 25 27
770.742371 149.614197 -688.887573 52 44 45
-208653.859375 -241492.421875 461149.125000 56 58 62
580.035034 -116.845718 261.222656 9 7 9
60984.324219 9852.878906 -53583.414062 22 28 31
481.429718 21.723953 -697.851135 11 10 12
483.641785 22.827713 -698.585632 18 19 21
17796147200.000000 13583455232.000000 2019428224.000000 7 6 6
771.161804 149.764359 -689.000000 31 35 34
570.476807 163.179855 764.614197 13 13 16
769.654419 149.927231 -688.244629 27 25 23
63183.578125 90705.679688 -243871.750000 10 9 12
173247040.000000 49413596.000000 -12272044.000000 23 23 26
-791.701416 -342.357361 -4351.640137 30 32 36
-23860074.000000 -7425826.000000 974208.000000 27 28 30
255665.765625 1148527.000000 -2228248.750000 25 23 27
-21513.126953 -5602.470703 17859.632812 10 8 10
-308938.625000 -539575.625000 1586633.125000 37 39 41
771.262512 155.988724 -682.591125 21 17 15
769.619751 155.996674 -681.330994 9 7 10
770.804993 143.234360 -695.588257 13 16 14
-797.618347 -387.414642 -4634.687012 12 11 13
-991138.500000 -495033.125000 -105120.851562 6 6 8
-82965600.000000 -110003808.000000 162957632.000000 19 17 20
369.262238 242.204285 649.036194 41 44 44
56676584.000000 19904168.000000 1863175.250000 7 7 9
651607552.000000 158946464.000000 -32101520.000000 33 35 40
309.099487 171.914902 588.600098 40 42 44
-1251905.000000 -2589780.750000 7294265.000000 33 32 35
-2657869312.000000 -460645376.000000 503741920.000000 15 10 7
-41019.761719 -21426.697266 -6998.521484 22 22 24
485.812592 23.556755 -699.693359 6 6 7
-4601973760.000000 -10669134848.000000 34908913664.000000 41 43 45
770.271912 149.755035 -688.614563 19 14 10
771.127075 143.498367 -695.552795 8 7 8
-31218542.000000 -13175712.000000 -3944349.500000 12 10 12
-373446.156250 -399506.937500 553307.625000 10 8 10
770.835083 150.494247 -695.492493 41 42 44
770.572937 143.151276 -695.559509 26 25 25
33026180.000000 14496893.000000 1586817.500000 19 19 21
707.842041 191.018723 -343.822906 40 41 44
10889.369141 4983.470215 1126.378540 20 18 23
814.920654 359.532135 -53.665936 33 48 53
30314020.000000 50088.679688 -26158902.000000 14 10 9
239.990128 88.316360 376.601074 14 10 7
1212.290283 132.229614 -740.446655 31 33 35
1320230.250000 -23605.595703 -1081004.500000 39 41 43
-9073346.000000 -31710442.000000 58492692.000000 15 15 17
