ply
format ascii 1.0
element vertex 314
property float x
property float y
property float z
property uchar blue
property uchar green
property uchar red
end_header
151243.015625 281729.281250 340055.375000 11 9 11
-2358.066162 -1241.575195 -70.028023 33 35 43
1.932402 1.361915 0.375010 35 38 40
-75544.375000 -134725.234375 -2722.402588 19 22 20
-80089.773438 -132489.953125 -2611.101562 13 10 10
-88067.953125 -124159.601562 -25551.978516 23 18 18
-75440.968750 -132754.296875 -1236.306763 37 27 28
-75541.875000 -134712.671875 -2713.638184 13 9 7
-9197045.000000 17660636.000000 33369256.000000 8 7 8
-871.491516 -521.726746 -28.646082 39 41 44
-6196.308594 -2295.051514 -91.139740 14 12 10
-75632.351562 -134235.187500 -2118.326660 43 44 45
-80138.578125 -131891.109375 -2215.820068 14 17 15
-2441.247803 -979.372192 -85.847099 19 13 10
-4698.829102 -1924.403931 -176.148895 12 9 7
-4616.075195 -1919.854980 -157.717789 11 10 9
-12417.925781 -15081.893555 -18641.074219 8 8 9
-12417.947266 -15081.908203 -18641.091797 23 23 25
-1147103.625000 -1764322.875000 -1008951.187500 25 25 27
-9931694.000000 -22155078.000000 -11946305.000000 10 7 9
0.044722 0.031944 0.080333 18 26 27
-83985.703125 -131944.406250 -4927.727051 34 34 36
0.917706 0.693080 0.367355 41 36 40
-70.347862 -37.182652 -6.735508 52 55 61
-664027.625000 1431856.000000 2751526.500000 11 10 11
0.110853 0.013475 0.148918 10 9 12
-147583.796875 -51715.187500 -6222.329590 14 12 15
-12417.936523 -15081.902344 -18641.089844 19 20 21
-147583.828125 -51715.253906 -6222.332031 41 43 45
-4592.626465 -1911.586304 -162.832672 30 30 30
-83980.507812 -131967.359375 -4963.094727 18 16 18
-147583.828125 -51715.257812 -6222.359375 40 42 44
-752.148865 -404.023285 -70.592407 60 63 65
-75544.718750 -134724.765625 -2721.794434 26 26 28
-88068.710938 -124160.328125 -25552.628906 13 11 13
-0.065106 -0.017688 -0.088584 32 33 35
-88068.257812 -124159.781250 -25552.562500 26 14 28
-0.012975 -0.004486 -0.019494 28 28 29
-83980.367188 -131976.984375 -4989.263184 13 12 14
1.902443 1.346164 0.372052 20 27 38
-83980.320312 -131968.921875 -4966.691406 8 6 9
2.039530 1.425771 0.387754 28 29 30
0.037305 0.018862 0.068517 38 40 43
-75544.656250 -134724.843750 -2721.895996 34 35 36
-88068.468750 -124160.125000 -25552.439453 38 36 37
-36665184.000000 -25348268.000000 -29931646.000000 23 22 25
-572694.875000 -2050755.375000 -2065457.250000 24 28 27
-1263.248291 -710.036621 -97.336533 25 26 44
1.889793 1.331194 0.378844 14 14 15
0.032542 0.016538 0.060275 23 26 32
-147583.812500 -51715.269531 -6222.265137 23 24 25
-6199.819336 -2295.377930 -99.752411 18 17 15
-6243.233887 -2304.520752 -99.795555 16 13 12
-80075.921875 -129133.414062 -1359.432983 24 18 20
-88068.718750 -124160.070312 -25552.619141 22 26 39
-0.059474 -0.003018 -0.060555 20 21 24
0.108615 0.014702 0.146449 20 19 22
-843.391052 -527.132935 -28.718908 14 10 7
-147583.781250 -51715.230469 -6222.062988 14 10 7
-75544.375000 -134725.218750 -2722.393555 18 21 19
-147583.843750 -51715.253906 -6222.377441 5 5 6
-83980.164062 -131971.375000 -4971.025391 16 15 16
0.006452 0.002323 0.010124 14 10 8
0.000425 0.000164 0.000665 15 10 8
0.965600 0.680865 0.207951 51 56 59
-11737099.000000 -9445227.000000 -9761711.000000 35 35 37
-83980.132812 -131971.609375 -4971.343750 6 4 6
1.877560 1.323540 0.379929 15 14 16
-654.764832 -413.531769 -24.467876 14 9 7
-2090963.125000 -1460906.250000 -1612954.750000 41 42 45
1.862514 1.322019 0.366322 33 35 38
-94712.078125 -108280.585938 -63984.289062 11 9 13
0.012918 0.006884 0.024006 5 5 6
-905.700134 -570.767334 -7.639482 21 18 17
-3063.416016 -1573.388428 -232.080978 17 19 42
-1307715.875000 10661866.000000 11793405.000000 23 24 25
0.008091 0.004453 0.015339 40 41 43
-12417.953125 -15081.916016 -18641.103516 33 34 35
1.747758 1.211433 0.431481 9 8 11
-83980.125000 -131971.640625 -4971.347168 9 8 10
-79762.406250 -133347.265625 -3845.814453 27 28 30
-56.421864 -33.097031 -5.061493 40 42 44
-88068.703125 -124160.046875 -25552.712891 20 22 33
-5241.517090 -2203.195068 39.924622 34 36 37
-147583.812500 -51715.261719 -6222.285645 7 6 6
-12417.933594 -15081.899414 -18641.085938 37 38 40
170490.625000 414758.843750 294271.812500 10 9 12
-1204.755981 -682.452148 -39.366230 34 36 48
-88068.664062 -124159.867188 -25552.613281 10 9 25
-75544.531250 -134723.093750 -2719.909668 16 11 9
-6527.023438 -2342.614990 -96.875092 13 9 7
0.008621 0.004754 0.016386 39 41 42
-2050416.625000 -4616929.000000 -2448135.500000 8 7 8
-75544.789062 -134724.515625 -2721.579834 10 8 9
4112034.750000 6747254.000000 4004775.000000 60 62 67
-147583.781250 -51715.230469 -6222.091309 27 26 25
-83982.414062 -131962.562500 -4954.611816 35 38 41
-212.157028 -115.937416 -22.364180 10 8 9
0.040791 0.020527 0.074335 40 43 44
-88067.796875 -124160.203125 -25552.933594 12 12 14
3343599.250000 5307323.000000 3262177.250000 25 25 27
0.037358 0.017143 0.065780 10 8 10
-904.769043 -567.290955 -7.418104 15 11 10
0.024265 0.011627 0.041316 20 21 44
0.906418 0.652137 0.143077 20 20 23
-147583.781250 -51715.230469 -6222.064941 13 9 6
76320.742188 631.445374 15531.234375 9 7 9
0.038933 0.029016 0.072046 21 30 33
-83980.210938 -131971.359375 -4970.997559 11 10 11
975168.687500 560731.750000 840919.937500 18 19 21
0.105358 0.111337 0.179308 13 10 8
-80681.187500 -134509.796875 -3037.197021 21 20 20
1.856464 1.307817 0.384881 7 7 9
-75544.375000 -134725.218750 -2722.393066 22 25 24
-88068.515625 -124160.093750 -25552.494141 16 15 17
-49.755257 -27.918283 -5.028183 60 62 66
62455.417969 609981.000000 649571.312500 27 31 30
-3064.199951 -1578.858765 16.747105 36 38 40
0.941424 0.675453 0.224153 30 41 43
-88068.664062 -124160.062500 -25552.646484 40 42 46
-434026.625000 927549.750000 -14012.524414 24 23 24
-4649.543457 -1915.481445 -186.291611 12 9 6
-83980.101562 -131971.656250 -4971.292969 12 10 12
-79422.500000 -128430.257812 -1135.213867 21 20 20
-12273.063477 -14976.799805 -18527.226562 40 43 44
0.039579 0.018590 0.070578 6 6 6
0.005486 0.002930 0.010448 10 11 40
-0.003592 -0.002450 -0.006100 37 39 41
-12417.958984 -15081.921875 -18641.111328 13 13 15
-88068.148438 -124159.796875 -25552.673828 14 17 17
-75544.656250 -134724.828125 -2721.894775 8 6 8
0.053785 0.042757 0.097429 31 34 35
-83980.171875 -131971.609375 -4971.329102 40 41 43
-75544.125000 -134724.203125 -2721.668457 17 22 19
-10683264.000000 -40009700.000000 -43155660.000000 24 27 27
-75544.500000 -134725.781250 -2722.837402 15 10 8
-88068.937500 -124160.789062 -25552.816406 25 24 26
-2374.463379 -959.184753 -99.740120 18 13 9
-0.015848 -0.005497 -0.023787 15 11 9
9416692.000000 6522560.000000 7167935.000000 30 30 32
1.925690 1.355405 0.376445 22 21 23
-354.804565 -231.227020 -1.600139 24 18 16
-3.037469 -2.311571 -0.054335 11 9 10
-147583.828125 -51715.253906 -6222.344238 40 42 44
-88068.796875 -124160.117188 -25552.632812 9 8 9
0.025665 0.013126 0.047667 15 19 27
-75544.007812 -134723.703125 -2721.327881 16 20 19
-88068.835938 -124160.695312 -25552.683594 13 11 12
-38540124.000000 -28966468.000000 -19950782.000000 21 19 23
-83980.500000 -131969.109375 -4966.705078 8 7 9
-53208670208.000000 2465530380288.000000 1907825049600.000000 9 9 11
1.841831 1.297479 0.388227 14 15 17
-6727477.500000 -4717431.500000 -5524271.500000 8 8 10
-2320.118652 -961.828491 -81.666725 22 17 15
-77832.914062 -133251.562500 -2445.622070 19 14 10
1.546965 1.196385 0.466993 22 14 16
-83980.234375 -131970.984375 -4970.409668 24 25 27
-147583.812500 -51715.265625 -6222.288086 40 41 43
-88068.742188 -124160.304688 -25552.714844 9 8 10
-129.281189 -72.779419 -13.208520 40 41 44
-81072.921875 -136374.078125 -3622.432861 11 8 7
1.890503 1.331560 0.378711 26 27 28
22529.298828 11192.635742 23795.185547 10 9 11
-374.829773 -243.638275 -12.236986 33 29 28
-75544.734375 -134724.359375 -2721.450928 11 9 11
1.901869 1.346722 0.371003 38 40 42
-705.045410 -374.816437 -74.399704 23 29 41
-75544.679688 -134724.656250 -2721.731445 8 7 9
-147583.859375 -51715.242188 -6222.464355 39 40 42
-83981.218750 -131966.828125 -4963.407227 12 12 14
-12417.948242 -15081.911133 -18641.097656 35 36 38
-80141.734375 -131898.609375 -2219.711426 28 32 33
-42.235699 -22.809231 -4.134202 6 6 6
-12417.921875 -15081.889648 -18641.074219 11 8 12
-66.885445 -37.655563 -6.850808 59 62 65
0.003337 0.001279 0.005236 14 10 7
-4848.236328 -1946.831909 -178.497498 12 8 5
-79762.484375 -133346.984375 -3845.562744 37 37 41
-6197.246094 -2298.237061 -94.249245 14 12 10
-83980.210938 -131971.593750 -4971.392578 23 23 25
-77807.468750 -133176.000000 -2407.927002 16 20 17
-79490.367188 -128136.718750 -765.298645 13 10 7
0.004828 0.001828 0.007663 14 9 6
-88068.656250 -124160.171875 -25552.636719 18 18 19
-88068.757812 -124160.195312 -25552.705078 10 10 12
-12417.933594 -15081.900391 -18641.087891 28 30 31
15020738.000000 9188463.000000 10071161.000000 18 16 21
-147583.828125 -51715.261719 -6222.340332 22 23 45
0.033536 0.015179 0.057703 40 42 43
-88068.656250 -124160.156250 -25552.666016 12 12 14
-88068.140625 -124159.859375 -25552.544922 15 14 15
1.894309 1.343082 0.370401 8 8 10
-9354206.000000 -6165831.000000 -7772973.000000 11 10 12
-0.015928 -0.005930 -0.023921 15 12 10
-0.092708 -0.026041 -0.122023 10 8 11
-50243.285156 -69621.117188 -22096.898438 38 37 41
-80185.382812 -130449.921875 -1223.758057 40 42 44
0.031897 0.017100 0.055731 7 6 6
1.550189 1.196199 0.465307 27 22 25
0.955451 0.677704 0.218252 17 18 20
-147583.828125 -51715.261719 -6222.338379 5 4 7
-88065.296875 -124156.234375 -25548.628906 29 29 31
-75544.617188 -134725.343750 -2722.359375 40 42 43
-83979.976562 -131971.593750 -4971.365234 8 7 8
-83980.054688 -131971.218750 -4970.736816 9 7 9
1.895191 1.331269 0.380384 27 28 30
1.877392 1.323530 0.379934 28 28 30
-147583.812500 -51715.261719 -6222.278809 12 15 24
1120838.500000 97378528.000000 98675032.000000 38 40 41
-99296.671875 -936834.250000 -744575.750000 34 30 30
-121.397865 -66.024475 -12.288787 10 9 10
-123103.859375 -83623.250000 115682.000000 8 6 9
-147583.843750 -51715.250000 -6222.390137 6 6 7
-83980.203125 -131971.187500 -4970.759766 9 7 9
-81171.609375 -147264.687500 -14118.117188 15 12 12
4.065806 1.414878 0.672544 10 10 13
0.914253 0.693744 0.370271 51 53 56
-2730630.000000 -2136742.750000 -4709539.500000 8 7 9
-147583.781250 -51715.234375 -6222.089355 27 26 25
0.917619 0.693305 0.367182 44 41 45
-147583.843750 -51715.253906 -6222.387695 40 42 44
1.818880 1.252912 0.405625 18 17 20
-88066.109375 -124157.179688 -25549.507812 9 10 10
-8726994.000000 -32989036.000000 -35372576.000000 20 23 22
0.017008 0.008870 0.030994 35 37 39
-0.072514 -0.020742 -0.097192 13 13 16
0.023141 0.014649 0.043176 39 42 43
-88066.507812 -124157.085938 -25549.656250 12 11 13
-88068.898438 -124160.718750 -25552.890625 18 17 19
-838.923706 -537.375000 -2.719321 13 9 6
-83414.375000 -137375.296875 -14421.791016 27 28 30
-83980.156250 -131971.578125 -4971.338379 30 30 32
1.929389 1.360327 0.374597 39 41 42
-88068.625000 -124160.132812 -25552.671875 10 8 10
0.029979 0.016952 0.053202 19 25 38
1.632527 1.320191 0.400951 25 27 29
-75544.773438 -134724.125000 -2721.228027 34 36 38
24445702.000000 13168820.000000 23542186.000000 10 10 12
-50243.156250 -69620.937500 -22096.748047 53 46 46
-75544.125000 -134724.203125 -2721.671631 20 24 21
1.886567 1.326012 0.381077 24 24 27
-88068.742188 -124160.242188 -25552.611328 9 8 10
5028993.000000 3220428.000000 3979568.500000 9 7 10
0.038749 0.018318 0.069099 6 5 6
-615.291504 -330.121460 -64.923447 11 12 22
-88065.976562 -124157.039062 -25549.417969 34 35 37
0.045392 0.029773 0.079784 41 44 44
8114950.500000 5207926.000000 6454468.000000 8 6 9
-79762.429688 -133347.375000 -3845.867432 34 35 38
-83980.054688 -131971.281250 -4970.850586 41 42 45
-147583.828125 -51715.257812 -6222.339844 33 35 40
-80141.695312 -131899.046875 -2219.301025 19 23 21
-75544.429688 -134725.453125 -2722.578613 17 20 31
1210988.375000 824026.625000 713437.437500 43 43 46
-77688.398438 -132397.140625 -2109.610840 19 13 10
661881.750000 1321757.625000 888561.250000 31 32 34
1607307.750000 -18060810.000000 -19533018.000000 10 9 11
0.008380 0.004661 0.015957 40 42 44
-88068.125000 -124159.609375 -25552.101562 15 11 7
-6207.432129 -7539.750977 -9319.875977 45 46 50
-75541.781250 -134711.953125 -2713.127441 12 9 6
-88068.351562 -124159.929688 -25552.402344 20 17 16
1094678.000000 775526.312500 598249.437500 43 44 48
-88068.718750 -124160.132812 -25552.548828 15 14 17
189900992.000000 145149968.000000 133218432.000000 37 35 36
-88066.085938 -124157.062500 -25549.474609 18 18 19
-75544.750000 -134724.250000 -2721.349854 23 24 26
-80085.546875 -132189.843750 -2455.107422 22 21 22
-83980.164062 -131971.625000 -4971.182617 16 16 18
-1573.725464 -853.240906 -46.612885 22 24 43
-376.401184 -244.457596 -12.127062 21 14 12
-1061225.875000 -1538978.625000 -873317.625000 48 49 53
-88068.718750 -124160.046875 -25552.714844 38 41 43
-88068.921875 -124160.554688 -25552.625000 29 28 31
-0.006252 -0.003844 -0.010281 26 28 42
-147583.812500 -51715.281250 -6222.200684 40 41 44
0.107329 0.013137 0.145183 17 16 20
26300.902344 1365194.125000 1156858.875000 45 38 35
0.037663 0.018013 0.066919 6 5 5
-88068.679688 -124160.070312 -25552.505859 10 8 10
-55.401569 -31.129763 -5.528203 60 62 66
-88068.257812 -124159.851562 -25552.544922 8 10 9
-12417.948242 -15081.908203 -18641.093750 17 16 18
-316.975433 -167.673523 -33.799915 24 30 44
-147583.828125 -51715.257812 -6222.322266 14 17 25
-75544.765625 -134724.531250 -2721.569092 41 42 44
-6494.873047 -2341.387695 -99.533104 12 9 7
1.895154 1.343524 0.370660 6 6 9
-4998.812012 -2000.967651 -181.599289 14 10 7
-75544.492188 -134725.656250 -2722.682129 28 27 27
1.914183 1.346452 0.377444 8 8 9
-0.013395 -0.004616 -0.020117 20 17 17
0.969199 0.682021 0.203735 32 33 36
-88068.875000 -124160.437500 -25552.763672 13 10 13
0.032403 0.014780 0.055754 39 42 43
-91841.179688 -313521.406250 -383368.375000 8 7 9
1.917870 1.349705 0.376881 12 11 13
-5199.875000 -2557.635742 -484.192749 33 37 43
3118963.000000 2387209.250000 5006690.500000 10 9 10
72495616.000000 41829540.000000 63936236.000000 22 22 25
0.002875 0.001058 0.004512 14 10 7
1.890713 1.331755 0.378638 26 27 28
-5017.108398 -2007.547729 -177.655548 13 9 7
-147583.765625 -51715.230469 -6222.141602 26 33 36
1.914396 1.352766 0.372522 31 33 35
-88068.210938 -124159.789062 -25552.644531 15 30 25
-75188.726562 -131998.000000 -515.372864 29 20 20
-83980.117188 -131971.593750 -4971.212402 13 12 14
-75544.125000 -134724.218750 -2721.681885 12 15 13
-147583.796875 -51715.187500 -6222.330078 24 25 27
-12417.927734 -15081.894531 -18641.074219 37 38 40
-184.808701 -104.513977 -19.232994 39 41 43
-88068.703125 -124160.125000 -25552.695312 10 8 10
-920191.312500 -600484.062500 -773777.750000 15 15 17
