ply
format ascii 1.0
element vertex 74
property float x
property float y
property float z
property uchar blue
property uchar green
property uchar red
end_header
-2768259514368.000000 105661710336.000000 80172326912.000000 86 90 88
435.765747 1147.016602 -84.850327 27 36 41
527.180359 1133.248901 2.265534 15 34 43
-2245041152.000000 1710140544.000000 8946752512.000000 45 53 60
391.054596 1321.644897 -102.134354 30 50 54
-653548388352.000000 -11183407104.000000 -1964071976960.000000 30 44 51
381.250824 1126.731201 -120.487862 66 62 63
520.737854 1155.879150 2.228868 73 78 79
401.747009 1134.501831 -106.870338 17 34 42
540.027954 1178.559204 12.859495 14 36 45
524.174866 1034.455933 41.671890 3 12 23
405.394653 1135.809692 -104.610680 24 42 49
532.090576 1136.667236 2.390182 20 37 44
467.827972 1156.767212 -68.659180 55 53 56
461.616730 1125.127686 -40.622215 40 66 78
398.447052 1122.907349 -102.224312 23 53 65
474.646729 1158.986938 -64.906502 21 20 21
-181679292416.000000 20068466688.000000 3075535616.000000 17 36 44
526.221375 1133.014771 2.260474 15 34 44
531.589111 1136.653442 2.376804 32 49 54
465.059967 1064.158081 -21.038776 64 66 69
435.336792 1146.855835 -85.207359 30 38 42
41727537152.000000 -5303381504.000000 140837888.000000 23 32 40
646.744873 1068.305176 180.866898 40 43 45
553.821716 1142.923828 3.016750 76 80 80
474.646759 1057.569946 -15.465582 56 59 60
324.269104 1105.220825 -146.662430 4 10 18
-465827168256.000000 79081234432.000000 -1556354944.000000 38 51 58
-1959746076672.000000 104047493120.000000 45740138496.000000 84 88 86
-2042005120.000000 235852752.000000 32749028.000000 29 60 74
390.681641 1130.350708 -115.069778 17 39 49
382.311188 1126.692383 -122.738747 12 28 36
414.411316 1139.128540 -98.737297 40 41 43
-1121268388593664.000000 -3267727619784704.000000 -7965490370576384.000000 8 10 18
498.846771 1169.043579 -2.886732 36 45 50
1110551040.000000 1918956544.000000 597879744.000000 11 19 24
923.554810 -764.610657 -3312.563965 15 32 40
454.864838 1152.430176 -75.744705 12 16 17
554.729858 1143.042358 3.055041 78 82 81
464.461792 1158.291382 -55.290863 20 36 44
492.425232 1061.444458 1.408906 61 64 69
531.070496 1136.710449 2.374457 29 45 51
879003.562500 -88079.726562 -191285.234375 88 86 86
-38713.609375 -64989.761719 -8122.227539 12 21 28
418.311981 1125.182861 -84.559334 22 37 43
532.227661 1136.758545 2.403276 38 55 60
527.565430 1133.490112 2.280635 22 40 48
542.997314 1132.941772 2.663543 65 76 77
377.660980 1125.650757 -118.582100 19 27 33
-262150668288.000000 -402918998016.000000 -44322721792.000000 60 60 61
542.395447 1130.115112 2.696302 22 40 47
1849155968.000000 -2488729600.000000 2902131200.000000 29 39 43
434.131134 1124.488892 -74.284096 22 38 45
493.318115 1060.750244 1.411221 52 56 59
-59499855872.000000 7395065344.000000 158847920.000000 13 29 38
419.019531 1109.937134 -101.695526 22 55 69
1215.363281 2665.546631 -681.362366 17 26 32
541.342285 1178.569092 13.037395 11 32 42
543.326660 1021.563477 34.390560 55 51 57
384.981659 1128.156128 -119.264954 11 29 38
390.158875 1130.153320 -115.478317 14 34 43
475.881134 1162.551270 -44.085262 64 69 72
524.690308 1175.199341 9.746857 16 31 38
441.028259 1103.244873 -77.769524 79 85 85
528.056641 1141.607666 2.299466 21 39 46
19095027712.000000 -2021599872.000000 302238240.000000 25 50 60
429.869904 1128.595825 -77.275482 23 53 67
20.095675 1033.390747 2.494570 29 44 50
353.674042 1097.458130 -153.365631 80 86 86
547.551208 1146.008545 2.890895 23 45 54
529.948303 1141.410034 2.347737 27 44 49
406.158783 1123.125854 -95.935715 41 68 76
355.595612 1131.935791 -129.217621 30 51 60
426.004578 1143.407227 -90.812950 30 49 54
