ply
format ascii 1.0
element vertex 124
property float x
property float y
property float z
property uchar blue
property uchar green
property uchar red
end_header
-29170.068359 -1809.735718 15402.304688 67 73 75
-87583.179688 14680.326172 83918.007812 64 68 67
4243.284668 -3633.205566 293.270325 70 75 74
-433.039917 137.573105 -33.803658 71 74 73
-349.824249 125.426773 -0.342563 55 58 59
6516.694336 -6077.634766 739.535095 85 90 90
-415708.125000 649647.125000 -1459.358521 59 61 62
-76548.375000 6275.466797 79050.343750 78 80 78
-130154.390625 130638.328125 -45306.136719 113 119 119
-3624.184814 3136.822998 -376.957489 101 110 106
972593.187500 -380553.156250 -1083555.625000 67 74 74
-292.673615 152.479889 -0.363573 34 32 30
-61719.859375 6709.827637 27940.289062 37 39 34
2146.402832 -3079.792969 594.250854 52 56 58
98771.343750 1720.863892 -47682.968750 52 53 48
-345.121582 110.805473 -0.257377 66 69 73
15026.434570 -69607.960938 200188.890625 70 76 81
513164.062500 -95031.515625 -262452.406250 61 63 65
-28032.511719 -1927.525635 15790.684570 59 60 57
-22127318.000000 -2627315.750000 -1143328.500000 73 75 74
-555896.500000 156911.328125 313378.687500 90 98 104
-1274005.375000 342612.437500 750070.687500 35 33 42
12362.038086 -70534.070312 200798.250000 57 62 66
-302.386078 112.291283 -0.220282 38 40 38
-27820.972656 -3049.646973 17735.462891 84 84 84
-633287.125000 174237.656250 372846.062500 46 41 50
-223.353470 119.283318 -0.165340 72 78 78
-234872.796875 86514.882812 179529.343750 64 70 71
-423526.187500 476133.656250 -55711.464844 64 69 72
4586.966797 -5167.487793 817.563477 58 59 61
209970.875000 -4122.952148 -152123.750000 59 64 66
-296992.531250 268710.218750 115351.679688 139 149 160
-76514.968750 6380.026855 79065.476562 71 75 73
-265.117188 117.563446 -0.199467 65 69 76
28304.250000 -21963.160156 1846.525146 72 75 74
-29180.691406 -2079.957031 15855.940430 72 77 76
-432.998016 137.490707 -33.810757 52 54 52
-97927.023438 32911.121094 62735.156250 63 65 63
20366.007812 -8330.555664 -9847.248047 17 16 14
-17614.273438 -2686.379883 4584.247070 85 85 83
-433.008728 137.452698 -33.798439 61 63 65
-301.042572 151.222000 -0.377583 51 54 54
-76245.320312 6164.749023 78621.851562 74 76 74
-124837.234375 123165.765625 -45733.066406 106 113 112
-221.472748 118.981789 -0.163327 66 70 74
-1566801.125000 -291569.250000 211694.156250 74 80 81
482046.343750 -279080.812500 -830735.375000 31 29 28
-303.779205 -125.106873 -125.486069 47 50 57
-145934.125000 -79129.281250 109671.468750 200 211 216
-432.949402 138.230118 -33.966537 61 65 66
19679.816406 -4625.102051 -17877.638672 52 51 48
-302.643097 112.219070 -0.220336 26 27 25
-89170.093750 18741.777344 72206.664062 136 146 150
-29128.117188 -2392.290039 16391.281250 69 73 72
-3700.427734 1028.549194 -1645.932373 77 80 79
-432.958496 138.024155 -33.925655 58 59 61
-463636.000000 146655.718750 292372.437500 62 64 65
311868.781250 -769103.687500 -1926.219727 73 80 81
12241.696289 -9371.364258 -5991.343750 53 55 54
-3759.172607 2535.505859 -132.792603 57 60 67
-38444.187500 31000.302734 -2915.717285 68 73 73
-27747.277344 -3055.623779 17759.003906 81 82 76
-27952.580078 -3029.574219 17676.955078 62 64 59
-19975.617188 -2784.129883 7522.497070 69 73 75
-102221.578125 32452.314453 89984.593750 68 73 75
-676658.687500 193217.046875 380942.031250 48 51 59
-29132.212891 -2394.469971 16394.236328 80 83 83
-112466.281250 71118.710938 690.500061 66 71 71
257422.156250 -1894.890747 -176060.812500 67 73 75
237993.218750 -148416.500000 -433296.906250 82 84 82
-209375.375000 76874.984375 145456.828125 24 24 22
399005.437500 -185229.875000 -531598.000000 32 31 27
-345.511261 110.779129 -0.258094 69 74 77
333958.968750 -67875.359375 -429561.156250 84 84 84
-285398.750000 93614.625000 203969.687500 54 57 55
251424.453125 -161031.687500 8334.602539 42 43 49
-110470744.000000 -42690024.000000 973113.312500 50 41 26
-138993.125000 55834.585938 109751.742188 71 74 75
-230514.953125 84337.039062 175956.578125 26 28 39
-115907.132812 38185.410156 77822.484375 64 65 65
-266379.250000 -138354.765625 112996.687500 73 77 79
10969822.000000 443942.093750 1460091.375000 37 39 38
57181.976562 -4834.663086 -164149.906250 74 78 79
1905446.250000 -534866.000000 -1519162.875000 15 17 24
20505.617188 -8406.217773 -9912.783203 61 63 61
-27823.738281 -3047.137451 17730.625000 84 84 82
286191.187500 -21695.117188 -184042.875000 66 67 66
108959.140625 -3291.764160 -81959.226562 41 40 37
-295.432007 136.525620 -0.297112 55 57 55
-266826.562500 -136687.640625 112770.921875 72 77 79
4891703.500000 -226784.531250 325032.406250 52 43 41
-89329.804688 55810.269531 493.131866 65 69 69
-221.776810 119.168449 -0.163835 63 68 70
-350.160858 -7.638077 -83.915894 84 90 87
-19822.839844 -2607.199463 7452.933105 60 60 57
-76764.984375 6188.101074 79404.554688 74 75 74
22996.160156 -17911.427734 1493.246338 64 67 66
-271350.656250 -127389.703125 109309.945312 67 71 74
-100512.945312 31018.658203 88444.359375 65 71 72
-264.989990 117.400764 -0.199120 63 67 74
-23587.291016 157.353745 12737.351562 45 47 42
-277504.937500 -160970.140625 206178.078125 134 145 149
-328.894714 129.933731 -0.327816 67 70 69
-192618.437500 73199.093750 130339.226562 46 46 46
1883049.750000 -528557.500000 -1502951.625000 21 23 28
-433.075043 137.156586 -33.711285 70 74 76
20412.878906 -8350.416992 -9869.273438 29 28 27
-330.960480 139.946884 -0.391650 67 68 68
-431092.031250 138536.453125 306669.468750 53 55 54
224092.531250 -31077.451172 -169414.281250 42 46 51
684636.875000 -324515.593750 -868750.562500 61 63 62
-27757.939453 -3048.807129 17745.419922 85 85 81
20331.167969 9403.365234 -28903.980469 57 57 53
-278.723907 116.027229 -0.208202 67 70 68
-160417.453125 55174.859375 121034.406250 109 117 120
230791.515625 -147822.921875 7303.977539 55 58 59
5221536.500000 -198018.687500 615487.062500 54 57 56
92311.859375 -55847.425781 197758.937500 65 71 75
-432.951477 138.230118 -33.965446 73 77 75
-30702.867188 -2327.105225 16023.644531 62 69 70
183214.562500 -22282.759766 -141907.265625 64 67 64
-20601.873047 -3140.775635 7849.752441 68 72 73
-432.949829 138.256943 -33.970909 72 74 71
61739.382812 -10076.870117 -29530.091797 64 65 65
