ply
format ascii 1.0
element vertex 60
property float x
property float y
property float z
property uchar blue
property uchar green
property uchar red
end_header
4.517807 4.504637 0.375576 9 27 38
4.673511 4.515906 0.336027 16 37 46
4.402254 4.048686 0.373018 19 32 38
1.777662 2.140810 0.615306 48 49 50
0.407369 0.532956 -0.232494 24 33 39
4.004632 3.602414 0.282224 49 63 69
-0.048073 0.000471 0.187508 73 81 81
2.477995 2.135974 0.081369 40 55 64
4.851291 4.390632 0.311400 71 82 82
1.990120 2.381790 0.371650 17 47 61
0.370408 0.554303 -0.045616 76 86 86
-0.004704 0.071314 0.085576 36 54 60
-0.416345 0.837867 0.357531 50 67 70
0.067486 -0.015616 0.108304 14 33 43
0.435017 0.521081 -0.124917 72 84 84
0.235363 0.624471 -0.121128 48 61 63
0.023845 0.098573 0.128702 80 85 84
0.078308 0.051897 0.072176 25 41 49
3.988692 3.672396 0.456177 9 30 38
0.064283 0.124728 0.061191 31 42 49
2.416688 2.242109 0.118442 35 53 64
3.927864 3.781968 0.415685 9 29 38
4.482165 3.902247 0.362645 25 36 43
0.213867 0.441631 -0.217340 80 86 84
4.365087 4.128561 0.251921 22 31 38
0.140441 0.244884 -0.007285 41 62 71
0.204470 0.197799 0.059024 13 32 42
0.207821 0.009455 1.518923 66 67 63
-0.011446 0.155848 0.052864 25 38 44
0.418223 0.414604 0.019416 21 37 44
0.057983 -0.013449 0.002891 51 63 67
0.156897 0.280757 0.087484 16 43 57
4.740189 4.350226 0.269989 25 40 48
3.587305 3.434679 0.309775 38 51 58
-0.554581 0.709027 0.316912 86 89 86
0.193288 0.209513 0.103845 51 72 82
0.296473 0.505772 -0.220193 37 43 46
0.379686 0.091531 0.613312 71 64 64
3.892685 3.683956 0.434179 89 84 78
0.064357 0.098189 0.197789 23 38 45
1.141944 1.413090 0.505826 4 10 18
-0.054366 -0.009502 0.020525 80 86 84
0.158991 0.308329 -0.017740 20 47 63
-0.145907 -0.006068 0.154783 35 48 54
-0.255325 0.877589 0.586609 64 64 68
-0.412031 0.728148 0.345682 31 36 42
0.145077 0.055738 1.403338 61 64 69
4.338364 3.990062 0.323097 26 39 45
0.418056 0.414561 -0.207981 24 40 47
0.016657 -0.007400 0.143870 33 44 50
0.265030 0.478406 -0.060675 22 37 43
0.419304 0.390126 -0.097438 48 56 59
-0.372020 0.786551 0.353191 49 62 66
1.127212 1.506394 0.719074 56 59 60
4.384344 3.911127 0.214827 64 67 69
4.390847 3.905774 0.219176 30 38 42
0.091337 -0.019473 0.102018 41 51 56
0.428573 0.540524 0.091813 69 68 69
4.714657 4.567419 0.461258 18 33 42
0.263016 0.448513 -0.123994 15 32 41
