ply
format ascii 1.0
element vertex 99
property float x
property float y
property float z
property uchar blue
property uchar green
property uchar red
end_header
0.029650 0.066770 0.160274 53 46 40
0.006819 0.116823 0.327637 76 73 73
0.028247 0.053290 0.126668 47 47 48
-0.067805 0.205249 0.566581 117 114 112
0.001974 0.135895 0.354788 87 87 87
0.023374 0.034981 0.082128 35 36 36
-0.095471 0.166232 0.641161 225 219 218
0.006469 0.119464 0.326904 100 96 97
-0.079610 0.223462 0.593501 76 74 67
-0.026743 0.161888 0.449866 41 31 33
-0.015394 0.153888 0.414540 91 88 91
0.029643 0.065577 0.156973 47 41 35
0.010096 0.125246 0.319331 93 94 95
-0.059294 0.188430 0.540588 93 94 98
0.027182 0.062831 0.163309 55 53 49
-0.001188 0.128638 0.357123 68 64 64
0.027333 0.063218 0.164082 49 49 46
0.000619 0.128840 0.353183 40 28 25
-0.044405 0.202286 0.505415 206 201 196
0.027230 0.054819 0.140161 51 49 49
0.009420 0.126087 0.323504 92 93 93
0.008893 0.007412 0.010872 26 25 22
-0.045856 0.152175 0.501268 50 48 47
0.024326 0.021224 0.029456 65 58 57
-0.006199 -0.001569 -0.009187 46 38 36
-0.063144 0.207184 0.554983 211 205 201
0.027541 0.024127 0.032894 106 95 92
-0.069603 0.204965 0.570049 129 126 123
0.031313 0.074942 0.171324 64 64 64
-0.072413 0.169970 0.574194 109 105 105
0.009770 0.123885 0.320349 46 42 44
0.029062 0.025395 0.035181 73 62 59
-0.052792 0.208304 0.529388 66 63 63
-0.078866 0.157521 0.592101 227 224 223
-0.064214 0.206851 0.556505 186 181 177
-0.045419 0.151538 0.499371 42 36 36
0.025435 0.022039 0.031416 84 81 83
0.029277 0.070907 0.172176 37 29 26
-0.093853 0.167736 0.634978 155 150 150
0.019028 0.133106 0.298686 65 60 64
-0.018011 0.143234 0.417473 80 79 77
0.011736 0.137924 0.322895 87 84 89
0.000554 0.133646 0.356165 37 28 26
0.030256 0.063247 0.147098 55 55 55
0.031489 0.076521 0.174123 45 42 42
0.028595 0.053866 0.128035 49 49 52
0.023133 0.088810 0.233111 51 47 49
0.018697 0.117104 0.283102 96 92 91
0.002737 0.002262 0.003373 98 89 86
0.008484 0.118055 0.320611 75 72 75
0.027420 0.083773 0.206187 84 81 83
-0.089532 0.164945 0.619872 76 72 74
0.027376 0.085858 0.208613 60 55 49
0.026430 0.046027 0.113523 51 50 49
0.028151 0.051156 0.121817 76 78 79
0.025109 0.037290 0.076485 98 99 102
-0.004400 0.123593 0.367741 34 23 21
0.005918 0.004988 0.007319 32 28 28
-0.082082 0.159159 0.603620 232 225 225
0.021832 0.031478 0.074041 50 48 48
-0.013590 0.151804 0.409390 69 67 72
0.028197 0.050762 0.120735 74 76 77
0.005293 0.004429 0.006524 72 68 66
-0.074591 0.152346 0.582677 150 143 143
0.002057 0.132759 0.351603 35 26 24
-0.060776 0.189984 0.545237 96 96 99
-0.053781 0.209351 0.530232 72 68 68
0.003959 0.133387 0.345065 97 94 96
0.028117 0.079053 0.195317 53 46 38
0.030025 0.061408 0.142118 47 48 46
-0.022323 0.167039 0.440726 35 26 25
0.003500 0.131741 0.347965 34 23 22
0.003385 0.133652 0.347643 90 91 90
0.018323 0.114790 0.282555 94 94 94
0.008684 0.117588 0.318490 46 43 44
-0.040093 0.202129 0.495154 61 58 58
0.027533 0.049124 0.117570 42 42 44
-0.077977 0.223431 0.589456 132 128 123
0.029434 0.065200 0.156461 54 48 42
0.001800 0.119570 0.343437 78 72 75
0.009663 0.123960 0.320944 67 63 64
0.027036 0.048768 0.120565 56 54 51
-0.093732 0.172520 0.628785 61 60 60
0.020066 0.092174 0.250596 44 42 42
-0.057152 0.189873 0.535571 105 102 102
0.007872 0.115335 0.320932 59 56 57
-0.000186 0.126817 0.355498 98 97 100
-0.015279 0.134296 0.387078 44 39 40
-0.062758 0.199402 0.551702 102 101 102
-0.043582 0.202816 0.505278 198 194 192
-0.053620 0.209056 0.531246 78 75 76
-0.065287 0.212850 0.557510 53 52 53
0.027059 0.049963 0.123402 64 63 62
0.001486 0.100346 0.333692 89 87 87
0.010723 0.116688 0.310580 79 76 77
0.006408 0.139950 0.343736 38 27 25
0.022393 0.032877 0.077379 34 31 33
0.025371 0.075556 0.200964 46 43 46
0.005237 0.127390 0.337581 80 75 75
