ply
format ascii 1.0
element vertex 341
property float x
property float y
property float z
property uchar blue
property uchar green
property uchar red
end_header
-0.072618 0.027657 0.026549 54 52 53
-0.133170 0.424815 0.182296 18 15 16
-0.072865 0.026886 0.025937 56 54 55
-0.072623 0.027646 0.026544 56 53 54
-0.252509 -0.126476 -0.376787 51 50 51
-0.072258 0.026220 0.024491 9 6 8
-0.072974 0.028211 0.027812 58 56 57
-0.071935 0.030229 0.029667 19 16 18
-0.317195 0.649215 -0.262631 28 25 23
-0.202789 0.560687 0.046562 10 8 8
-0.202027 0.557092 0.046980 9 8 8
-0.172394 0.783664 0.362145 14 12 11
-0.072992 0.027769 0.027209 52 50 51
-0.313374 0.642519 -0.262015 28 26 25
-0.396251 0.646503 -0.559311 22 21 20
-0.238613 0.655116 0.034434 22 20 19
-0.072618 0.027698 0.026594 8 7 7
-0.243615 0.670203 0.031841 19 16 16
-0.213615 0.865717 0.294517 10 8 9
-0.317775 0.663562 -0.264871 21 20 19
-0.196226 0.838064 0.322927 53 51 52
-0.214677 0.593699 0.042285 15 12 12
-0.198797 0.830735 0.329493 13 11 10
-0.145478 0.447489 0.158208 17 15 16
-0.122459 0.653811 0.405936 15 12 12
-0.302643 0.609654 -0.259707 18 15 14
-0.163254 0.739612 0.384811 19 16 16
-0.069594 0.033436 0.034103 17 13 15
-0.072412 0.027438 0.025991 55 53 53
-0.318552 0.660215 -0.264625 13 10 11
-0.316544 0.652313 -0.263076 25 19 19
-0.395773 0.644341 -0.559067 48 47 47
-0.139218 0.441871 0.165491 81 79 78
-0.395320 0.643143 -0.559546 15 13 12
-0.167824 0.780251 0.363962 17 15 13
-0.395690 0.643712 -0.559299 14 11 11
-0.395791 0.644399 -0.559184 16 13 12
-0.225896 -0.108783 -0.330629 55 54 54
-0.192792 0.809892 0.346042 14 12 11
-0.332480 -0.164147 -0.527626 45 43 44
-0.202574 0.578187 0.045327 20 18 18
-0.156659 0.749905 0.378830 51 49 48
-0.072514 0.028797 0.028016 51 49 50
-0.072556 0.027080 0.025769 51 50 50
-0.202747 0.837097 0.323493 13 10 11
-0.395607 0.644409 -0.559036 52 51 51
-0.312105 0.646945 -0.262862 68 67 68
-0.072399 0.027066 0.025555 49 47 48
-0.189488 0.828421 0.330903 15 12 11
-0.212401 0.575756 0.045351 17 15 15
-0.317228 0.649155 -0.262755 20 17 15
-0.238523 0.663773 0.032099 18 15 16
-0.071728 0.031152 0.031413 34 32 31
-0.396255 0.646328 -0.559478 20 19 20
-7.180571 -3.476440 -13.349621 25 24 24
-0.231409 0.661647 0.032126 17 16 15
-0.146557 -0.038604 -0.148394 84 82 82
-0.140077 0.444871 0.161590 17 15 15
-0.395175 0.640294 -0.562102 15 14 13
-0.136958 0.438029 0.169791 80 77 77
-0.395619 0.644572 -0.559112 17 15 13
-0.395632 0.644396 -0.559206 43 42 42
-0.300737 0.613631 -0.259872 18 17 16
-0.312238 0.648927 -0.263284 26 23 21
-0.129454 0.817302 1.394319 67 70 72
-0.144743 -0.040560 -0.143104 12 9 10
-0.196378 0.834107 0.326374 15 11 12
-0.396452 0.645859 -0.559262 19 18 18
-0.344335 0.135560 -0.326675 113 110 110
-0.317057 0.653562 -0.272051 70 70 71
-0.300515 0.613713 -0.259658 20 19 19
-0.229050 0.650963 0.034119 46 46 48
-0.400235 0.641754 -0.578133 25 23 22
-0.072628 0.027639 0.026541 56 54 54
-0.213081 0.592557 0.042494 48 48 49
-0.209286 0.593750 0.041949 41 39 40
-0.213401 0.578673 0.044820 14 12 13
-0.258139 0.724653 0.024202 13 12 12
-0.395669 0.643956 -0.559219 53 52 53
-0.209302 0.593945 0.042166 49 47 49
-0.397588 0.646853 -0.538543 12 13 14
-0.212094 0.593898 0.041630 20 17 17
-0.303755 0.617395 -0.259817 26 21 20
-0.395214 0.639994 -0.562515 10 8 8
-0.072645 0.027000 0.025785 53 52 52
3.522795 2.392017 26.975918 56 58 59
-0.072272 0.026878 0.025181 12 11 11
-0.207951 0.573406 0.044724 12 9 9
-0.300795 0.611788 -0.266662 15 15 14
-0.396550 0.646550 -0.559441 20 18 18
-0.071644 0.031350 0.031775 15 13 13
-0.396240 0.646360 -0.559380 12 11 10
-0.213377 0.578495 0.045302 10 9 9
-0.205876 -0.100146 -0.292222 11 10 11
-0.072641 0.026525 0.025264 54 52 52
-0.202538 0.573397 0.044405 47 47 48
-0.139583 -0.036520 -0.134964 82 80 80
-0.214596 0.874255 0.284353 18 14 16
-0.072966 0.027483 0.026798 59 58 58
-0.395510 0.643993 -0.559123 48 48 48
-0.395616 0.644459 -0.559144 12 12 10
-0.072711 0.026312 0.024947 10 9 10
-0.205933 0.846406 0.315058 52 50 50
-0.357466 0.665331 -0.283575 49 51 52
-0.310949 0.644531 -0.262901 17 15 13
-0.382952 0.657531 -0.459826 72 72 72
-0.114898 0.680246 0.045054 13 12 12
-0.240518 0.688242 0.029045 16 16 16
-0.317442 0.657653 -0.264093 70 69 71
-0.072630 0.027517 0.026386 58 57 57
-0.203818 0.852728 0.309661 52 51 50
-0.196901 0.560920 0.046258 10 9 9
-0.313844 0.644364 -0.262172 24 21 21
-0.267595 -0.128124 -0.409352 55 54 54
-0.283719 -0.134141 -0.440751 13 10 10
-0.265531 0.675098 -0.057058 26 21 20
-0.222855 -0.106757 -0.325463 14 12 12
-0.195511 0.824043 0.334731 17 14 14
-0.417327 -0.211886 -0.681602 52 50 51
-0.319255 0.662846 -0.264551 33 29 27
-0.184336 0.609933 0.035249 14 12 13
-0.072258 0.026227 0.024505 12 9 11
-0.201330 0.557016 0.046720 15 14 14
-0.239334 -0.113438 -0.357010 55 54 53
-0.395585 0.643107 -0.559583 12 10 9
-0.072414 0.027930 0.026621 10 8 9
-0.153872 0.591085 0.032570 12 11 12
-0.312165 0.648938 -0.263106 29 27 24
-0.072418 0.028770 0.027830 11 9 10
-0.200311 0.841160 1.178684 42 43 43
-0.212528 0.587721 0.042208 11 10 10
-0.158833 0.743569 0.381616 55 54 53
-0.326598 0.677960 -0.266507 20 17 16
-0.072540 0.026963 0.025608 8 6 7
-0.395294 0.639420 -0.563460 18 16 16
-0.264573 -0.134450 -0.397937 51 49 50
-3.078813 -1.521857 -5.587841 19 15 16
-0.395512 0.643984 -0.559124 43 43 44
-0.315817 0.653282 -0.263663 62 61 62
-0.203219 0.560586 0.047119 10 7 7
-0.310704 0.644617 -0.262222 20 18 16
-0.214610 0.593743 0.041552 15 12 12
-0.396474 0.646318 -0.559345 16 14 14
-0.316506 0.652356 -0.263101 26 19 19
-0.397199 0.647888 -0.560400 12 12 13
-0.307188 -0.168352 -0.467971 16 14 15
-0.161654 0.761297 0.374295 56 54 54
-0.265814 -0.126242 -0.406755 48 46 46
-0.304107 0.614076 -0.259909 17 15 14
-0.303736 0.617292 -0.260025 23 19 18
-0.072671 0.026777 0.025573 11 11 11
-0.302722 0.609655 -0.259203 19 16 16
-0.165574 0.772105 0.368419 53 52 52
-0.071783 0.031022 0.031184 14 11 12
-0.137517 0.432557 0.175024 21 17 18
-0.212881 0.587905 0.042372 8 7 7
-0.226137 -0.109093 -0.330569 54 53 53
-0.317744 0.663538 -0.264989 24 23 22
-0.395211 0.640618 -0.561747 17 14 14
-0.213375 0.578704 0.044841 13 11 11
-0.302621 0.609677 -0.258715 19 16 16
-0.072420 0.027915 0.026622 13 11 12
-0.318941 0.660081 -0.264186 18 14 15
-0.203652 0.560430 0.046707 13 10 11
-0.136912 0.431277 0.176249 15 11 12
-0.395445 0.643586 -0.559386 45 44 44
-0.395409 0.643388 -0.559396 44 43 43
-0.315962 0.660109 -0.264583 37 35 33
-0.302312 0.617240 -0.260031 75 73 73
-0.262568 0.759251 0.034111 11 11 12
-0.315323 0.651155 -0.263268 70 69 71
-0.315103 0.648474 -0.262901 15 11 11
-0.202813 0.573480 0.043277 46 46 46
-0.221738 -0.084688 -0.280439 83 82 82
-0.400236 0.641754 -0.578133 17 15 14
-0.160741 0.732792 0.369162 21 16 16
-0.072642 0.027138 0.025948 56 54 55
-0.115849 0.680257 0.043093 13 11 11
-0.227002 -0.107302 -0.334038 12 8 11
-0.318203 0.666458 -0.265504 21 19 18
-0.262272 0.752037 0.020245 12 11 12
-1.519449 -0.743028 -2.745591 57 55 55
-0.275754 0.679178 -0.107260 22 19 16
-0.196806 0.230550 -0.049388 108 106 106
-0.214907 0.863977 0.296016 53 51 51
-0.143791 0.443597 0.162737 18 14 14
-0.210782 0.581896 0.043915 18 16 16
-0.167278 0.623767 0.029418 14 12 13
-0.395438 0.643380 -0.559060 47 46 47
-0.201274 0.837746 0.323763 19 17 17
-0.170664 0.758493 0.376236 23 21 20
-0.138795 0.436429 0.171243 16 13 13
-0.138286 0.843516 1.184590 56 57 58
-0.187811 0.825634 0.333855 19 16 16
-0.250258 -0.121767 -0.375351 7 5 5
-0.072519 0.028223 0.027171 53 51 51
-0.145650 0.447031 0.157995 18 16 17
-0.202566 0.578318 0.044895 15 14 14
-0.119856 0.405320 0.196344 20 16 15
-0.395662 0.643925 -0.559273 43 42 43
-0.146890 0.726984 0.387854 16 13 12
-0.393262 -0.198675 -0.637671 10 8 9
-0.395338 0.643276 -0.559510 19 17 16
-0.202605 0.578262 0.044355 16 15 15
-0.190913 0.831524 0.329079 24 20 19
-0.161016 -0.046745 -0.173749 17 13 14
-0.220313 -0.111779 -0.315878 11 9 10
-0.235270 0.679779 0.052351 60 55 55
-0.303935 0.614001 -0.259178 14 12 11
-0.580792 -0.278079 -0.996253 13 11 12
-0.280259 0.632720 -0.265834 24 20 21
-0.201420 0.848139 0.313650 50 48 48
-0.073052 0.027577 0.027033 11 10 11
-0.395535 0.642581 -0.559932 22 19 18
-0.395774 0.644159 -0.559183 11 9 9
-0.207973 -0.100100 -0.296684 54 53 53
-0.072267 0.028153 0.026727 57 56 56
-0.300509 0.613687 -0.259712 16 15 15
-0.212888 0.587889 0.042496 9 7 8
-0.316959 0.653718 -0.263217 23 19 18
-0.133394 0.424597 0.182320 21 19 20
-0.137830 -0.034617 -0.132229 80 78 78
-0.187711 0.825828 0.334293 12 10 9
-0.395471 0.644010 -0.558993 47 47 48
-0.167882 0.780898 0.363595 15 13 11
-0.395913 0.644690 -0.559065 16 14 13
-0.134268 0.426283 0.180907 18 13 14
-0.196351 0.827804 0.332147 11 10 9
-0.072430 0.028674 0.027705 11 9 9
-0.072560 0.026611 0.025248 51 50 50
-0.192564 -0.089702 -0.270361 9 6 8
-0.114986 0.680084 0.043381 11 11 11
-0.072717 0.028085 0.027261 52 51 51
-0.327333 0.685566 -0.267940 16 14 14
-0.202663 0.578120 0.045570 17 15 15
-0.225329 0.834845 0.325213 18 15 16
-0.263136 0.754689 0.019599 12 12 13
-0.197937 0.832715 0.327804 54 53 53
-0.072653 0.026994 0.025785 50 48 48
-0.396811 0.647611 -0.560055 12 12 12
-0.319030 0.660157 -0.264060 16 13 13
-0.072969 0.027322 0.026599 55 53 54
-0.320230 0.663544 -0.264704 24 20 19
-0.188063 0.824761 0.333689 15 12 12
-0.201858 0.557166 0.045970 9 8 9
-0.313965 0.644257 -0.262375 23 19 20
-0.210750 0.571063 0.045857 18 18 18
-0.162639 0.768631 0.369892 16 14 13
-0.303981 0.614116 -0.259384 13 10 10
-0.219540 0.867491 0.291304 12 11 12
-0.072258 0.026748 0.025037 13 11 12
-0.312159 0.648988 -0.262985 24 21 18
-0.158867 0.743859 0.382479 55 53 53
-0.137003 0.438588 0.168982 20 17 16
-0.192518 -0.089603 -0.270330 14 11 12
-0.072262 0.027035 0.025341 17 15 16
-0.188220 0.236395 -0.039444 28 24 23
-0.300000 0.612269 -0.259698 32 30 28
-0.395542 0.643355 -0.559420 52 50 52
-0.170202 0.772579 0.368778 19 15 14
-0.316084 0.660159 -0.264243 18 16 14
-0.200983 0.834433 0.326131 17 14 15
-0.396451 0.646290 -0.559496 13 12 12
-0.238274 0.663929 0.032687 15 13 13
-0.226398 0.836804 0.323198 16 14 14
-0.073026 0.025843 0.025037 57 55 56
-0.072617 0.027697 0.026593 11 9 10
-0.303813 0.614060 -0.259511 14 11 11
-0.228627 0.650911 0.034250 37 37 39
-0.303096 0.611047 -0.258980 25 22 21
-0.139825 0.438982 0.168262 82 80 80
-0.199304 0.567787 0.044995 10 8 8
-0.232614 0.694900 0.058245 43 38 35
-0.297185 0.603759 -0.258799 20 18 18
-0.202781 0.578221 0.044636 12 10 10
-0.243351 -0.126888 -0.356063 19 18 19
-0.154104 0.591180 0.032346 13 12 13
-0.072486 0.028094 0.026953 11 9 10
-0.169321 0.766020 0.372035 13 11 11
-0.263117 0.754726 0.019553 12 12 13
-0.229097 0.654725 0.032894 24 22 21
-0.166040 0.776759 0.365885 15 12 12
-0.300442 0.606009 -0.258953 70 67 69
-0.395770 0.644032 -0.559250 14 13 13
-0.298786 0.598177 -0.257937 18 15 15
-0.317181 0.649199 -0.262534 24 21 20
-0.396419 0.645761 -0.559270 21 19 18
-0.209538 0.579097 0.044073 11 10 9
-0.155385 0.744721 0.381062 55 54 53
-0.072550 0.029366 0.029032 54 52 53
-0.198678 0.228817 -0.053458 64 60 60
-0.317043 0.653682 -0.263432 24 20 20
-0.297288 0.603748 -0.258942 17 15 14
-0.253209 -0.097802 -0.340625 89 86 87
-0.201818 0.556871 0.048010 10 9 10
-0.072647 0.027132 0.025942 57 55 56
-0.258130 0.724781 0.024283 11 10 10
-0.221243 -0.104566 -0.323496 58 56 57
-0.236500 0.686111 0.053025 126 125 125
-0.395211 0.639990 -0.562547 12 11 11
-0.157857 -0.047465 -0.166769 15 12 13
-0.203564 0.560675 0.047044 11 7 8
-0.166581 0.618697 0.030862 46 45 46
-0.221854 -0.105984 -0.323567 12 10 10
-0.316165 0.651564 -0.271903 66 65 65
3.720106 2.488850 28.433285 56 59 60
-0.152680 0.726416 0.367592 32 29 27
-0.171904 0.779221 0.364586 50 48 48
-0.395645 0.644386 -0.559162 46 46 46
-0.235008 0.653926 0.033311 10 8 8
-0.210708 0.571219 0.045992 13 12 13
7.749551 3.470708 91.722008 59 59 59
-0.137967 -0.034655 -0.132538 82 80 80
-0.167177 0.623895 0.029740 15 13 15
-0.202230 0.556970 0.047410 9 8 8
-0.319742 0.657039 -0.263877 26 23 22
-0.395634 0.644566 -0.559168 20 18 16
-0.207929 0.573389 0.045253 13 10 11
-0.133193 0.420507 0.185859 22 19 19
-0.179017 -0.057953 -0.205685 82 79 79
-0.206283 0.586924 0.043407 8 8 8
-0.914327 -0.457923 -1.608021 11 9 9
-0.210906 0.582017 0.043868 12 10 11
-0.170681 0.758887 0.376238 16 13 12
-0.318243 0.666434 -0.265398 21 18 18
-0.313043 0.642584 -0.262048 41 37 36
-0.276152 0.682022 -0.105554 39 35 33
-0.071525 0.031335 0.031505 14 12 13
-0.153863 0.591028 0.032741 10 9 10
-0.318130 0.666444 -0.264938 28 26 26
-0.395453 0.643578 -0.559347 47 46 46
-0.072291 0.027999 0.026545 49 47 47
-0.239467 0.685149 0.029164 19 18 18
-0.203445 0.560784 0.046449 12 9 9
-0.199323 0.836582 0.324422 51 50 50
-0.395646 0.644465 -0.559136 12 12 11
-0.213015 0.856942 0.304226 11 8 8
-0.172333 0.783583 0.362011 19 16 16
-0.318187 0.666376 -0.265226 21 19 19
-0.197140 0.827438 0.332290 12 10 10
-0.201164 0.848465 0.313677 49 47 48
