ply
format ascii 1.0
element vertex 144
property float x
property float y
property float z
property uchar blue
property uchar green
property uchar red
end_header
-0.004167 -0.000106 0.004060 54 52 53
-0.004168 -0.000106 0.004059 15 13 13
0.033528 0.030790 0.120220 18 15 16
-0.113813 -0.055693 -0.205637 57 55 55
-0.004167 -0.000106 0.004060 56 54 55
0.053641 0.058238 0.203359 16 14 14
0.016098 0.017499 0.070569 108 106 106
-0.004167 -0.000106 0.004060 55 53 54
-0.004167 -0.000106 0.004060 11 9 10
-0.004167 -0.000106 0.004060 56 53 54
-0.013692 -0.006857 -0.020429 51 50 51
0.098594 0.059932 0.233466 22 20 19
-0.004167 -0.000106 0.004060 58 56 57
0.066254 0.061951 0.238991 19 17 17
0.090262 0.063117 0.234403 23 21 20
-0.004167 -0.000106 0.004060 54 52 52
-0.004167 -0.000106 0.004060 55 54 55
-0.004167 -0.000106 0.004059 19 16 18
-0.007877 -0.002842 -0.006234 82 80 80
-0.012583 -0.006561 -0.018410 19 18 19
-0.004167 -0.000106 0.004060 11 9 10
-0.004167 -0.000106 0.004060 59 58 58
0.088382 0.061898 0.234688 13 11 11
0.069653 0.058768 0.233916 19 16 16
0.083401 0.060628 0.235071 14 12 11
-0.004167 -0.000106 0.004060 12 11 11
-0.004167 -0.000106 0.004060 52 50 51
-0.014045 -0.006832 -0.021064 7 5 5
0.085556 0.059570 0.234220 15 12 12
-0.004167 -0.000106 0.004060 53 51 51
-0.004167 -0.000106 0.004060 8 7 7
-0.004167 -0.000106 0.004060 10 8 8
0.064922 0.059059 0.233780 53 51 52
-0.004167 -0.000106 0.004060 53 52 52
0.088030 0.059618 0.234229 17 14 13
0.067946 0.061653 0.236684 13 11 10
0.014448 0.013939 0.058478 25 21 20
-0.004167 -0.000106 0.004060 58 57 57
0.094801 0.060422 0.233962 55 54 53
-0.004167 -0.000106 0.004059 54 52 53
0.099829 0.059917 0.233278 16 13 12
-0.015402 -0.007372 -0.023556 55 54 54
0.016121 0.017330 0.070110 64 60 60
-0.021337 -0.010776 -0.034600 10 8 9
-0.012666 -0.005986 -0.018484 57 56 56
-0.004168 -0.000106 0.004059 17 13 15
-0.016697 -0.007894 -0.025936 13 10 10
-0.004167 -0.000106 0.004060 55 53 53
-0.012625 -0.006046 -0.018440 14 12 12
0.067155 0.058328 0.232511 24 20 19
0.070163 0.061655 0.236366 17 14 14
-0.022458 -0.011398 -0.036681 52 50 51
-0.861487 -0.577284 -2.176419 17 13 14
-0.013338 -0.005871 -0.016367 89 86 87
-0.011735 -0.005954 -0.016827 11 9 10
-0.004167 -0.000106 0.004060 57 55 56
-0.004167 -0.000106 0.004060 54 52 52
-0.013792 -0.006537 -0.020573 55 54 53
0.084500 0.059652 0.234373 17 15 13
-0.012708 -0.006003 -0.018577 58 56 57
-0.004167 -0.000106 0.004060 10 8 9
-0.037027 -0.017742 -0.063520 13 11 12
-0.012736 -0.006131 -0.018638 55 54 54
-0.004167 -0.000106 0.004060 11 10 11
0.099959 0.059914 0.233243 24 21 20
-0.008657 -0.003350 -0.007683 15 12 13
-0.004167 -0.000106 0.004060 11 9 10
0.074610 0.062829 0.235888 14 12 11
-0.004167 -0.000106 0.004060 11 9 10
-0.012592 -0.006015 -0.018366 12 10 10
0.094907 0.061578 0.234295 55 54 53
-0.018632 -0.009195 -0.029569 45 43 44
0.093354 0.060175 0.233963 51 49 48
-0.004167 -0.000106 0.004060 8 6 7
-0.004167 -0.000106 0.004060 51 49 50
0.033716 0.031026 0.120781 21 19 20
0.084642 0.061045 0.235055 50 48 48
-0.007881 -0.002788 -0.006224 80 78 78
-0.004167 -0.000106 0.004060 51 50 50
0.069253 0.058329 0.232395 12 10 9
0.065938 0.062109 0.238131 13 10 11
-0.014114 -0.007171 -0.021230 51 49 50
-0.011412 -0.005552 -0.016199 11 10 11
-0.007893 -0.002793 -0.006249 82 80 80
-1.247000 -0.632441 -2.303638 19 15 16
0.084363 0.059629 0.234535 15 13 11
0.100461 0.061861 0.233222 18 16 15
-0.004167 -0.000106 0.004060 49 47 48
0.068854 0.059059 0.235007 15 12 11
0.033075 0.030967 0.120638 18 13 14
0.068657 0.061031 0.235178 11 10 9
0.119274 0.060110 0.231408 15 12 12
-0.004168 -0.000106 0.004059 34 32 31
-0.014749 -0.008082 -0.022468 16 14 15
-0.004167 -0.000106 0.004060 7 5 5
-0.009813 -0.003940 -0.009826 82 79 79
0.089993 0.060160 0.233705 56 54 54
-0.015446 -0.007335 -0.023637 48 46 46
-0.004167 -0.000106 0.004060 51 50 50
-0.011065 -0.005153 -0.015533 9 6 8
-0.004167 -0.000106 0.004060 52 51 51
-0.052965 -0.026530 -0.093158 11 9 9
-0.004167 -0.000106 0.004060 11 11 11
0.098338 0.061883 0.233860 55 53 53
-0.011647 -0.005609 -0.016617 54 53 53
-0.004167 -0.000106 0.004060 57 56 56
0.034903 0.031445 0.120361 22 19 19
0.051145 0.055121 0.192430 18 15 16
0.095579 0.063125 0.233532 19 16 16
0.086916 0.060068 0.234417 53 52 52
-0.004168 -0.000106 0.004059 14 11 12
0.067035 0.060797 0.235485 54 53 53
-0.004167 -0.000106 0.004060 50 48 48
0.030905 0.031001 0.121178 21 17 18
-0.004167 -0.000106 0.004060 12 10 11
-0.004167 -0.000106 0.004060 55 53 54
-0.012712 -0.006134 -0.018580 54 53 53
0.090126 0.063031 0.234183 16 13 12
0.069874 0.059004 0.234329 15 12 12
-0.007993 -0.002985 -0.006451 12 9 10
-0.004167 -0.000106 0.004060 13 11 12
-0.004167 -0.000106 0.004060 53 52 52
0.088025 0.059672 0.234360 16 14 13
0.012265 0.012851 0.052785 113 110 110
0.066656 0.060147 0.235400 15 11 12
-0.004167 -0.000106 0.004060 13 11 12
0.088262 0.061625 0.233977 13 10 10
0.031277 0.030943 0.120835 15 11 12
-0.004168 -0.000106 0.004059 14 12 13
-0.004167 -0.000106 0.004060 11 9 9
-0.004167 -0.000106 0.004060 56 54 54
-0.004167 -0.000106 0.004060 49 47 47
0.094769 0.061409 0.233522 55 53 53
-0.011070 -0.005151 -0.015543 14 11 12
0.065397 0.060307 0.234525 51 50 50
0.015839 0.016698 0.069717 28 24 23
0.096584 0.061685 0.233681 15 12 12
0.086453 0.061239 0.234258 19 15 14
-0.011254 -0.004935 -0.012518 83 82 82
0.083286 0.060376 0.234675 23 19 19
-0.004167 -0.000106 0.004060 56 54 55
0.069570 0.062137 0.238190 12 10 10
0.067222 0.062299 0.238912 17 14 15
-0.013054 -0.006171 -0.019211 12 8 11
