ply
format ascii 1.0
element vertex 322
property float x
property float y
property float z
property uchar blue
property uchar green
property uchar red
end_header
-0.008595 -0.003131 -0.006916 54 52 53
0.031352 0.033614 0.124357 18 15 16
0.073495 0.033756 0.151814 18 15 13
-0.008357 -0.003245 -0.006817 56 54 55
-0.008344 -0.003097 -0.006778 57 55 56
0.044441 0.046289 0.180972 13 10 11
-0.008598 -0.003139 -0.006931 56 53 54
-0.013617 -0.006819 -0.020317 51 50 51
-0.009199 -0.003548 -0.007361 58 56 57
-0.009978 -0.003152 -0.007794 19 16 18
-24.574059 15.603381 64.448677 20 19 18
818.826416 -317.201965 -1396.705322 10 8 8
855.977356 -327.660706 -1442.480713 9 8 8
-0.008918 -0.003468 -0.007170 52 50 51
36.190109 -19.388000 -82.650162 28 26 25
-22.968805 14.631808 60.415699 22 20 19
-0.008606 -0.003128 -0.006902 8 7 7
0.064781 0.067639 0.252837 53 51 52
484.145996 -215.761520 -929.107727 15 12 12
-0.008330 -0.002863 -0.006704 53 52 52
0.068065 0.070391 0.256000 13 11 10
0.123417 0.066409 0.251923 15 12 12
313.486938 -131.227493 -569.512634 18 15 14
0.035288 0.047291 0.193644 11 9 9
0.097969 0.070714 0.253394 19 16 16
-0.012577 -0.005944 -0.018354 57 56 56
-0.012181 -0.002458 -0.009397 17 13 15
-0.008545 -0.003000 -0.006850 12 10 11
-0.008338 -0.002932 -0.006712 55 53 53
0.026355 0.041792 0.169770 46 44 45
-69.484016 46.048210 196.136108 13 10 11
-26.692156 16.969961 71.693573 25 19 19
0.231380 0.059450 0.200834 162 158 158
-0.008158 -0.002845 -0.006630 54 52 52
0.085866 0.067466 0.254054 17 15 13
-0.007875 -0.002904 -0.006556 12 11 12
0.973601 0.206714 0.655915 14 11 11
1.060616 0.218530 0.685728 16 13 12
-0.012652 -0.006091 -0.018515 55 54 54
0.040291 0.045374 0.186845 12 11 9
-0.008201 -0.003092 -0.006720 11 11 11
-0.018522 -0.009141 -0.029395 45 43 44
653.963501 -259.162292 -1182.611206 20 18 18
0.056391 0.058447 0.219017 26 22 22
-0.009227 -0.003243 -0.007290 51 49 50
-0.008272 -0.003027 -0.006738 51 50 50
0.036036 0.049646 0.191501 15 13 13
0.053274 0.046396 0.169694 18 16 16
0.403959 0.107519 0.363608 105 104 104
13.281919 -6.672856 -29.650461 68 67 68
-0.008179 -0.002911 -0.006674 49 47 48
0.068978 0.067508 0.254280 15 12 11
-72.075523 45.104683 190.787415 18 15 16
-0.010945 -0.003444 -0.008526 34 32 31
0.023515 0.025518 0.098594 134 131 132
0.282454 0.068478 0.228277 48 44 43
-5.130693 -2.473241 -9.483093 25 24 24
-42.420650 25.283886 111.659874 17 16 15
0.053766 0.044269 0.169587 24 22 21
0.047099 0.059014 0.193811 27 23 23
0.512838 0.124775 0.410179 15 14 13
0.409352 0.108379 0.365960 32 27 25
1.051677 0.220150 0.681381 43 42 42
1.092922 0.225514 0.694355 16 14 14
283.379852 -116.218864 -528.114685 18 17 16
1.318534 -0.052754 -0.447782 26 23 21
0.111603 0.079802 0.157933 67 70 72
-0.009885 -0.004407 -0.011744 12 9 10
0.066647 0.068785 0.254612 15 11 12
0.039770 0.037571 0.139553 30 26 25
-0.008278 -0.003081 -0.006738 53 52 52
-30.808565 19.098461 83.077667 70 70 71
23.971140 -12.609772 -55.705654 46 46 48
0.040772 0.045335 0.186052 46 45 45
0.233518 0.074904 0.271329 42 37 35
-0.008592 -0.003138 -0.006917 56 54 54
498.161621 -218.719223 -951.803467 48 48 49
498.341644 -211.613327 -954.414856 41 39 40
0.055174 0.058663 0.219244 20 16 17
0.538316 0.123303 0.407875 81 80 80
496.456848 -210.911377 -951.265442 49 47 49
489.623535 -213.081802 -939.009094 20 17 17
0.050926 0.043606 0.173663 29 27 27
243.383484 -106.012978 -466.872803 26 21 20
0.471984 0.114374 0.380748 10 8 8
0.042185 0.047188 0.183589 13 10 10
0.035304 0.049926 0.192328 14 10 10
0.579516 0.130275 0.425694 25 22 20
684.428711 -280.796692 -1220.323120 12 9 9
307.574524 -121.337303 -555.313416 15 15 14
0.046496 0.044722 0.178601 50 48 48
1.363728 0.243274 0.759033 20 18 18
-0.011160 -0.003491 -0.008690 15 13 13
1.321689 0.245490 0.749173 12 11 10
0.053750 0.044229 0.169651 19 17 16
-0.008077 -0.003057 -0.006662 54 52 52
700.609070 -275.409821 -1244.469604 47 47 48
-0.009748 -0.004222 -0.011532 82 80 80
0.060034 0.054303 0.214490 25 22 21
-0.008735 -0.003401 -0.007057 59 58 58
0.998655 0.213368 0.663647 48 48 48
1.058720 0.221190 0.683682 12 12 10
29.672235 -15.276290 -68.103416 17 15 13
0.034375 0.053467 0.192423 16 14 14
0.044960 0.045220 0.180554 49 48 48
0.048273 0.044640 0.176357 12 9 9
-37.208397 24.076424 102.789093 95 93 95
-0.008525 -0.003122 -0.006872 58 57 57
834.695679 -311.294891 -1419.072266 10 9 9
23.746437 -12.672560 -54.161674 24 21 21
-0.015296 -0.007321 -0.023394 55 54 54
-0.016574 -0.007835 -0.025745 13 10 10
0.037801 0.048222 0.189449 51 50 51
-2.241530 1.824407 7.574824 26 21 20
-0.012540 -0.006005 -0.018315 14 12 12
0.070459 0.070288 0.255718 17 14 14
-0.022356 -0.011346 -0.036515 52 50 51
-82.623955 56.110794 238.535690 33 29 27
0.005995 0.024100 0.113012 17 15 14
0.041431 0.046929 0.184681 14 12 12
859.767212 -327.390015 -1447.099243 15 14 14
-0.013695 -0.006491 -0.020428 55 54 53
0.894953 0.196048 0.624193 12 10 9
-0.008602 -0.002995 -0.006875 10 8 9
0.886494 0.198376 0.618873 15 13 12
1.429109 -0.114624 -0.722222 29 27 24
-0.009131 -0.003149 -0.007216 11 9 10
0.098078 0.086819 0.160978 42 43 43
-0.008306 -0.002859 -0.006705 11 9 10
0.085523 0.052526 0.200301 20 17 17
542.852600 -235.352722 -1018.119263 11 10 10
0.065760 0.038678 0.157924 18 15 13
-0.008199 -0.002997 -0.006677 8 6 7
0.388796 0.091587 0.315962 18 16 16
-0.014044 -0.007135 -0.021124 51 49 50
-1.213118 -0.615222 -2.240592 19 15 16
0.536285 0.123327 0.406744 67 66 66
-30.595381 19.200956 82.285461 62 61 62
818.007690 -317.739532 -1395.170898 10 7 7
0.070580 0.036446 0.153564 51 51 50
30.339394 -15.624004 -69.760262 20 18 16
484.484833 -215.582932 -929.887146 15 12 12
0.360411 0.088239 0.294572 35 28 29
-27.154799 17.242912 72.871902 26 19 19
-0.014714 -0.008062 -0.022414 16 14 15
0.059023 0.057752 0.216959 18 15 15
-46.348068 30.927944 130.847855 26 21 21
-0.015336 -0.007282 -0.023468 48 46 46
0.037969 0.037214 0.141141 30 27 28
270.913788 -117.551460 -507.636932 17 15 14
244.430511 -106.265747 -468.214264 23 19 18
0.091385 0.050972 0.197823 21 16 16
312.667969 -131.296371 -568.530579 19 16 16
0.049563 0.044355 0.174945 17 13 13
-0.010808 -0.003415 -0.008413 14 11 12
540.108276 -235.084335 -1014.255066 8 7 7
-0.012630 -0.006094 -0.018459 54 53 53
0.557914 0.135371 0.441050 17 14 14
312.145508 -131.134232 -568.096741 19 16 16
-0.008619 -0.003015 -0.006927 13 11 12
818.418457 -318.741760 -1395.796387 13 10 11
0.081191 0.053091 0.203192 19 15 15
0.029065 0.033912 0.125033 15 11 12
0.373433 0.102011 0.347969 96 94 93
0.366313 0.100701 0.344057 100 97 97
-62.857677 40.275532 176.564865 37 35 33
0.042197 0.047210 0.183683 14 10 11
248.538895 -105.457001 -475.514923 75 73 73
0.075212 0.052712 0.206753 22 17 17
-18.681530 11.805819 50.380283 70 69 71
-2.299475 1.849400 7.704893 23 18 18
0.059600 0.053893 0.213510 16 13 12
700.351013 -275.530701 -1243.925659 46 46 46
-0.013602 -0.006519 -0.018072 83 82 82
0.233558 0.074888 0.271305 34 30 27
0.042239 0.046662 0.183571 30 27 27
-0.008352 -0.003100 -0.006796 56 54 55
-0.012962 -0.006127 -0.019075 12 8 11
-0.112818 -0.055207 -0.203840 57 55 55
0.462927 0.109825 0.368111 22 19 16
0.036817 0.049398 0.190450 13 11 12
598.721680 -254.370514 -1100.315796 18 16 16
0.367675 0.101285 0.344976 102 100 100
0.066188 0.070852 0.258432 19 17 17
0.041991 0.044373 0.184930 20 17 17
0.092218 0.070955 0.254169 23 21 20
-0.008260 -0.002918 -0.006687 55 54 55
0.101005 0.074860 0.162352 56 57 58
0.069857 0.067129 0.253134 19 16 16
0.046110 0.045650 0.178957 16 13 13
0.044398 0.046241 0.180934 15 12 13
-0.013956 -0.006789 -0.020930 7 5 5
-0.008851 -0.003132 -0.007052 53 51 51
653.300232 -258.716187 -1181.546997 15 14 14
0.032967 0.048582 0.196312 11 10 9
0.997416 0.211090 0.663984 43 42 43
0.102416 0.067074 0.253340 16 13 12
-0.021235 -0.010724 -0.034434 10 8 9
0.073368 0.033438 0.152015 14 11 9
0.903105 0.201050 0.625770 19 17 16
654.297302 -258.966858 -1182.802734 16 15 15
0.067191 0.066720 0.251556 24 20 19
0.030587 0.048918 0.199070 23 22 23
-0.022822 -0.012867 -0.043427 17 13 14
-0.011673 -0.005923 -0.016739 11 9 10
18.321520 -9.702862 -41.660851 60 55 55
271.359650 -117.746292 -508.821442 14 12 11
1.060167 0.220703 0.684286 14 14 13
0.048573 0.041624 0.177071 19 17 15
-0.036724 -0.017597 -0.062999 13 11 12
-35.360111 22.533075 95.197029 24 20 20
-0.008843 -0.003486 -0.007128 11 10 11
0.827332 0.185589 0.593883 22 19 18
0.397885 0.106715 0.360672 25 20 20
-0.011571 -0.005572 -0.016508 54 53 53
-0.008641 -0.002916 -0.006895 57 56 56
0.083397 0.054217 0.201466 23 19 18
283.396790 -115.856102 -528.415100 16 15 15
540.130737 -235.143127 -1014.270081 9 7 8
-35.276566 22.477905 94.982529 23 19 18
-0.009738 -0.004130 -0.011477 80 78 78
0.036819 0.049314 0.190447 14 12 12
1.060516 0.220704 0.684600 13 13 12
0.388683 0.104948 0.355924 104 102 102
0.079241 0.032626 0.146390 49 47 46
0.032502 0.051139 0.196332 14 12 12
1.102238 0.221685 0.699659 16 14 13
0.032321 0.050904 0.196469 11 9 9
0.545057 0.124909 0.410697 18 14 11
-0.009081 -0.003144 -0.007195 11 9 9
-0.008060 -0.002993 -0.006622 51 50 50
-0.010984 -0.005116 -0.015419 9 6 8
-0.008913 -0.003283 -0.007129 52 51 51
0.415250 0.109391 0.368699 31 27 25
654.335327 -259.415466 -1182.633911 17 15 15
0.067082 0.069473 0.254700 54 53 53
-0.008277 -0.003084 -0.006731 50 48 48
-46.961685 31.395260 132.584534 26 21 21
-0.008650 -0.003383 -0.007010 55 53 54
-87.460358 60.356144 254.621216 24 20 19
857.203247 -327.594147 -1444.177612 9 8 9
23.855888 -12.740473 -54.362492 23 19 20
270.410187 -117.371864 -507.296570 13 10 10
-0.007975 -0.002800 -0.006580 13 11 12
0.055168 0.057096 0.217131 76 74 74
0.046034 0.044096 0.179550 16 13 12
1.339314 -0.064038 -0.498193 24 21 18
-0.010989 -0.005114 -0.015429 14 11 12
-0.008079 -0.002801 -0.006583 17 15 16
297.140503 -120.092506 -548.397095 32 30 28
0.367206 0.101078 0.344434 107 104 105
0.053799 0.044224 0.169804 18 16 15
0.036009 0.049678 0.191390 15 13 13
0.687875 0.142555 0.463534 21 18 18
-72.119896 45.122852 190.963699 15 13 13
0.058562 0.057003 0.215522 16 13 13
-0.008608 -0.003129 -0.006908 11 9 10
271.488190 -117.379982 -508.805786 14 11 11
26.006796 -13.693152 -60.622395 37 37 39
299.149628 -126.968979 -549.343323 25 22 21
762.305664 -291.095062 -1327.260986 10 8 8
0.341935 0.095394 0.329317 43 38 35
380.950104 -145.202606 -662.902161 20 18 18
653.764832 -259.286957 -1182.197510 12 10 10
-0.012528 -0.006532 -0.018329 19 18 19
-0.008764 -0.003093 -0.007018 11 9 10
-0.008009 -0.002790 -0.006531 12 11 11
2.012487 -0.449681 -2.160248 24 22 21
351.392883 -141.077728 -622.618652 70 67 69
1.015686 0.212082 0.671130 14 13 13
-0.008047 -0.002937 -0.006634 10 8 8
854.731445 -327.613312 -1441.335327 11 9 9
0.025003 0.025755 0.117719 16 12 11
-24.333424 15.459620 63.829739 17 15 14
0.656871 0.138680 0.454786 33 29 28
627.696533 -262.903290 -1141.728271 11 10 9
-0.009733 -0.003456 -0.007662 54 52 53
0.032501 0.051063 0.196370 13 11 11
0.014702 0.019219 0.072906 64 60 60
381.009705 -145.348343 -662.830994 17 15 14
-0.015826 -0.007417 -0.021976 89 86 87
857.563049 -327.856079 -1444.229492 10 9 10
-0.012618 -0.005960 -0.018445 58 56 57
3.859496 -1.787733 -7.804066 126 125 125
0.470568 0.114011 0.379691 12 11 11
-0.010666 -0.004796 -0.013028 15 12 13
815.898743 -317.797943 -1392.625854 11 7 8
0.040272 0.045332 0.186856 12 11 10
-0.012506 -0.005974 -0.018241 12 10 10
0.240008 0.061513 0.207249 41 36 34
-17.886944 11.117141 48.533459 66 65 65
0.093899 0.048315 0.197030 32 29 27
0.086058 0.068979 0.254755 50 48 48
0.560992 0.127199 0.417993 69 68 69
-8.644325 5.780943 24.293409 10 8 8
-0.011340 -0.005517 -0.016096 11 10 11
-0.009750 -0.004135 -0.011499 82 80 80
855.969788 -328.070312 -1442.285889 9 8 8
0.054748 0.043894 0.168564 18 14 13
1.072064 0.223049 0.687692 20 18 16
683.952209 -280.762054 -1219.783569 13 10 11
-0.008382 -0.002947 -0.006762 7 5 5
-0.011980 -0.005404 -0.015243 82 79 79
0.078957 0.052874 0.204135 28 22 20
565.742737 -232.809402 -1056.442383 8 8 8
-0.052728 -0.026412 -0.092743 11 9 9
0.047944 0.060905 0.200169 28 25 24
597.318359 -254.074203 -1098.282715 12 10 11
0.045467 0.045895 0.179682 16 13 13
36.281746 -19.342331 -82.826958 41 37 36
0.472968 0.111904 0.373865 39 35 33
-0.010980 -0.003325 -0.008570 14 12 13
0.042299 0.047234 0.183693 14 11 11
0.945470 0.206190 0.643486 47 46 46
-0.008559 -0.002905 -0.006829 49 47 47
816.166748 -317.501190 -1392.954834 12 9 9
0.045454 0.045812 0.179619 15 11 11
0.038602 0.046018 0.188889 11 10 9
1.061046 0.220911 0.684734 12 12 11
0.048729 0.041681 0.177014 20 18 17
0.084741 0.068608 0.254898 19 16 16
283.082733 -115.816780 -528.134949 20 19 19
