ply
format ascii 1.0
element vertex 294
property float x
property float y
property float z
property uchar blue
property uchar green
property uchar red
end_header
-1.106491 -0.422699 1.642647 54 52 53
-0.676207 -0.107415 2.344798 18 15 16
0.970193 -0.386191 2.115133 18 15 13
-1.132179 -0.452741 1.592633 56 54 55
-1.122954 -0.442510 1.609465 57 55 56
1.242220 -0.114896 2.130650 13 10 11
-1.106930 -0.423183 1.641806 56 53 54
0.014473 0.007176 0.021565 51 50 51
-1.094966 -0.402922 1.674915 58 56 57
-1.026708 -0.320212 1.846314 19 16 18
0.881186 -1.470224 1.033306 15 13 13
1.031461 -0.875583 1.565551 31 29 27
-1.105157 -0.421055 1.645429 8 7 7
-0.020628 0.276016 3.138398 10 8 9
-0.184561 0.200359 3.047942 53 51 52
0.789130 -1.461448 1.437532 11 9 7
-0.223561 0.198562 3.022528 13 11 10
-0.866120 -0.146910 2.372507 15 12 12
0.061334 -0.083417 2.286842 23 20 20
-0.613889 0.021875 2.701997 19 16 16
-0.902490 -0.185527 2.290922 17 13 15
-1.111420 -0.430295 1.630475 55 53 53
1.307531 -0.059822 2.245786 46 44 45
0.067566 -0.415907 1.622273 162 158 158
-0.600043 -0.097610 2.361013 81 79 78
-0.458980 0.074835 2.846108 17 15 13
-0.015455 -0.105746 2.276069 28 22 24
0.810984 -1.497154 1.311014 14 11 11
0.818198 -1.516804 1.229658 16 13 12
-1.127117 -0.447415 1.601483 53 52 52
0.011476 0.005489 0.016779 55 54 54
1.298110 -0.106625 2.134866 12 11 9
-1.134496 -0.455873 1.587858 11 11 11
0.033849 0.016224 0.053524 45 43 44
0.514027 0.040382 2.582903 26 22 22
-1.072548 -0.378347 1.722390 51 49 50
-1.124110 -0.444247 1.606826 51 50 50
1.327641 -0.030719 2.130088 15 13 13
1.137236 -0.154811 2.124858 18 16 16
0.439536 -0.605461 2.056475 105 104 104
0.763702 -1.319090 1.876635 12 11 11
-1.123602 -0.444282 1.607079 49 47 48
-0.235369 0.173939 3.015283 15 12 11
0.769551 -1.356321 1.770595 50 48 47
0.775029 -1.357856 1.767603 17 13 12
-1.004871 -0.278701 1.942583 34 32 31
-0.031404 -0.092041 1.718495 134 131 132
0.332088 -0.641092 2.060622 104 102 102
0.150539 -0.392866 1.582539 48 44 43
0.809465 -1.492859 1.328192 16 12 12
0.081960 0.035838 0.150647 25 24 24
-0.553992 -0.217588 0.815346 84 82 82
0.506166 0.135718 2.576678 27 23 23
0.312091 -0.648423 2.062682 44 39 39
0.765985 -1.340119 1.817232 15 14 13
0.814663 -1.509947 1.257857 9 7 7
-0.617297 -0.100642 2.360193 80 77 77
0.452221 -0.602879 2.056705 32 27 25
0.812196 -1.515127 1.234262 43 42 42
0.815552 -1.523453 1.198128 16 14 14
0.810175 -1.481185 1.374837 14 11 10
0.635483 -0.089800 1.886811 67 70 72
-0.569656 -0.231732 0.789017 12 9 10
-0.205663 0.196485 3.034258 15 11 12
0.150166 -0.487642 1.963432 42 37 37
0.582100 0.057633 2.608325 72 69 70
0.447374 -0.564804 2.090029 42 37 35
-1.107187 -0.423484 1.641287 56 54 54
0.526764 0.050267 2.587249 20 16 17
0.880900 -0.939600 1.697852 81 80 80
0.943371 -1.577841 1.081935 12 13 14
1.179142 -0.178322 2.129665 29 27 27
0.764809 -1.320096 1.874999 10 8 8
1.264330 -0.092772 2.131110 13 10 10
0.897276 -1.571297 1.329277 56 58 59
-1.129074 -0.450728 1.596639 12 11 11
1.334570 -0.023348 2.130493 14 10 10
0.924134 -0.934628 1.659908 25 22 20
1.224765 -0.143772 2.131880 50 48 48
0.856034 -1.562187 0.980691 20 18 18
-0.999884 -0.269345 1.966249 15 13 13
0.844353 -1.557695 1.010575 12 11 10
0.833147 -0.952029 1.744494 21 17 16
1.141565 -0.182706 2.127310 19 17 16
-1.142490 -0.464951 1.573524 54 52 52
-0.568704 -0.230753 0.790620 82 80 80
0.034969 0.289125 3.166185 18 14 16
0.474060 -0.018095 2.568468 25 22 21
0.777989 -1.344575 1.808381 8 6 6
-1.115101 -0.430892 1.627711 59 58 58
0.799034 -1.463712 1.435095 18 15 15
0.806763 -1.503650 1.283727 48 48 48
0.812240 -1.516534 1.227967 12 12 10
0.001346 0.000654 0.001910 11 10 11
-0.137499 0.233776 3.074887 52 50 50
0.890389 -1.576706 1.276804 49 51 52
1.325216 0.027195 2.124841 16 14 14
0.890274 -1.595731 1.111827 72 72 72
1.241338 -0.130037 2.131338 49 48 48
0.881874 -1.468916 1.039856 47 46 46
-1.110839 -0.428005 1.633609 58 57 57
-0.103473 0.235202 3.096381 52 51 50
0.789380 -1.461274 1.438778 12 11 9
1.028837 -0.856670 1.562369 18 15 15
0.810371 -1.481140 1.374271 14 11 10
0.025316 0.011908 0.038635 55 54 54
0.030863 0.014258 0.047811 13 10 10
1.313613 -0.057809 2.131309 51 50 51
0.010994 0.005227 0.016042 14 12 12
-0.257226 0.183416 3.000210 17 14 14
0.040279 0.019662 0.065464 52 50 51
1.223497 -0.127835 2.480850 17 15 14
1.274930 -0.092299 2.131936 14 12 12
0.018469 0.008646 0.027508 55 54 53
0.803623 -1.477111 1.386824 12 10 9
-1.096248 -0.411978 1.662190 10 8 9
0.793829 -1.475711 1.388314 15 13 12
-1.071857 -0.379379 1.721324 11 9 10
0.715133 0.066060 1.915929 42 43 43
0.793238 -1.475360 1.389207 16 15 13
1.058062 -0.309885 1.859782 20 17 17
1.032360 -0.299165 2.121260 18 15 13
-1.127585 -0.448304 1.600202 8 6 7
0.774638 -1.358219 1.767957 17 13 12
0.809433 -1.492823 1.327970 16 12 12
0.761140 -1.275584 1.998055 18 16 16
0.015592 0.007825 0.023416 51 49 50
-0.466633 -0.125540 1.031547 19 15 16
0.880509 -0.948537 1.699526 67 66 66
0.989015 -0.344062 2.117877 51 51 50
0.175684 -0.482969 1.956625 35 28 29
0.778194 -1.344404 1.809059 11 9 9
1.125697 -0.784627 1.476034 20 18 19
0.013280 0.007193 0.020196 16 14 15
0.481377 0.019376 2.570488 18 15 15
0.025898 0.012065 0.039542 48 46 46
-0.058626 -0.129203 2.272300 30 27 28
0.765195 -1.333610 1.834120 22 21 19
0.120663 -0.213570 2.396869 21 16 16
1.190772 -0.162279 2.129532 17 13 13
-1.008199 -0.284546 1.927814 14 11 12
0.011268 0.005401 0.016455 54 53 53
0.769503 -1.359777 1.758229 17 14 14
-1.096834 -0.412522 1.661165 13 11 12
0.227462 -0.143674 2.455532 19 15 15
-0.649882 -0.102037 2.347680 15 11 12
0.379501 -0.632057 2.058753 96 94 93
0.847158 -1.550355 1.064401 12 10 9
0.793213 -1.475426 1.389292 19 17 16
0.365848 -0.636676 2.060229 100 97 97
0.776984 -1.324556 1.866942 14 12 12
1.264676 -0.092415 2.130460 14 10 11
0.298550 -0.116107 2.490167 22 17 17
0.476144 -0.017647 2.569878 16 13 12
-0.534150 -0.196743 0.855784 83 82 82
0.447218 -0.564953 2.089839 34 30 27
1.266139 -0.098711 2.131098 30 27 27
-1.122802 -0.442342 1.609761 56 54 55
0.014485 0.006781 0.021292 12 8 11
0.073075 0.032798 0.130763 57 55 55
0.808803 -0.977699 1.767764 22 19 16
1.319163 -0.037991 2.130232 13 11 12
-0.030310 0.277549 3.132394 53 51 51
-0.594975 -0.092619 2.351831 18 14 14
0.363839 -0.629888 2.059938 102 100 100
-0.187476 0.212277 3.045636 19 17 17
1.282921 -0.127177 2.134642 20 17 17
-0.544908 0.057525 2.770207 23 21 20
0.799766 -1.463429 1.434862 17 14 14
-0.626712 -0.098801 2.353152 16 13 13
0.730815 -0.091622 1.917480 56 57 58
-0.251320 0.166697 3.005537 19 16 16
1.225287 -0.130692 2.130543 16 13 13
0.018142 0.008716 0.027165 7 5 5
-1.088719 -0.400958 1.681143 53 51 51
-0.004832 0.292821 3.144056 12 10 10
1.373054 -0.028479 2.133585 11 10 9
0.810882 -1.502980 1.286740 43 42 43
0.803375 -1.484363 1.360131 47 45 46
-0.657502 -0.022961 2.650024 16 13 12
0.038519 0.018757 0.062175 10 8 9
0.972761 -0.389332 2.115654 14 11 9
0.795152 -1.480249 1.371570 19 17 16
0.762398 -1.293345 1.949795 14 12 12
-0.220766 0.180205 3.025958 24 20 19
1.398650 -0.010303 2.135052 23 22 23
-0.547805 -0.209871 0.834470 17 13 14
0.001121 0.000568 0.001607 11 9 10
0.893549 -0.929202 1.686516 19 15 15
0.813376 -1.516633 1.226680 14 14 13
0.059418 0.026768 0.101229 13 11 12
-1.113262 -0.427787 1.632539 11 10 11
0.810071 -1.481228 1.374738 17 15 14
0.798168 -1.457585 1.455473 22 19 18
0.423620 -0.599755 2.056468 25 20 20
0.003868 0.001857 0.005517 54 53 53
-1.088177 -0.403664 1.677982 57 56 56
0.777170 -1.323985 1.867339 13 12 11
-0.565978 -0.228308 0.795058 80 78 78
1.319496 -0.038959 2.130321 14 12 12
0.777968 -1.330873 1.847268 19 16 16
0.409028 -0.618370 2.059111 104 102 102
0.912374 -0.419841 2.108640 49 47 46
0.679159 0.150590 2.636079 19 17 18
0.824290 -1.524743 1.194558 16 14 13
0.832718 -0.952307 1.744225 19 15 14
0.807831 -1.488908 1.343085 17 12 11
0.682234 0.148487 2.638731 17 15 15
0.890580 -0.948328 1.690876 18 14 11
0.774177 -1.267597 2.026192 13 11 11
-1.074756 -0.383236 1.714053 11 9 9
-1.139162 -0.461281 1.579326 51 50 50
0.001087 0.000507 0.001526 9 6 8
-1.095033 -0.406692 1.669792 52 51 51
0.893238 -0.929100 1.685957 21 17 17
0.464107 -0.597653 2.056038 31 27 25
-0.213287 0.198628 3.029411 54 53 53
-1.127288 -0.447588 1.601180 50 48 48
0.871885 -1.572956 0.867154 12 12 12
-1.119865 -0.437036 1.617654 55 53 54
-1.133665 -0.455679 1.588556 13 11 12
0.524445 0.037817 2.586749 76 74 74
1.234358 -0.149387 2.132474 16 13 12
0.792949 -1.469773 1.409940 48 47 48
0.001151 0.000536 0.001616 14 11 12
-1.123881 -0.445133 1.605947 17 15 16
0.364030 -0.629105 2.059302 107 104 105
1.142017 -0.183136 2.126623 18 16 15
1.327057 -0.030390 2.130821 15 13 13
1.021467 -0.864021 1.569193 21 18 18
0.821450 -1.518952 1.220318 15 12 12
0.483469 0.016236 2.571803 16 13 13
-1.105195 -0.421106 1.645354 11 9 10
0.774937 -1.358910 1.766100 19 15 15
0.686431 -1.395722 1.613193 16 12 13
-0.614767 -0.097354 2.354422 82 80 80
0.319179 -0.659797 2.061502 43 38 35
0.005290 0.002748 0.007735 19 18 19
-1.092214 -0.405915 1.672518 11 9 10
0.766359 -1.340166 1.818391 14 13 12
0.797904 -1.457795 1.455218 19 16 16
0.815470 -1.507022 1.271640 14 13 13
1.134984 -0.201235 2.402770 16 12 11
0.989670 -0.870963 1.595333 33 29 28
-1.058931 -0.355227 1.765832 54 52 53
-0.439153 -0.066697 1.581707 64 60 60
0.776709 -1.323588 1.867362 14 12 11
-0.516774 -0.179565 0.892807 89 86 87
0.777973 -1.344293 1.807785 10 8 8
0.012459 0.005849 0.018198 58 56 57
0.818197 -1.516785 1.230343 20 18 16
0.763840 -1.319265 1.875707 12 11 11
-0.557328 -0.220352 0.810038 15 12 13
0.806549 -1.507758 1.265522 27 26 24
0.023193 -0.102803 2.285027 24 20 20
0.010993 0.005214 0.016020 12 10 10
0.083807 -0.418860 1.619675 41 36 34
0.897593 -1.571587 1.328404 56 59 60
0.101885 -0.248192 2.383090 32 29 27
-0.462608 0.082534 2.843049 50 48 48
0.905009 -0.938435 1.676436 69 68 69
0.884570 -1.473553 1.021674 48 47 48
0.954840 -1.567857 1.420156 59 59 59
-0.565809 -0.228161 0.795337 82 80 80
1.131715 -0.191132 2.126872 18 14 13
0.778455 -1.344284 1.808810 13 11 10
0.813145 -1.519211 1.215535 20 18 16
-0.540625 -0.204364 0.841084 82 79 79
0.252943 -0.133735 2.469069 28 22 20
0.404855 -0.597768 2.056766 34 29 28
0.063175 0.029426 0.110170 11 9 9
0.879076 -0.940170 1.700690 72 70 71
0.765789 -1.340019 1.816260 10 9 8
0.797082 -1.457511 1.455076 28 25 24
0.515778 0.141718 2.579916 28 25 24
0.805284 -1.490388 1.334955 43 42 42
0.813434 -1.516749 1.226976 13 13 12
1.231574 -0.124608 2.130740 16 13 13
0.807774 -1.488810 1.343090 17 12 12
0.817633 -0.974705 1.758519 39 35 33
0.772047 -1.305736 1.917618 49 46 47
-0.996275 -0.271681 1.964717 14 12 13
1.264035 -0.092819 2.130048 14 11 11
0.801595 -1.490951 1.332882 47 46 46
-1.092963 -0.409322 1.667613 49 47 47
0.762505 -1.292799 1.950943 12 10 9
1.231696 -0.125326 2.130940 15 11 11
1.315267 -0.090036 2.135052 11 10 9
0.813307 -1.516907 1.226504 12 12 11
0.793185 -1.475721 1.389018 15 13 12
-0.075309 0.264129 3.108827 11 8 8
1.215133 -0.191341 2.132911 20 18 17
-0.444662 0.088090 2.858092 19 16 16
0.765835 -1.340778 1.815111 14 13 12
