ply
format ascii 1.0
element vertex 368
property float x
property float y
property float z
property uchar blue
property uchar green
property uchar red
end_header
-0.025355 0.192579 0.021134 54 52 53
-202.017197 59.348717 -239.554977 18 15 16
23744.312500 25492.271484 239.832489 18 15 13
-0.066015 0.361543 -0.175527 56 54 55
-0.054190 0.256639 -0.051396 57 55 56
83801.492188 -193232.531250 6711.916504 13 10 11
-0.029347 0.264443 -0.064521 56 53 54
-0.000000 0.206974 -0.000000 51 50 51
-0.100820 0.182307 0.044886 9 6 8
0.015416 0.543625 -0.406375 58 56 57
0.092806 0.157508 0.045326 19 16 18
-28992560.000000 334792384.000000 82299536.000000 28 25 23
-157488624.000000 753624640.000000 50489176.000000 10 8 8
-158905360.000000 759256768.000000 50567412.000000 9 8 8
-0.013598 0.469369 -0.312868 52 50 51
-37380176.000000 333448736.000000 91448512.000000 28 26 25
9301590.000000 -44993056.000000 20647656.000000 31 29 27
-120222008.000000 718619904.000000 58811080.000000 22 20 19
-0.027309 0.263052 -0.063160 8 7 7
-139076960.000000 635501824.000000 139568480.000000 19 16 16
-238.045624 83.286835 -199.382492 10 8 9
-41850400.000000 313892352.000000 64531636.000000 21 20 19
-767.780212 266.602631 -874.573608 53 51 52
-143099504.000000 728697856.000000 48296884.000000 15 12 12
0.116561 -8.668324 -4.295615 13 11 10
-211.627182 -15.974881 -565.095642 15 12 12
-52123976.000000 459525504.000000 91070992.000000 18 15 14
-2947.049316 -35118.230469 25578.794922 23 20 20
-291.532379 35.028259 -494.939697 19 16 16
0.086960 0.020920 0.210070 22 18 20
-0.045049 0.203417 0.011106 55 53 53
115027.023438 -229097.890625 -22563.847656 46 44 45
-15301256.000000 244560160.000000 4747487.500000 13 10 11
159000.656250 202515824.000000 -57115208.000000 25 19 19
9526104.000000 -12102280.000000 16804452.000000 162 158 158
-112.524940 38.526649 -103.235657 81 79 78
-123749272.000000 738544640.000000 55545068.000000 12 11 12
-315.092987 75.616707 -465.615845 17 15 13
27661.003906 -64329.636719 1849.105103 28 22 24
56312340.000000 -52967308.000000 95389984.000000 14 11 11
47081188.000000 -61065780.000000 82652664.000000 16 13 12
-0.060315 0.251355 -0.044127 53 52 52
0.000000 0.206972 0.000000 55 54 54
58990.996094 -173311.390625 37667.058594 12 11 9
0.000000 0.206979 0.000000 45 43 44
-133099664.000000 731620224.000000 -5785212.500000 20 18 18
45899.515625 -99801.320312 -1298.907959 26 22 22
21063724.000000 -15467191.000000 33387080.000000 102 100 100
0.031025 0.283611 -0.096662 51 49 50
-0.057083 0.220841 -0.007989 51 50 50
-2621.204834 -115374.085938 64794.855469 15 13 13
111640.101562 -197365.000000 -59316.722656 18 16 16
16643514.000000 -19352272.000000 26907154.000000 105 104 104
-7422978.000000 320698688.000000 35937280.000000 68 67 68
-0.056380 0.140912 0.087849 49 47 48
0.359261 -4.117711 -14.086540 15 12 11
-150379888.000000 744130240.000000 49473384.000000 17 15 15
-29021576.000000 334482432.000000 82615320.000000 20 17 15
-63741956.000000 513004640.000000 -143169280.000000 18 15 16
0.168027 0.264745 -0.094761 34 32 31
-41646.386719 60700.003906 10019.102539 134 131 132
4165727.750000 -17531422.000000 8851069.000000 48 44 43
0.000000 0.206983 0.000000 25 24 24
-0.027217 0.159847 0.060697 84 82 82
32678.187500 -97706.601562 -41806.207031 27 23 23
82092048.000000 83326784.000000 141994560.000000 15 14 13
-41.196041 9.200276 -21.663532 80 77 77
16144598.000000 -19764536.000000 25681822.000000 32 27 25
50097800.000000 -57456516.000000 80625368.000000 43 42 42
-25107602.000000 404447136.000000 71802864.000000 18 17 16
-15710117.000000 289298848.000000 42377988.000000 26 23 21
-54321.117188 114658.562500 -116935.937500 67 70 72
-0.041084 0.208424 0.004481 12 9 10
-541.755127 179.399231 -617.808044 15 11 12
5123270.000000 -21453388.000000 14515148.000000 42 37 37
-31511506.000000 297843840.000000 19867706.000000 70 70 71
-23597884.000000 402673152.000000 68177144.000000 20 19 19
-88563144.000000 671880320.000000 -30491406.000000 46 46 48
35725.671875 -94922.007812 14915.445312 72 69 70
31643546.000000 -2584663.500000 50240124.000000 42 37 35
-0.025746 0.191497 0.022491 56 54 54
-141084704.000000 723700416.000000 40809408.000000 48 48 49
-130701776.000000 719193856.000000 7344594.500000 41 39 40
-149087952.000000 740856000.000000 49313264.000000 14 12 13
41272.171875 -96276.054688 2928.596924 20 16 17
-74803424.000000 752123520.000000 35441604.000000 13 12 12
26988250.000000 -27394674.000000 45159336.000000 81 80 80
-129538400.000000 718025280.000000 4177335.500000 49 47 49
55205142528.000000 -492062605312.000000 58413973504.000000 12 13 14
-138734560.000000 722358528.000000 33819864.000000 20 17 17
-161567.265625 241157.203125 39402.671875 29 27 27
-28029276.000000 389701952.000000 88070352.000000 26 21 20
109789400.000000 27606966.000000 157683968.000000 10 8 8
63106.957031 -174432.953125 22921.396484 13 10 10
5138471936.000000 -35332038656.000000 3619712768.000000 56 58 59
-0.064399 0.097888 0.140710 12 11 11
-10564.102539 -108158.101562 69436.648438 14 10 10
-151969968.000000 742012800.000000 49809868.000000 12 9 9
-10896354.000000 379485088.000000 72249728.000000 15 15 14
103029.476562 -209452.906250 -12620.526367 50 48 48
12348307.000000 -93778792.000000 42655488.000000 20 18 18
0.182104 0.264914 -0.097096 15 13 13
0.000000 0.206969 0.000000 9 8 8
20454324.000000 -87863288.000000 43892548.000000 12 11 10
-149208864.000000 741287552.000000 49326080.000000 10 9 9
135922.609375 -226626.875000 -34410.191406 19 17 16
-0.081350 0.242906 -0.030803 54 52 52
-141424288.000000 734215552.000000 14720385.000000 47 47 48
-0.037824 0.169405 0.050828 82 80 80
-242.434326 91.850166 -191.391602 18 14 16
64291.062500 -113340.226562 -17089.404297 25 22 21
-0.032118 0.444214 -0.279878 59 58 58
55822288.000000 -51703420.000000 87964640.000000 48 48 48
49532148.000000 -57904764.000000 79298816.000000 12 12 10
0.000000 0.206966 0.000000 11 10 11
-37.726418 7.485592 -19.441851 52 50 50
-37897474048.000000 256116359168.000000 -20943292416.000000 49 51 52
-22032362.000000 313760160.000000 52418996.000000 17 15 13
-27731.769531 -97758.867188 69004.382812 16 14 14
28371943424.000000 -215393452032.000000 18524370944.000000 72 72 72
-162149520.000000 745988352.000000 53689676.000000 13 12 12
89656.984375 -197150.484375 4828.288574 49 48 48
-106618680.000000 618420096.000000 46437608.000000 16 16 16
-11728032.000000 168604480.000000 7442059.500000 95 93 95
-0.035862 0.261443 -0.059935 58 57 57
-186.477356 60.540070 -169.605301 52 51 50
-143759664.000000 741812160.000000 5657741.000000 10 9 9
-31987934.000000 271322080.000000 102912448.000000 24 21 21
0.000000 0.206977 0.000000 55 54 54
0.000000 0.206978 0.000000 13 10 10
19758.722656 -135057.125000 53825.312500 51 50 51
-25910776.000000 171052128.000000 71021768.000000 26 21 20
0.000000 0.206972 0.000000 14 12 12
-424.048584 126.728065 -496.094147 17 14 14
-0.000000 0.206980 -0.000000 52 50 51
-9494152.000000 226883136.000000 -9963216.000000 33 29 27
-158320544.000000 783897920.000000 104208544.000000 14 12 13
-0.100258 0.183098 0.043851 12 9 11
35055.738281 83284.906250 4240.422852 17 15 14
59713.824219 -172381.156250 28092.511719 14 12 12
-158998416.000000 757454272.000000 50639416.000000 15 14 14
0.000000 0.206975 0.000000 55 54 53
65821396.000000 -45464300.000000 105795760.000000 12 10 9
-0.020791 0.206759 0.003422 10 8 9
69639600.000000 -35917984.000000 100997168.000000 15 13 12
-14816585.000000 289484928.000000 42806596.000000 29 27 24
0.024755 0.221527 -0.021198 11 9 10
350.463104 -254.471802 565.846436 42 43 43
-0.092171 0.177491 0.049358 10 9 10
49084.691406 -145707.937500 24124.962891 20 17 17
-145726832.000000 731644160.000000 48808796.000000 11 10 10
-30482044.000000 211115152.000000 48731228.000000 20 17 16
-20513.441406 129228.593750 14288.252930 18 15 13
-0.059394 0.175245 0.047093 8 6 7
-0.000000 0.206975 -0.000000 49 47 47
95915976.000000 97261040.000000 157594608.000000 18 16 16
-0.000000 0.206974 -0.000000 51 49 50
0.079024 0.235209 -0.045839 19 15 16
27998924.000000 -25821684.000000 44071372.000000 67 66 66
-19222280.000000 276809920.000000 12831685.000000 62 61 62
-157409968.000000 754779584.000000 50444068.000000 10 7 7
153023.937500 -149735.156250 -29290.732422 51 51 50
-22452012.000000 316610112.000000 53959024.000000 20 18 16
-143128848.000000 728710272.000000 48299280.000000 15 12 12
14158734.000000 -6404960.500000 20857490.000000 35 28 29
-2169363.500000 237942192.000000 -34857992.000000 26 19 19
29765058.000000 -28769720.000000 34480552.000000 20 18 19
-0.000000 0.206973 -0.000000 16 14 15
-91584.960938 125548.585938 21016.253906 18 15 15
-10377365.000000 162822160.000000 2932372.250000 26 21 21
0.000000 0.206977 0.000000 48 46 46
-53065.027344 78430.710938 12695.401367 30 27 28
-32070254.000000 399621600.000000 97681488.000000 17 15 14
-27942280.000000 389945888.000000 88071808.000000 23 19 18
11177.805664 102337.695312 7986.195312 21 16 16
-54117708.000000 464383936.000000 90213880.000000 19 16 16
-171539.750000 243909.593750 40714.921875 17 13 13
0.153852 0.225104 -0.045044 14 11 12
-145645040.000000 731598720.000000 48795752.000000 8 7 7
0.000000 0.206972 0.000000 54 53 53
-41784928.000000 313939360.000000 64498660.000000 24 23 22
83883592.000000 59034520.000000 139818688.000000 17 14 14
-149126384.000000 740952448.000000 49317600.000000 13 11 11
-57840140.000000 474151776.000000 88418248.000000 19 16 16
-0.018966 0.170974 0.046099 13 11 12
-157469520.000000 756283584.000000 50407160.000000 13 10 11
70715.359375 -59736.847656 -12923.010742 19 15 15
-318.753265 103.690880 -359.336792 15 11 12
20790050.000000 -15001809.000000 31435806.000000 96 94 93
19299964.000000 -8242804.500000 30916422.000000 100 97 97
-8446575.000000 240077184.000000 -3953768.250000 37 35 33
62926.742188 -174550.015625 22988.111328 14 10 11
-23921576.000000 390964768.000000 75115072.000000 75 73 73
-61958200.000000 562929920.000000 30483108.000000 11 11 12
80616.429688 -96572.492188 -17291.263672 22 17 17
-12716797.000000 264603504.000000 15622999.000000 70 69 71
-9680606.000000 179713936.000000 15287742.000000 23 18 18
-93504.382812 141303.093750 22662.060547 16 13 12
-142183840.000000 733549824.000000 17248578.000000 46 46 46
-0.000164 0.205330 0.002009 83 82 82
31582142.000000 -1808771.875000 50130448.000000 34 30 27
65828.890625 -177033.093750 22359.855469 30 27 27
-0.053664 0.254925 -0.049418 56 54 55
-161788512.000000 745017344.000000 53585408.000000 13 11 11
0.000000 0.206974 0.000000 12 8 11
-10246570.000000 93574432.000000 20139626.000000 46 40 39
-61997524.000000 561562752.000000 30532136.000000 12 11 12
0.000000 0.206982 0.000000 57 55 55
28483078.000000 1931591.875000 51564736.000000 22 19 16
6715.828613 -124069.054688 59139.503906 13 11 12
-224.349823 75.177811 -184.054764 53 51 51
-106.436188 33.783928 -87.486450 18 14 14
-148279712.000000 735350400.000000 49258024.000000 18 16 16
-174439856.000000 740236544.000000 54076584.000000 14 12 13
-0.062957 0.180407 0.041436 11 11 11
0.028735 -6.590134 0.813170 19 17 17
65987.382812 -173088.687500 31826.166016 20 17 17
-309.148682 50.098965 -482.142273 23 21 20
-0.219053 -1.169636 0.167398 16 13 13
358.343811 -143.672897 187.928558 56 57 58
-398.480316 128.259201 -475.970581 19 16 16
96696.679688 -203912.359375 -9758.412109 16 13 13
0.000000 0.206975 0.000000 7 5 5
-0.001297 0.214560 -0.008892 53 51 51
-65.103355 20.330099 -44.926785 26 22 24
-132614104.000000 731189248.000000 -7117058.000000 15 14 14
-37300.593750 -79543.625000 91812.992188 11 10 9
54518552.000000 -53965796.000000 90644792.000000 43 42 43
-264.575348 34.474941 -501.014526 16 13 12
-0.000000 0.206979 -0.000000 10 8 9
27454.658203 108829.640625 7342.363281 14 11 9
67723232.000000 -38203600.000000 98787992.000000 19 17 16
-133042304.000000 731530240.000000 -5881466.500000 16 15 15
-445.436462 147.877182 -518.000305 24 20 19
-64310.925781 -54302.644531 107133.906250 23 22 23
0.048950 0.222722 -0.026303 17 13 14
-0.000000 0.206965 -0.000000 11 9 10
-19886346.000000 163795504.000000 48731196.000000 60 55 55
-32245384.000000 399792000.000000 97619232.000000 14 12 11
0.000000 0.206981 0.000000 13 11 12
-35578356.000000 409485664.000000 75225040.000000 24 20 21
-0.025958 0.542804 -0.399143 11 10 11
56795732.000000 7193726.500000 105128992.000000 22 19 18
16618341.000000 -19634062.000000 29190708.000000 25 20 20
0.000000 0.206968 0.000000 54 53 53
-0.011497 0.124986 0.100167 57 56 56
-23500176.000000 402732864.000000 67780880.000000 16 15 15
-145650608.000000 731641280.000000 48798144.000000 9 7 8
-6343251.000000 241998496.000000 -7690930.000000 23 19 18
-0.040596 0.198248 0.016624 80 78 78
7092.241211 -124354.820312 59110.335938 14 12 12
-148220672.000000 735311296.000000 49247532.000000 12 10 11
18621262.000000 -17203824.000000 29227272.000000 104 102 102
58927.445312 79073.023438 1314.569214 49 47 46
-172021168.000000 602983680.000000 -91820680.000000 17 16 15
-24725.437500 -36169.953125 45481.875000 19 17 18
41676784.000000 -66391068.000000 78215976.000000 16 14 13
-16659.023438 -23825.951172 30633.835938 23 20 21
0.020071 0.203027 0.001715 11 9 9
-0.073246 0.170319 0.055103 51 50 50
0.000000 0.206965 0.000000 9 6 8
-162237760.000000 746105984.000000 53709520.000000 11 11 11
0.000128 0.203415 0.004269 52 51 51
-20221172.000000 224568016.000000 26855514.000000 23 19 19
0.000000 0.206962 0.000000 15 14 14
-133426120.000000 731772672.000000 -4646154.000000 17 15 15
-60572012.000000 552388160.000000 29982462.000000 12 12 13
-516.785339 166.544937 -588.019287 54 53 53
-0.060759 0.255169 -0.048638 50 48 48
-1850225.625000 -108622456.000000 17437594.000000 12 12 12
-10234889.000000 162474128.000000 2595352.250000 26 21 21
-0.034165 0.303523 -0.110700 55 53 54
-10874622.000000 226641520.000000 -9103750.000000 24 20 19
-158964816.000000 758774592.000000 50588420.000000 9 8 9
-31373354.000000 276519648.000000 101441520.000000 23 19 20
-152377152.000000 749722112.000000 49698472.000000 18 18 18
-32185840.000000 399632096.000000 97547760.000000 13 10 10
-0.068644 0.091525 0.148991 13 11 12
44600.347656 -98250.585938 2674.979736 76 74 74
98995.695312 -203778.968750 -606.294739 16 13 12
-15111505.000000 289398400.000000 42711640.000000 24 21 18
0.000000 0.206974 0.000000 49 48 48
0.000000 0.206965 0.000000 14 11 12
-0.058268 0.094846 0.143432 17 15 16
-25729134.000000 411647648.000000 66974388.000000 32 30 28
21082758.000000 -15476849.000000 33512938.000000 107 104 105
135584.812500 -226387.171875 -34352.605469 18 16 15
-2158.667725 -115776.070312 64534.875000 15 13 13
-5483710.500000 159447968.000000 -3087239.000000 26 22 18
29413124.000000 -22473744.000000 37896612.000000 21 18 18
-70393136.000000 533579008.000000 -115679488.000000 15 13 13
-94442.109375 130258.679688 21745.021484 16 13 13
-0.121360 0.444401 -0.266623 57 55 56
-0.023689 0.192575 0.020886 11 9 10
-31981100.000000 399558176.000000 97591800.000000 14 11 11
-85068688.000000 678352512.000000 -28923518.000000 37 37 39
-35994804.000000 413950752.000000 97880056.000000 25 22 21
-50.490395 9.906251 -27.258024 82 80 80
-140664784.000000 738915264.000000 4464528.500000 10 8 8
19013550.000000 769033.250000 34085056.000000 43 38 35
-22667808.000000 414273760.000000 77422520.000000 20 18 18
-134234272.000000 732171456.000000 -2262449.250000 12 10 10
-0.000000 0.206969 -0.000000 19 18 19
-133688960.000000 738478464.000000 55529128.000000 13 12 13
-0.009656 0.230219 -0.026423 11 9 10
-60517212.000000 549481088.000000 30048054.000000 12 12 13
-100326952.000000 613800960.000000 -15603680.000000 24 22 21
-28403278.000000 402880832.000000 103731768.000000 70 67 69
51387256.000000 -57331644.000000 89893688.000000 14 13 13
-23709752.000000 404724512.000000 111365520.000000 18 15 15
49624.265625 80360.140625 2423.115723 16 12 11
-28916468.000000 335577568.000000 81570392.000000 24 21 20
10941472.000000 -42026864.000000 29985100.000000 33 29 28
-149530144.000000 737023424.000000 49463824.000000 11 10 9
0.075142 0.378994 -0.217811 54 52 53
-134.763565 39.906399 -160.292572 64 60 60
-3704606.750000 234191600.000000 -18242156.000000 24 20 20
-24650254.000000 417683456.000000 78513784.000000 17 15 14
0.015162 0.209828 -0.005709 89 86 87
-158934320.000000 759110784.000000 50582224.000000 10 9 10
-74966712.000000 775336960.000000 35578192.000000 11 10 10
0.000000 0.206973 0.000000 58 56 57
-10039515.000000 156282112.000000 14063301.000000 126 125 125
107194688.000000 35722296.000000 156133520.000000 12 11 11
-0.028784 0.204593 0.007223 15 12 13
-157363024.000000 755451008.000000 50413956.000000 11 7 8
-177037920.000000 740034880.000000 54368856.000000 46 45 46
19626.136719 -57768.218750 12515.997070 24 20 20
0.000000 0.206972 0.000000 12 10 10
-63641400.000000 292456032.000000 -2849988.000000 66 65 65
-14645318656.000000 98206007296.000000 -6883574784.000000 56 59 60
10131.672852 122841.695312 9939.500977 32 29 27
-320.912720 72.364014 -468.253265 50 48 48
24933496.000000 -28849098.000000 40557868.000000 69 68 69
-151897664.000000 644549248.000000 134653232.000000 10 8 8
-152356672.000000 749480128.000000 49699696.000000 13 12 13
-28965044224.000000 247323148288.000000 -27854436352.000000 59 59 59
-0.040512 0.198398 0.016432 82 80 80
-174369424.000000 740285568.000000 54071944.000000 15 13 15
-158890224.000000 759955456.000000 50545524.000000 9 8 8
-106056.921875 179720.265625 27952.718750 18 14 13
-22916840.000000 143619952.000000 61093860.000000 42 36 35
48305036.000000 -59093432.000000 77115168.000000 20 18 16
-151969568.000000 741999616.000000 49810688.000000 13 10 11
-0.013439 0.219041 -0.012441 82 79 79
7221.075195 48019.558594 3533.518066 28 22 20
-131904456.000000 725188096.000000 1869198.125000 8 8 8
0.000000 0.206982 0.000000 11 9 9
25375.236328 -87911.117188 -7446.171387 28 25 24
91664.710938 -199454.593750 -2266.244873 16 13 13
-15303413.000000 139937520.000000 30265288.000000 36 31 30
-39772568.000000 327230816.000000 97379944.000000 41 37 36
36867764.000000 -9805916.000000 51234764.000000 39 35 33
0.172486 0.262053 -0.092206 14 12 13
63228.925781 -174924.625000 22809.953125 14 11 11
-30983006.000000 281306912.000000 60557004.000000 28 26 26
61954000.000000 -45734744.000000 94960224.000000 47 46 46
-0.018360 0.127718 0.097928 49 47 47
-117525472.000000 655216896.000000 47698568.000000 19 18 18
-157358480.000000 755079744.000000 50423824.000000 12 9 9
92161.601562 -199896.703125 -2713.380859 15 11 11
33541.312500 -145091.765625 51842.746094 11 10 9
48939696.000000 -58606524.000000 79526584.000000 12 12 11
-200.873688 61.956753 -168.882202 11 8 8
119166.218750 -218789.609375 -31924.919922 20 18 17
-323.463593 77.168007 -465.246307 23 19 19
-20506536.000000 187117504.000000 40440212.000000 31 28 26
-130007648.000000 738523904.000000 55546304.000000 10 9 10
