ply
format ascii 1.0
element vertex 364
property float x
property float y
property float z
property uchar blue
property uchar green
property uchar red
end_header
-3.533941 -2.764491 -7.525448 54 52 53
-5.320216 1.997111 -5.932122 18 15 16
-8.456674 4.148117 -2.055982 18 15 13
-3.583969 -3.006590 -7.684378 56 54 55
-3.521413 -2.928565 -7.702757 57 55 56
-8.611717 4.589795 -3.804282 13 10 11
-3.534941 -2.768172 -7.526165 56 53 54
-0.252049 -0.126242 -0.376100 51 50 51
-3.351473 -3.208896 -8.162690 9 6 8
-3.674704 -2.594880 -7.114341 58 56 57
-3.420590 -1.943552 -6.639038 19 16 18
0.620421 12.161817 10.650619 28 25 23
-0.294464 9.243060 16.738867 10 8 8
-0.465247 9.077432 16.750395 9 8 8
-3.662516 -2.733215 -7.294609 52 50 51
0.244736 11.414456 10.856884 28 26 25
-4.901774 7.841523 -0.410771 31 29 27
4.220751 15.012472 16.542419 22 20 19
-3.535895 -2.751848 -7.512197 8 7 7
5.035339 15.993476 16.435211 19 16 16
-7.454358 6.330691 -5.755847 10 8 9
1.918271 13.153684 10.199116 21 20 19
-7.148950 6.437538 -4.996046 53 51 52
1.340821 11.177140 16.958851 15 12 12
-7.233834 6.466956 -4.785837 13 11 10
-5.764768 7.010529 -1.096233 15 12 12
-2.138374 8.424755 11.388840 18 15 14
-6.441003 2.634880 -6.037511 23 20 20
-6.640079 6.771437 -2.722310 19 16 16
-2.809954 -0.854370 -5.466948 17 13 15
-3.456233 -2.831118 -7.709673 55 53 53
-9.096766 4.046762 -4.127443 46 44 45
1.691371 13.098308 10.504713 13 10 11
0.931279 12.301599 10.539639 25 19 19
-4.371094 3.705587 -1.890728 162 158 158
-5.363648 1.718966 -6.669390 81 79 78
1.714984 7.228391 14.119405 12 11 12
-6.648689 6.637800 -3.636535 17 15 13
-6.464396 2.768844 -5.440952 28 22 24
-2.693872 9.539454 4.420229 14 11 11
-2.322956 9.971610 4.064099 16 13 12
-3.515091 -2.969406 -7.749276 53 52 52
-0.225982 -0.108823 -0.330753 55 54 54
-8.561038 4.545755 -4.105111 12 11 9
-3.514341 -3.038754 -7.808993 11 11 11
-0.332291 -0.164050 -0.527330 45 43 44
0.247450 9.616448 15.823230 20 18 18
-7.935927 5.512303 -4.305779 26 22 22
-3.548173 -2.405669 -7.093720 51 49 50
-3.488701 -2.943861 -7.761652 51 50 50
-8.695711 4.632665 -4.387902 15 13 13
-8.674494 4.599963 -3.203151 18 16 16
-5.764342 6.913048 -0.523537 105 104 104
0.779164 11.627314 10.818924 68 67 68
-3.435759 -2.947129 -7.838757 49 47 48
-7.022636 6.467202 -4.760901 15 12 11
0.313449 10.330724 16.893883 17 15 15
0.625114 12.163952 10.666120 20 17 15
5.042390 15.583797 16.851471 18 15 16
-3.397737 -1.645420 -6.108771 34 32 31
-4.884189 2.085638 -3.969882 134 131 132
-4.124975 3.888011 -2.635193 48 44 43
-7.541470 -3.651925 -14.020963 25 24 24
-1.815558 -1.513249 -4.091212 84 82 82
-8.378021 5.644572 -4.324837 27 23 23
-4.758534 6.454141 5.404241 15 14 13
-5.332008 1.798912 -6.493910 80 77 77
-5.725416 6.935743 -0.629590 32 27 25
-2.236362 9.848077 4.067506 43 42 42
-1.786963 8.463520 11.143295 18 17 16
1.007149 11.800639 10.844745 26 23 21
-8.923124 6.356078 -0.569183 67 70 72
-1.837760 -1.614297 -4.131720 12 9 10
-7.165791 6.451161 -4.887758 15 11 12
-5.278790 4.932595 -2.892809 42 37 37
-1.055375 10.525577 6.978050 70 70 71
-1.839267 8.412016 11.004455 20 19 19
4.440193 14.392809 16.763348 46 46 48
-7.897399 5.471976 -4.665844 72 69 70
-7.944579 4.868170 -2.696942 42 37 35
-3.536676 -2.770240 -7.526845 56 54 54
1.272519 11.015718 16.854200 48 48 49
1.389311 10.814362 16.681049 41 39 40
0.473740 10.507923 16.941565 14 12 13
-7.957597 5.517342 -4.378595 20 16 17
7.047458 18.584852 14.255013 13 12 12
-5.524799 6.918202 1.168707 81 80 80
1.324776 10.777361 16.541458 49 47 49
-2.331406 15.815211 6.798949 12 13 14
1.489445 11.078730 17.036804 20 17 17
-8.558209 4.527583 -3.382603 29 27 27
-1.592923 8.951268 11.138839 26 21 20
-5.016453 6.159590 5.427000 10 8 8
-8.633782 4.604334 -3.954362 13 10 10
1.380944 18.840015 13.660234 56 58 59
-3.385159 -3.005031 -7.960211 12 11 11
-8.706560 4.632544 -4.436738 14 10 10
0.383109 10.046667 16.991308 12 9 9
-0.360167 9.171471 14.280582 15 15 14
-8.573789 4.550292 -3.667564 50 48 48
-1.464196 11.415295 2.633443 20 18 18
-3.380602 -1.580295 -6.000872 15 13 13
-1.397910 11.124461 2.799662 12 11 10
0.381694 10.450999 16.780602 10 9 9
-8.609171 4.537788 -3.182752 19 17 16
-3.493683 -3.116601 -7.902190 54 52 52
0.347364 9.644399 16.547548 47 47 48
-1.808704 -1.602316 -4.146398 82 80 80
-7.444740 6.278169 -6.023405 18 14 16
-7.737410 5.475382 -4.065277 25 22 21
-3.642030 -2.821989 -7.419839 59 58 58
-2.421682 9.594606 4.318755 48 48 48
-2.190555 9.884398 4.048301 12 12 10
-0.205793 -0.100107 -0.292104 11 10 11
-7.346963 6.406503 -5.200251 52 50 50
1.425378 18.331810 12.590688 49 51 52
0.665785 11.394446 10.952309 17 15 13
-8.831494 4.719037 -4.478133 16 14 14
1.578326 17.732719 9.947444 72 72 72
-0.468778 5.431822 2.852100 13 12 12
-8.579852 4.561643 -3.773285 49 48 48
6.186284 16.541498 15.984030 16 16 16
-1.865249 9.914752 6.357277 95 93 95
-3.532169 -2.808262 -7.572695 58 57 57
-7.277357 6.375111 -5.375686 52 51 50
-0.336375 8.821060 16.217089 10 9 9
0.391568 11.581286 10.822250 24 21 21
-0.267919 -0.128276 -0.409844 55 54 54
-0.284354 -0.134441 -0.441735 13 10 10
-8.650570 4.608071 -4.267522 51 50 51
-2.454838 9.284384 6.558412 26 21 20
-0.222998 -0.106826 -0.325675 14 12 12
-7.177363 6.497228 -4.623630 17 14 14
-0.415956 -0.211181 -0.679370 52 50 51
1.705100 13.191033 10.138420 33 29 27
2.863499 9.939722 15.912088 14 12 13
-3.351722 -3.206570 -8.158215 12 9 11
-9.900265 2.965678 -3.435703 17 15 14
-8.621826 4.593511 -4.009541 14 12 12
-0.438426 9.043029 16.764753 15 14 14
-0.239677 -0.113602 -0.357522 55 54 53
-3.018976 9.084230 4.676890 12 10 9
-3.477991 -2.677291 -7.522213 10 8 9
-2.851362 8.920387 4.674378 15 13 12
0.939758 11.747384 10.734905 29 27 24
-3.515000 -2.413153 -7.158956 11 9 10
-9.214295 6.568783 -1.205455 42 43 43
-3.516581 -3.176075 -7.999176 10 9 10
-7.216644 5.954026 -2.677080 20 17 17
1.240095 10.938350 17.308908 11 10 10
2.315130 14.560061 9.071380 20 17 16
-8.534800 4.338213 -2.470311 18 15 13
-3.478588 -2.980009 -7.810877 8 6 7
-5.541238 5.519069 5.417037 18 16 16
-0.263840 -0.134072 -0.396838 51 49 50
-4.640645 -2.330644 -8.493820 19 15 16
-5.452373 6.857164 1.176940 67 66 66
1.175346 12.377692 10.681038 62 61 62
-0.433639 9.193156 16.496523 10 7 7
-8.517093 4.241264 -2.199406 51 51 50
0.466593 11.241638 10.606125 20 18 16
1.542555 11.297165 17.324484 15 12 12
-5.204998 4.942228 -3.160793 35 28 29
0.931988 12.297662 10.533713 26 19 19
-4.899066 8.415514 -1.643687 20 18 19
-0.304413 -0.166817 -0.463748 16 14 15
-7.895561 5.508706 -4.122868 18 15 15
-1.870787 10.065412 6.118645 26 21 21
-0.266268 -0.126458 -0.407450 48 46 46
-6.408762 2.841368 -5.079383 30 27 28
-1.815060 8.824063 11.361548 17 15 14
-1.584504 8.950159 11.176852 23 19 18
-7.531742 5.386700 -2.095533 21 16 16
-2.230844 8.388143 11.219613 19 16 16
-8.578227 4.545971 -3.464426 17 13 13
-3.409330 -1.687921 -6.176734 14 11 12
1.221124 10.954252 17.276514 8 7 7
-0.226189 -0.109118 -0.330641 54 53 53
1.942389 13.164197 10.231761 24 23 22
-4.533667 6.789660 5.352248 17 14 14
0.488500 10.516157 16.965302 13 11 11
-2.312943 8.336479 11.044901 19 16 16
-3.479058 -2.682046 -7.520879 13 11 12
-0.316041 9.289235 16.785648 13 10 11
-7.629220 5.451014 -2.700955 19 15 15
-5.382207 1.882658 -6.205075 15 11 12
-5.857801 6.683174 -0.085117 96 94 93
-5.893910 6.630732 0.023212 100 97 97
1.799469 12.831980 10.446497 37 35 33
-8.632312 4.606405 -3.956368 14 10 11
-1.538849 8.823175 11.128767 75 73 73
3.483188 15.965304 7.055718 11 11 12
-7.609738 5.453578 -3.094407 22 17 17
1.011637 12.202281 10.757270 70 69 71
-2.400462 9.305024 6.638162 23 18 18
-7.733876 5.467685 -4.073961 16 13 12
0.625420 9.820061 17.098753 46 46 46
-1.980302 -1.418537 -3.942871 83 82 82
-7.943728 4.869031 -2.695600 34 30 27
-8.618797 4.589594 -3.950871 30 27 27
-3.519989 -2.926488 -7.701060 56 54 55
-0.127559 5.582191 3.278117 13 11 11
-0.227319 -0.107454 -0.334505 12 8 11
-2.793874 7.155271 1.531859 41 35 34
7.942108 19.522110 12.808393 12 11 12
-1.525863 -0.746223 -2.757129 57 55 55
-5.782296 6.239788 1.794084 22 19 16
-8.689061 4.632210 -4.331413 13 11 12
-7.489998 6.340826 -5.705377 53 51 51
-5.473942 1.642245 -6.764212 18 14 14
0.728665 10.484735 16.883883 18 16 16
4.041522 9.433565 15.360471 14 12 13
-5.947292 6.687259 0.068839 102 100 100
-7.270162 6.430370 -4.961337 19 17 17
-8.532277 4.528273 -3.992371 20 17 17
-6.774317 6.709092 -3.118236 23 21 20
-5.395136 1.805823 -6.426923 16 13 13
-8.794607 6.154883 -1.123543 56 57 58
-6.993657 6.476631 -4.682350 19 16 16
-8.599831 4.576612 -3.691743 16 13 13
-0.250260 -0.121766 -0.375354 7 5 5
-3.525072 -2.586363 -7.348269 53 51 51
-5.490281 1.566592 -6.942731 18 16 17
0.342661 9.669603 15.990376 15 14 14
-8.653684 4.573986 -4.626101 11 10 9
-2.544290 9.628335 4.311220 43 42 43
-6.263456 6.795276 -2.523935 16 13 12
-0.392208 -0.198135 -0.635969 10 8 9
-8.445626 4.140123 -2.064822 14 11 9
-2.775682 9.009413 4.613335 19 17 16
0.466509 9.741420 16.236179 16 15 15
-7.047036 6.462290 -4.828453 24 20 19
-8.677759 4.551255 -4.785840 23 22 23
-1.701668 -1.333686 -3.638596 17 13 14
-0.219738 -0.111487 -0.315058 11 9 10
-3.593129 8.381638 4.556995 60 55 55
-1.959923 8.729522 11.084217 14 12 11
-0.583178 -0.279240 -1.000340 13 11 12
0.714275 7.759046 10.242801 24 20 21
-3.674313 -2.793765 -7.342118 11 10 11
-3.333409 8.677653 4.864184 22 19 18
-5.904054 6.918467 -0.398681 25 20 20
-0.208000 -0.100116 -0.296721 54 53 53
-3.438746 -2.605492 -7.503468 57 56 56
-1.842316 8.411250 11.011277 16 15 15
1.188443 10.934793 17.217037 9 7 8
1.004987 12.406262 10.453289 23 19 18
-1.796196 -1.583436 -4.147927 80 78 78
-8.686746 4.629788 -4.331061 14 12 12
0.745001 10.503947 16.910006 12 10 11
-5.807213 6.809146 -0.284197 104 102 102
-8.499897 4.056200 -1.736893 49 47 46
5.163499 15.082071 16.845001 17 16 15
-8.161863 5.480283 -5.229085 19 17 18
-2.215936 10.228306 3.921631 16 14 13
-6.568773 2.591568 -6.182382 23 20 21
-3.514968 -2.443518 -7.195334 11 9 9
-3.470115 -3.089438 -7.914537 51 50 50
-0.192857 -0.089840 -0.270769 9 6 8
-0.216906 5.513499 3.156033 11 11 11
-3.584881 -2.631682 -7.303627 52 51 51
-0.934441 11.555315 4.577797 23 19 19
0.171509 9.578338 15.690539 17 15 15
8.074715 19.689245 12.740508 12 12 13
-7.207085 6.460016 -4.842031 54 53 53
-3.517580 -2.971398 -7.748564 50 48 48
-0.994914 11.887595 1.711600 12 12 12
-1.897578 10.056422 6.079852 26 21 21
-3.636540 -2.872236 -7.478693 55 53 54
1.715360 13.326484 10.120632 24 20 19
-0.226950 9.198559 17.221357 9 8 9
0.392218 11.588758 10.848811 23 19 20
0.101637 10.069798 16.900221 18 18 18
-1.901215 8.770479 11.181918 13 10 10
-3.374641 -3.045225 -8.003023 13 11 12
-7.901474 5.505328 -4.358384 76 74 74
-8.546460 4.533880 -3.707616 16 13 12
0.925170 11.737820 10.701974 24 21 18
-0.192817 -0.089745 -0.270748 14 11 12
-3.388779 -2.955843 -7.914334 17 15 16
-1.952500 8.273309 11.000850 32 30 28
-5.970150 6.671860 0.043651 107 104 105
-8.604547 4.540403 -3.184667 18 16 15
-8.699206 4.631831 -4.385979 15 13 13
-1.711507 9.879300 6.144180 26 22 18
-5.056242 7.873641 -0.335570 21 18 18
4.855977 15.429418 16.535803 15 13 13
-7.877136 5.512871 -4.132991 16 13 13
-3.593944 -3.329436 -7.932549 57 55 56
-3.535457 -2.752009 -7.512364 11 9 10
-1.925062 8.728313 11.127061 14 11 11
4.399423 14.330997 16.679449 37 37 39
-2.219669 8.449739 11.029613 25 22 21
-5.404000 1.752506 -6.546476 82 80 80
0.100616 9.257930 16.477514 10 8 8
-5.956326 6.413556 0.347198 43 38 35
-2.675772 7.474781 10.826138 20 18 18
0.412922 9.723907 16.150120 12 10 10
-0.242288 -0.126329 -0.354508 19 18 19
1.788410 7.272156 14.245253 13 12 13
-3.508495 -2.626555 -7.416150 11 9 10
8.087791 19.697681 12.750998 12 12 13
4.875497 14.694244 17.028057 24 22 21
-2.498733 7.947538 11.113539 70 67 69
-2.537486 9.764465 4.253991 14 13 13
-3.176591 7.308870 10.981431 18 15 15
-9.636184 3.169296 -2.976112 16 12 11
0.583333 12.133812 10.594628 24 21 20
-5.226999 7.775886 0.035412 33 29 28
0.635335 10.329834 16.938854 11 10 9
-3.584570 -2.226274 -6.779945 54 52 53
-3.646237 1.282802 -4.131481 64 60 60
1.078162 12.466548 10.574551 24 20 20
-2.644324 7.503402 10.905890 17 15 14
-1.989278 -1.315272 -3.901393 89 86 87
-0.717921 8.921223 16.239260 10 9 10
7.017721 18.560165 14.203638 11 10 10
-0.221544 -0.104706 -0.323932 58 56 57
-3.435992 8.562997 4.467039 126 125 125
-5.019557 6.142055 5.419837 12 11 11
-1.866822 -1.541612 -4.066289 15 12 13
-0.395617 9.239364 16.588358 11 7 8
3.477943 9.085107 14.959065 46 45 46
-6.405678 2.704828 -5.718120 24 20 20
-0.222020 -0.106064 -0.323809 12 10 10
-1.152096 10.355700 7.065799 66 65 65
1.388194 18.868244 13.674435 56 59 60
-7.400735 5.331166 -1.985535 32 29 27
-6.749205 6.640568 -3.599172 50 48 48
-5.355327 7.032855 0.934120 69 68 69
4.636641 15.013247 17.106161 10 8 8
0.087420 10.059748 16.850885 13 12 13
0.484358 21.718655 16.682081 59 59 59
-1.797475 -1.582996 -4.146911 82 80 80
3.948832 9.386914 15.200703 15 13 15
-0.566062 9.034358 16.570545 9 8 8
-8.605969 4.526846 -3.120095 18 14 13
-3.235132 9.191779 3.955642 42 36 35
-2.133683 9.939301 3.980393 20 18 16
0.259711 9.973246 16.748487 13 10 11
-1.897149 -1.441740 -3.987081 82 79 79
-7.619494 5.462907 -2.842580 28 22 20
0.895376 10.283431 16.328741 8 8 8
-0.911653 -0.456596 -1.603323 11 9 9
-8.388695 5.642910 -4.379639 28 25 24
-8.605275 4.581312 -3.733728 16 13 13
-2.674225 9.416130 3.551695 36 31 30
0.235634 11.364915 10.801957 41 37 36
-5.715733 6.330367 1.730448 39 35 33
-3.339705 -1.583330 -6.098965 14 12 13
-8.630301 4.609094 -3.953089 14 11 11
2.046453 13.288628 9.925069 28 26 26
-2.647695 9.288168 4.489882 47 46 46
-3.440052 -2.654144 -7.556097 49 47 47
6.163323 16.440956 16.224182 19 18 18
-0.263986 9.305421 16.836287 12 9 9
-8.604725 4.577898 -3.732393 15 11 11
-8.579073 4.551972 -4.220615 11 10 9
-2.203722 9.910786 4.045371 12 12 11
-7.474256 6.360666 -5.487280 11 8 8
-8.478189 4.473928 -3.543262 20 18 17
-6.748449 6.619108 -3.700388 19 16 16
-1.403554 10.301801 5.881225 31 28 26
1.678908 7.213955 14.064796 10 9 10
