ply
format ascii 1.0
element vertex 245
property float x
property float y
property float z
property uchar blue
property uchar green
property uchar red
end_header
2.083092 -0.133998 -0.994453 50 48 48
0.363148 0.092902 -0.453781 54 52 53
0.019114 0.112489 -0.103896 15 13 13
2.106455 -0.122501 -1.000364 51 50 51
2.033908 -0.173305 -0.984714 18 15 13
0.299395 0.098194 -0.372172 56 54 55
2.076473 -0.139392 -0.993830 14 11 11
1.499053 0.195578 -0.379869 16 14 14
3.313544 -1.220308 -1.744763 8 7 7
3.292555 -1.221556 -1.740104 10 9 9
0.291075 0.100001 -0.359103 57 55 56
0.359058 0.093075 -0.448941 11 9 10
2.089727 -0.133678 -0.998108 13 10 11
3.270736 -1.232229 -1.745840 12 9 9
0.361322 0.093120 -0.450424 56 53 54
2.110536 -0.124036 -1.003604 13 11 12
1.456760 0.190137 -0.417683 53 51 51
1.021595 0.139065 -0.570597 18 14 14
3.304850 -1.222640 -1.745364 18 16 16
2.951994 -1.010270 -1.432711 14 11 11
2.038092 -0.162336 -0.982193 17 14 11
2.071692 -0.153678 -0.999216 19 17 16
2.943249 -1.011308 -1.430093 25 22 21
0.024007 0.127201 -0.044662 58 56 57
1.489673 0.192137 -0.408081 19 17 17
2.090946 -0.119473 -0.989773 20 17 17
0.482694 0.089165 -0.599311 54 52 52
1.013374 0.139259 -0.552794 82 80 80
3.295360 -1.233030 -1.756088 10 8 8
2.686382 -0.811164 -1.173876 18 16 14
0.259849 0.092262 -0.362511 19 16 18
2.037350 -0.168124 -0.984775 53 52 52
3.311718 -1.228473 -1.755354 12 10 10
1.441793 0.189354 -0.428607 18 14 16
2.112765 -0.122868 -1.004039 15 13 13
0.380753 0.091136 -0.479340 11 9 10
1.000382 0.139620 -0.530295 16 13 13
3.271760 -1.232674 -1.746828 10 8 8
3.264640 -1.234315 -1.745824 9 8 8
1.502738 0.192689 -0.412671 19 16 16
2.076508 -0.130057 -0.992530 16 13 12
1.479095 0.191474 -0.410696 52 50 50
0.093098 0.118690 -0.121885 52 50 51
3.033357 -1.011116 -1.454348 28 26 25
2.122121 -0.132349 -1.015700 16 14 14
0.337043 0.093097 -0.428928 53 51 51
0.384724 0.090103 -0.489171 11 10 11
3.388703 -1.202211 -1.725628 22 20 19
0.358764 0.093115 -0.448335 8 7 7
3.403118 -1.200279 -1.720583 19 16 16
2.086830 -0.131552 -0.995214 49 48 48
1.454147 0.189966 -0.420627 10 8 9
2.905128 -1.017013 -1.417977 18 15 15
3.269390 -1.232181 -1.745292 13 10 11
2.080106 -0.138861 -0.995657 12 9 9
1.488209 0.191869 -0.413860 53 51 52
1.452157 0.189908 -0.417402 12 10 10
3.312485 -1.228632 -1.755681 15 14 14
1.992431 -0.165780 -0.972931 16 12 11
2.686695 -0.811114 -1.174126 11 9 7
2.118762 -0.111038 -0.999006 11 10 9
2.920953 -1.011113 -1.423726 20 18 18
3.389057 -1.202256 -1.725630 17 15 14
1.498433 0.192982 -0.404347 13 11 10
2.687110 -0.811281 -1.174423 12 10 9
0.375104 0.092418 -0.468255 58 57 57
1.470349 0.190715 -0.418696 52 51 50
2.686644 -0.811241 -1.174070 12 11 9
3.284268 -1.236491 -1.756297 10 9 9
3.293203 -1.221567 -1.740161 14 12 13
0.067680 0.117667 -0.109818 54 52 53
2.938555 -1.011418 -1.428478 18 15 14
3.038353 -1.011491 -1.455528 24 21 21
2.032495 -0.177163 -0.985687 50 49 48
2.123853 -0.118304 -1.006754 13 11 11
1.784180 0.039072 -0.709791 17 14 14
1.790792 0.027954 -0.699360 16 13 13
2.032773 -0.177844 -0.986256 46 44 44
2.033173 -0.171578 -0.983351 14 11 9
3.271049 -1.232493 -1.746024 10 7 7
0.527775 0.087534 -0.659983 55 53 53
2.073977 -0.127757 -0.989639 46 44 45
3.392324 -1.204449 -1.729202 12 9 9
2.690080 -0.795364 -1.151210 15 12 11
2.561593 -0.789431 -1.101814 12 11 11
1.495968 0.192302 -0.413878 24 20 19
2.124836 -0.107743 -0.999898 23 22 23
1.506419 0.193697 -0.402077 17 14 14
2.960985 -1.007815 -1.435764 75 73 73
0.402250 0.092120 -0.431393 11 8 9
1.042293 0.139129 -0.599081 81 79 78
0.231637 0.099747 -0.305273 58 56 56
3.265062 -1.234605 -1.745925 10 9 10
0.414303 0.091045 -0.514929 57 55 56
0.192515 0.097761 -0.284249 57 55 55
3.266077 -1.234844 -1.746903 15 14 14
3.033849 -1.010884 -1.454395 42 39 39
2.951762 -1.010435 -1.432802 14 12 11
1.346797 0.049047 -0.660889 28 22 24
2.069898 -0.155531 -0.999170 16 13 11
2.558218 -0.726641 -1.086067 16 12 13
2.071714 -0.153896 -0.999339 24 22 21
2.073857 -0.127882 -0.985323 19 17 15
0.456439 0.088346 -0.573659 10 8 9
2.694616 -0.797385 -1.154262 47 46 46
1.788207 0.035707 -0.711818 19 17 18
0.080962 0.120323 -0.107767 11 10 11
0.475277 0.088913 -0.591845 10 8 8
3.264126 -1.234251 -1.745380 9 8 8
3.270342 -1.232195 -1.745549 11 7 8
2.096090 -0.118559 -0.991984 12 11 9
0.303365 0.094254 -0.390815 11 9 10
2.686031 -0.815976 -1.175702 22 19 18
1.387630 0.053241 -0.718637 24 20 20
0.515490 0.086894 -0.650999 57 56 56
2.110008 -0.144844 -1.007103 20 17 17
3.314030 -1.220612 -1.745194 11 10 10
2.048945 -0.169035 -0.992821 18 15 13
3.312157 -1.228646 -1.755593 20 18 18
2.040083 -0.158890 -0.981757 15 13 11
2.075047 -0.143448 -0.995389 19 17 17
2.950334 -1.007905 -1.432750 16 15 15
0.502919 0.088325 -0.626334 8 6 7
0.302675 0.089707 -0.414778 12 10 10
1.790268 0.028975 -0.701186 26 22 22
0.229124 0.100011 -0.301889 51 49 50
0.404089 0.089295 -0.513457 56 55 55
0.312957 0.093658 -0.403340 13 10 11
3.301616 -1.229470 -1.753468 46 46 46
2.535428 -0.788822 -1.083906 18 16 16
2.110375 -0.123836 -1.003398 14 12 12
0.477638 0.088720 -0.596258 51 50 50
3.392248 -1.204342 -1.729080 10 8 8
3.301107 -1.223936 -1.745982 11 10 9
2.700485 -0.799134 -1.157541 48 47 48
3.281222 -1.224786 -1.740431 13 12 13
2.946133 -1.008138 -1.431446 32 30 28
3.312244 -1.228604 -1.755639 16 15 15
0.057696 0.108499 -0.144338 13 10 10
1.028580 0.139175 -0.573816 80 77 77
2.041203 -0.175559 -0.990868 51 51 50
2.032977 -0.171423 -0.983271 12 10 7
0.576390 0.087526 -0.721508 49 47 48
2.074425 -0.141930 -0.993909 29 27 27
3.322150 -1.218398 -1.744388 15 12 12
3.302175 -1.229715 -1.753763 47 47 48
1.499182 0.192469 -0.413419 15 12 11
3.288375 -1.222732 -1.740225 17 15 15
2.069836 -0.155424 -0.999046 18 14 13
1.787702 0.036183 -0.711955 17 15 15
3.403257 -1.200297 -1.720584 19 17 17
1.328469 0.047344 -0.634988 26 19 20
0.047143 0.109440 -0.133268 34 32 31
3.291474 -1.226112 -1.745721 13 10 11
2.075809 -0.141410 -0.994677 49 47 48
0.406064 0.090480 -0.509117 54 52 52
2.042066 -0.173850 -0.990530 20 15 13
1.791072 0.026909 -0.699939 18 15 15
2.037636 -0.168757 -0.985280 47 46 46
0.313262 0.093790 -0.402158 11 9 9
0.526815 0.088192 -0.655051 51 50 50
2.040114 -0.158991 -0.981806 18 15 13
2.562994 -0.790159 -1.102569 10 8 8
2.951756 -1.010314 -1.432526 17 15 14
3.323305 -1.224712 -1.753497 8 8 8
0.226759 0.102277 -0.290065 52 51 51
3.389007 -1.202216 -1.725583 20 19 18
1.355104 0.049738 -0.672871 29 25 24
2.961555 -1.008868 -1.435811 23 19 18
0.437646 0.090316 -0.544811 11 11 11
2.096392 -0.127795 -0.998207 14 12 12
2.317683 -0.474323 -1.039886 31 27 24
3.312197 -1.228682 -1.755418 17 15 15
1.787294 0.031334 -0.698189 25 22 21
1.501507 0.195866 -0.379104 18 15 16
3.033782 -1.011027 -1.454393 41 37 36
2.077755 -0.141421 -0.995804 17 13 13
0.065759 0.108030 -0.150195 14 11 12
1.495668 0.192642 -0.407040 54 53 53
0.427841 0.090618 -0.531467 50 48 48
3.304849 -1.222531 -1.745238 12 10 11
0.173488 0.109321 -0.219029 55 53 54
3.388807 -1.202185 -1.725547 13 11 10
2.695903 -0.796697 -1.154302 15 13 13
2.592263 -0.793540 -1.121257 17 14 14
2.920749 -1.011177 -1.423642 17 15 14
2.087138 -0.135240 -0.997572 16 13 13
2.950205 -1.008055 -1.432597 18 17 16
3.264763 -1.234347 -1.746234 9 8 9
3.293033 -1.221516 -1.740216 13 11 11
0.152052 0.111256 -0.195188 59 58 58
3.038089 -1.011467 -1.455319 23 19 20
3.280968 -1.224833 -1.740281 18 18 18
0.547284 0.087960 -0.681702 7 4 5
2.939062 -1.011706 -1.428942 19 16 16
2.938766 -1.011642 -1.428687 19 16 16
0.452743 0.088700 -0.565025 13 11 12
2.071903 -0.153888 -0.999551 17 15 14
2.693689 -0.812636 -1.177979 25 24 23
2.069868 -0.155157 -0.998909 23 20 19
0.431199 0.090371 -0.537043 53 52 52
2.951922 -1.010353 -1.432824 13 10 10
1.493338 0.192307 -0.410264 15 11 12
3.313531 -1.220316 -1.744744 9 7 8
0.970109 0.140621 -0.483805 15 11 12
0.124221 0.098114 -0.231936 14 12 13
2.114744 -0.122085 -1.004572 14 10 10
1.788907 0.030445 -0.701973 76 74 74
1.785278 0.035318 -0.705145 72 69 70
2.095574 -0.130926 -0.999744 14 11 11
2.317599 -0.474222 -1.039803 38 34 32
2.082852 -0.130068 -0.991891 16 13 12
0.357559 0.093078 -0.448608 56 54 54
2.700311 -0.798865 -1.157170 48 47 48
0.525743 0.086994 -0.662054 49 47 47
3.331653 -1.221878 -1.751497 41 39 40
1.790266 0.029399 -0.701929 20 16 17
2.095562 -0.130863 -0.999732 14 10 11
0.399659 0.089036 -0.512675 20 18 18
2.696307 -0.814165 -1.179509 48 47 48
2.086915 -0.135169 -0.997448 15 11 11
2.100762 -0.116592 -0.993272 11 10 9
2.044969 -0.161047 -0.986010 17 13 12
3.332226 -1.221903 -1.751523 49 47 49
3.327145 -1.220069 -1.747806 20 17 17
3.322562 -1.219565 -1.746043 48 48 49
1.466166 0.190628 -0.413128 11 8 8
2.073899 -0.128338 -0.985630 20 18 17
1.786894 0.031320 -0.698799 16 13 12
3.322218 -1.218442 -1.744269 15 12 12
2.961786 -1.008823 -1.435811 26 21 20
2.927849 -1.012134 -1.425488 70 67 69
0.211227 0.103489 -0.273411 53 52 52
2.095385 -0.130819 -0.999570 13 10 10
2.040190 -0.159212 -0.981975 16 13 11
2.576348 -0.790844 -1.111110 15 14 13
2.094326 -0.129670 -0.998408 30 27 27
2.071806 -0.153433 -0.999125 18 16 15
0.415252 0.090949 -0.516684 56 54 55
2.112662 -0.122954 -1.004004 15 13 13
2.950497 -1.007863 -1.432810 20 19 19
0.386612 0.089644 -0.496238 10 9 10
3.291405 -1.226080 -1.745721 12 9 9
1.984789 -0.151650 -0.965151 17 15 14
2.942446 -1.008020 -1.427319 15 15 14
