ply
format ascii 1.0
element vertex 368
property float x
property float y
property float z
property uchar blue
property uchar green
property uchar red
end_header
551441.562500 -73664.148438 -243085.078125 54 52 53
12266299.000000 3592777.500000 -22186664.000000 18 15 16
-3638363.000000 -12472813.000000 -12901169.000000 18 15 13
-243598.187500 -1087073.125000 504713.218750 56 54 55
-136367.906250 -525766.500000 7869.135254 57 55 56
984330.812500 6105537.000000 -13708726.000000 13 10 11
553765.812500 -73763.367188 -242826.906250 56 53 54
-1160923.125000 -2611087.250000 -590.853882 51 50 51
-1511223.625000 -1801194.875000 904998.312500 9 6 8
2135445.750000 -20498.892578 -1770315.625000 58 56 57
1518695.125000 213341.390625 -1654725.875000 19 16 18
15490467.000000 -37575604.000000 -4606854.500000 28 25 23
-14444602.000000 -31705560.000000 -55200020.000000 10 8 8
-14142210.000000 -31881792.000000 -55277788.000000 9 8 8
609471.062500 -163406.140625 -5061.202148 52 50 51
13740599.000000 -35879380.000000 -5599963.000000 28 26 25
-488754.875000 3326862.500000 -11111969.000000 31 29 27
-24621362.000000 -25691936.000000 -50882704.000000 22 20 19
192321.328125 -311111.218750 -195629.046875 8 7 7
-26330448.000000 -24767936.000000 -50194752.000000 19 16 16
-13087025.000000 24107726.000000 -66010492.000000 10 8 9
18325114.000000 -36962232.000000 214581.968750 21 20 19
-14032463.000000 24678964.000000 -63758868.000000 53 51 52
-17715484.000000 -29739012.000000 -53931868.000000 15 12 12
11422823.000000 12969602.000000 -24892378.000000 13 11 10
914256.562500 -1108050.125000 -9150629.000000 15 12 12
4790728.000000 -25978584.000000 -7959285.000000 18 15 14
2018499.500000 2474193.000000 -17234510.000000 23 20 20
8457948.000000 12029301.000000 -20327406.000000 19 16 16
500812.250000 -547847.562500 -2056700.750000 22 18 20
-327634.562500 -809422.187500 -124302.437500 55 53 53
1424357.875000 7298225.500000 -15082240.000000 46 44 45
16837732.000000 -37626176.000000 -4076025.000000 13 10 11
16540278.000000 -37803368.000000 191779.546875 25 19 19
13592656.000000 -15680866.000000 6763626.000000 162 158 158
5091826.000000 5626899.500000 -19329468.000000 81 79 78
-11766642.000000 -35143444.000000 -61842128.000000 12 11 12
10217623.000000 12177681.000000 -22442804.000000 17 15 13
-4384835.500000 -23728476.000000 -20089478.000000 28 22 24
462153824.000000 485100896.000000 1118093824.000000 14 11 11
480480480.000000 519944320.000000 1157688704.000000 16 13 12
-35087.820312 -390171.718750 2123.349365 53 52 52
494870.218750 -1704166.375000 247.315216 55 54 54
-3700818.000000 -14738211.000000 -17545620.000000 12 11 9
-343256.531250 -2209525.250000 -185.917023 45 43 44
-15542845.000000 -31247816.000000 -55381060.000000 20 18 18
1481508.500000 1633662.125000 -16164320.000000 26 22 22
-1225504.750000 -5971866.500000 -2922384.750000 102 100 100
1009422.625000 -87882.375000 -847720.375000 51 49 50
-51905.546875 -323911.562500 -109490.085938 51 50 50
1427202.875000 7146522.000000 -14954001.000000 15 13 13
282526.625000 4760603.000000 -12188164.000000 18 16 16
21227834.000000 -13352156.000000 8316440.500000 105 104 104
14064011.000000 -36304540.000000 -5342869.000000 68 67 68
-619703.812500 -659211.250000 277473.687500 49 47 48
11552156.000000 12829817.000000 -24852964.000000 15 12 11
-16304379.000000 -30458956.000000 -54087208.000000 17 15 15
15474965.000000 -37552900.000000 -4707977.000000 20 17 15
-25291242.000000 -25411660.000000 -50937884.000000 18 15 16
2570675.000000 151207.687500 -2628196.750000 34 32 31
-21983706.000000 33142680.000000 19216186.000000 134 131 132
1848721.500000 2040478.375000 -15708328.000000 48 44 43
353132.875000 -1383539.250000 224.077499 25 24 24
-349055.937500 -2365129.250000 188271.312500 84 82 82
-15390863.000000 56216244.000000 18133768.000000 27 23 23
46589116.000000 -377984224.000000 548994496.000000 15 14 13
3699667.250000 4379365.500000 -18189958.000000 80 77 77
5857002.000000 -15675281.000000 6752359.000000 32 27 25
476547520.000000 511098304.000000 1161007488.000000 43 42 42
4918161.000000 -26250890.000000 -7908310.000000 18 17 16
14246645.000000 -36458448.000000 -5408192.500000 26 23 21
-4517716.000000 -20295404.000000 -18520860.000000 67 70 72
-808549.500000 -2213271.000000 465533.656250 12 9 10
-14729267.000000 20022482.000000 -54099412.000000 15 11 12
18645186.000000 -24501920.000000 4979048.500000 42 37 37
19928050.000000 -37357352.000000 224354.781250 70 70 71
4876289.500000 -26228704.000000 -8008153.000000 20 19 19
-23314578.000000 -26657894.000000 -52243592.000000 46 46 48
-6792498.000000 -35040584.000000 -21429130.000000 72 69 70
-3216920.750000 -9196342.000000 1708459.750000 42 37 35
557287.812500 -73427.539062 -241346.671875 56 54 54
-17491716.000000 -29904830.000000 -54118048.000000 48 48 49
-17203548.000000 -30204378.000000 -54636320.000000 41 39 40
-16581666.000000 -30297464.000000 -53998780.000000 14 12 13
-6617664.000000 -34707704.000000 -21562614.000000 20 16 17
-32298530.000000 -21948440.000000 -48012536.000000 13 12 12
41127816.000000 -31851448.000000 17238768.000000 81 80 80
-17211216.000000 -30207530.000000 -54651636.000000 49 47 49
443044064.000000 -285798368.000000 84227104.000000 12 13 14
-17476830.000000 -29958046.000000 -54282048.000000 20 17 17
863281.125000 5459761.000000 -12921155.000000 29 27 27
5984321.500000 -27569152.000000 -7636696.000000 26 21 20
41370644.000000 -351105024.000000 508353088.000000 10 8 8
1111329.125000 6403425.000000 -14058501.000000 13 10 10
20723612.000000 -42231100.000000 -3740438.750000 56 58 59
-1062322.250000 -1461804.875000 580200.937500 12 11 11
2633376.250000 -14720243.000000 -6541683.000000 14 10 10
-15730034.000000 -30907436.000000 -54650896.000000 12 9 9
4242937.500000 -25384778.000000 -8264650.500000 15 15 14
937171.062500 5868680.500000 -13418168.000000 50 48 48
612656896.000000 741233344.000000 1460694528.000000 20 18 18
2945597.500000 -425560.281250 -1994612.250000 15 13 13
5336574.000000 4287651.000000 2659.631592 9 8 8
601602176.000000 713552768.000000 1430487168.000000 12 11 10
-16582424.000000 -30292376.000000 -53969100.000000 10 9 9
869506.812500 5430642.500000 -12931719.000000 19 17 16
-780110.437500 -1221593.375000 833703.750000 54 52 52
-15204018.000000 -31399070.000000 -55395032.000000 47 47 48
-1335073.375000 -2512061.750000 685703.312500 82 80 80
-14137058.000000 22417090.000000 -63300240.000000 18 14 16
-13613942.000000 40203188.000000 13113564.000000 25 22 21
1260886.750000 -142469.921875 -1043967.750000 59 58 58
459623904.000000 484238112.000000 1100500736.000000 48 48 48
475064928.000000 509614592.000000 1172732032.000000 12 12 10
5204727.500000 4384429.000000 2555.760010 11 10 11
-13087812.000000 28037904.000000 -71082112.000000 52 50 50
772606656.000000 214531904.000000 72242376.000000 49 51 52
15030917.000000 -36377872.000000 174056.546875 17 15 13
1249477.125000 7216148.500000 -15102768.000000 16 14 14
1466511104.000000 441637888.000000 110131648.000000 72 72 72
-14562152.000000 -35315772.000000 -66078464.000000 13 12 12
-4351867.500000 -23515422.000000 -20052650.000000 49 48 48
-27462946.000000 -24437740.000000 -50686776.000000 16 16 16
7876796.500000 -14074130.000000 -9650762.000000 95 93 95
302583.343750 -481192.187500 5783.848145 58 57 57
-12774940.000000 30587926.000000 -76057624.000000 52 51 50
-13914139.000000 -32216530.000000 -55968332.000000 10 9 9
14077291.000000 -36241360.000000 -5549333.500000 24 21 21
583035.062500 -1551528.500000 304.518280 55 54 54
491486.875000 -1611580.875000 260.703003 13 10 10
1361573.500000 6924076.000000 -14661900.000000 51 50 51
-5984517.000000 -46393496.000000 -28438618.000000 26 21 20
570100.562500 -1638381.750000 284.318695 14 12 12
11376102.000000 12789783.000000 -24502574.000000 17 14 14
-1817462.000000 -2082551.375000 -1022.016418 52 50 51
20640014.000000 -30196006.000000 531560.625000 33 29 27
-15861863.000000 -31925488.000000 -58093776.000000 14 12 13
-1351870.500000 -1381511.250000 1064265.625000 12 9 11
-5631391.000000 -27051922.000000 -19959404.000000 17 15 14
1183680.125000 6505642.000000 -14167963.000000 14 12 12
-14063827.000000 -31952494.000000 -55386792.000000 15 14 14
556683.562500 -1615240.000000 283.549438 55 54 53
430000064.000000 431844128.000000 1049585664.000000 12 10 9
-289523.750000 -848111.875000 459894.062500 10 8 9
425015840.000000 425674048.000000 1037564800.000000 15 13 12
14242024.000000 -36454052.000000 -5417010.000000 29 27 24
788570.375000 -163617.562500 -679750.500000 11 9 10
-5581932.500000 -14724679.000000 -14925024.000000 42 43 43
-871908.812500 -1384926.500000 1085691.125000 10 9 10
-4264357.500000 -22970728.000000 -19946534.000000 20 17 17
-17094368.000000 -30106768.000000 -54194232.000000 11 10 10
41602776.000000 -20602230.000000 3936961.000000 20 17 16
-3646945.750000 -16603247.000000 -17815626.000000 18 15 13
-228468.046875 -410492.375000 25850.892578 8 6 7
-1275195.125000 -2640626.250000 -658.238892 49 47 47
57414848.000000 -207122272.000000 302775168.000000 18 16 16
6809337.500000 4531575.500000 3580.277588 51 49 50
1646937.375000 -609653.500000 -1727455.125000 19 15 16
34921336.000000 -32213718.000000 18054818.000000 67 66 66
15651471.000000 -36564764.000000 -4971842.500000 62 61 62
-14469903.000000 -31685970.000000 -55165416.000000 10 7 7
-2259648.500000 -10210043.000000 -8221740.000000 51 51 50
15031450.000000 -36383336.000000 174176.593750 20 18 16
-17718264.000000 -29729714.000000 -53926868.000000 15 12 12
-835411.437500 -5143356.000000 -4142185.000000 35 28 29
16533747.000000 -37813784.000000 191715.515625 26 19 19
-240928.234375 5386882.500000 -13874045.000000 20 18 19
9309622.000000 5875869.500000 5018.767090 16 14 15
-14027760.000000 49505448.000000 16247882.000000 18 15 15
7208941.500000 -13189445.000000 -9192728.000000 26 21 21
549652.875000 -1581956.375000 287.212555 48 46 46
-22202008.000000 34536124.000000 19873112.000000 30 27 28
5561125.500000 -26995288.000000 -7738118.500000 17 15 14
5949640.500000 -27529436.000000 -7654989.000000 23 19 18
-1574521.750000 -6111073.500000 -3232896.750000 21 16 16
4833130.500000 -26026802.000000 -7924513.000000 19 16 16
1116694.625000 5894500.000000 -13431465.000000 17 13 13
2585334.750000 175900.875000 -2670853.000000 14 11 12
-17150522.000000 -30060790.000000 -54127128.000000 8 7 7
427908.906250 -1763461.875000 213.581543 54 53 53
17872386.000000 -37865180.000000 210033.375000 24 23 22
58340160.000000 -425961984.000000 622253824.000000 17 14 14
-16591926.000000 -30286922.000000 -53978712.000000 13 11 11
4843417.500000 -26040546.000000 -7914361.500000 19 16 16
-56015.855469 -373831.656250 2819.653564 13 11 12
-14508865.000000 -31637424.000000 -55084768.000000 13 10 11
1788697.750000 1362175.125000 -14383453.000000 19 15 15
8209861.500000 5463008.000000 -19371084.000000 15 11 12
355625.250000 -1975633.125000 -8885106.000000 96 94 93
-2347445.750000 -7936993.500000 -306499.312500 100 97 97
16515160.000000 -36261720.000000 -3660671.750000 37 35 33
1067204.125000 6356152.000000 -14010214.000000 14 10 11
5662165.500000 -27212088.000000 -7691899.000000 75 73 73
-35470092.000000 -20835622.000000 -46441916.000000 11 11 12
-12845743.000000 41885240.000000 16451376.000000 22 17 16
15293334.000000 -37379976.000000 -4536966.000000 70 69 71
-5979517.500000 -45234168.000000 -27946064.000000 23 18 18
-13607465.000000 40253500.000000 13121049.000000 16 13 12
-15232198.000000 -31364080.000000 -55359952.000000 46 46 46
4924094.000000 4833722.000000 -2257442.500000 83 82 82
-3214625.500000 -9194658.000000 1703813.750000 34 30 27
1144111.375000 6405998.500000 -14052664.000000 30 27 27
-480232.906250 -1136885.750000 660230.500000 56 54 55
-14616854.000000 -35260976.000000 -66049176.000000 13 11 11
517050.937500 -1672384.875000 259.818726 12 8 11
-17307212.000000 9338325.000000 5253496.500000 46 40 39
-35003904.000000 -20973122.000000 -47283296.000000 12 11 12
146177.875000 -1687635.000000 90.185280 57 55 55
14274326.000000 -28123944.000000 1195737.125000 22 19 16
1376138.875000 7048159.000000 -14839700.000000 13 11 12
-12867242.000000 24651858.000000 -66896180.000000 53 51 51
6361062.500000 6551022.000000 -20276722.000000 18 14 14
-16551034.000000 -30424458.000000 -54355816.000000 18 16 16
-15105254.000000 -33041590.000000 -60508360.000000 14 12 13
-114067.062500 -749153.812500 -181483.546875 11 11 11
-14491981.000000 21835686.000000 -57921812.000000 19 17 17
1294319.250000 6474596.000000 -14097088.000000 20 17 17
8991929.000000 12262003.000000 -21226552.000000 23 21 20
3326423.250000 3953101.750000 -17878590.000000 16 13 13
-4584210.500000 -17996548.000000 -17456914.000000 56 57 58
11721483.000000 12634144.000000 -24643264.000000 19 16 16
908749.750000 5903390.500000 -13471136.000000 16 13 13
2383324.750000 227976.218750 1229.541748 7 5 5
657956.125000 -104990.437500 -518167.718750 53 51 51
5189691.000000 4376109.500000 -18973164.000000 26 22 24
-15545594.000000 -31246224.000000 -55392156.000000 15 14 14
-688269.500000 2921696.250000 -9770924.000000 11 10 9
463432448.000000 490216096.000000 1108620288.000000 43 42 43
1417312.750000 692936.375000 -12514389.000000 16 13 12
-1546233.250000 -2541088.500000 -859.907104 10 8 9
-3754204.000000 -14165245.000000 -15626835.000000 14 11 9
468938016.000000 477623840.000000 1127573760.000000 19 17 16
-15542678.000000 -31242050.000000 -55390508.000000 16 15 15
-14899899.000000 19938610.000000 -53694292.000000 24 20 19
-4561566.000000 -24645444.000000 -20168210.000000 23 22 23
362478.375000 -1788009.250000 -177351.890625 17 13 14
-2171961.500000 -1907017.750000 -1067.252075 11 9 10
-11882315.000000 17068394.000000 9620358.000000 60 55 55
5573564.500000 -27009736.000000 -7718088.000000 14 12 11
458773.093750 -1452368.250000 268.718353 13 11 12
9596042.000000 -31314844.000000 119526.421875 24 20 21
1536273.000000 -150185.687500 -1188773.000000 11 10 11
513509728.000000 441126944.000000 1228377984.000000 22 19 18
-4061710.500000 -11938631.000000 2243940.250000 25 20 20
450070.031250 -1774632.875000 219.254883 54 53 53
-282530.343750 -649832.000000 309665.437500 57 56 56
4858491.000000 -26215534.000000 -8034593.500000 16 15 15
-17149648.000000 -30062364.000000 -54127240.000000 9 7 8
15820508.000000 -36926988.000000 -5137466.500000 23 19 18
-526795.625000 -2364963.000000 243708.968750 80 78 78
1395881.375000 7063361.000000 -14854881.000000 14 12 12
-16571752.000000 -30408738.000000 -54338360.000000 12 10 11
-1537295.500000 -14015880.000000 3127911.500000 104 102 102
-4011915.000000 -21301602.000000 -19440010.000000 49 47 46
-24387900.000000 -26094836.000000 -51950148.000000 17 16 15
1400087.625000 1776246.000000 -17269242.000000 19 17 18
500490368.000000 551115136.000000 1197332352.000000 16 14 13
-4524712.000000 -24535514.000000 -20168526.000000 23 20 21
868067.937500 -70269.781250 -179277.640625 11 9 9
-629860.000000 -743061.812500 316552.000000 51 50 50
190314.375000 -1971150.875000 91.248177 9 6 8
-14538828.000000 -35326152.000000 -66119960.000000 11 11 11
726974.750000 -117188.070312 -289896.250000 52 51 51
-6398419.000000 -46153492.000000 -25318990.000000 23 19 19
8234.882812 -2079935.625000 3.908563 15 14 14
-15535868.000000 -31256898.000000 -55394304.000000 17 15 15
-35311896.000000 -20860082.000000 -47137132.000000 12 12 13
9746569.000000 13097845.000000 -24755732.000000 54 53 53
-3173.033447 -382865.625000 470.800201 50 48 48
707335168.000000 902872256.000000 1711156736.000000 12 12 12
8265277.500000 -14521730.000000 -9533371.000000 26 21 21
853838.562500 -87473.218750 -263996.312500 55 53 54
18628122.000000 -35004572.000000 -2077269.875000 24 20 19
-14133120.000000 -31880742.000000 -55287752.000000 9 8 9
14072907.000000 -36225584.000000 -5631524.500000 23 19 20
-15836636.000000 -30743332.000000 -54277432.000000 18 18 18
5585071.500000 -27026110.000000 -7709609.000000 13 10 10
-1049311.250000 -1181636.375000 952152.312500 13 11 12
-6633723.000000 -34595796.000000 -21547354.000000 76 74 74
-3756171.750000 -19896104.000000 -19383888.000000 16 13 12
14252729.000000 -36460736.000000 -5389396.000000 24 21 18
506759.625000 -1676607.000000 255.479340 49 48 48
138204.671875 -2002270.125000 66.273155 14 11 12
-869042.312500 -1064451.750000 890116.562500 17 15 16
4647185.000000 -25917270.000000 -8087948.500000 32 30 28
162965.781250 -2703469.250000 -7729030.500000 107 104 105
904584.187500 5471583.000000 -12977639.000000 18 16 15
1416393.500000 7140834.500000 -14949982.000000 15 13 13
7076674.500000 -13550526.000000 -9938931.000000 26 22 18
-627484.000000 3092736.750000 -10837762.000000 21 18 18
-25270420.000000 -25438112.000000 -50978548.000000 15 13 13
-13956996.000000 47117192.000000 15250464.000000 16 13 13
-703164.812500 -1590497.625000 994170.687500 57 55 56
349759.218750 -289905.562500 -371071.812500 11 9 10
5532982.500000 -26966110.000000 -7753690.000000 14 11 11
-23262060.000000 -26703052.000000 -52312500.000000 37 37 39
5053139.500000 -26329534.000000 -7883766.500000 25 22 21
3936835.250000 4553473.000000 -18469508.000000 82 80 80
-14563527.000000 -31815972.000000 -55724332.000000 10 8 8
-2716082.750000 -10687332.000000 1553869.500000 43 38 35
3728388.250000 -24498610.000000 -8330419.500000 20 18 18
-15563135.000000 -31223150.000000 -55354180.000000 12 10 10
7954877.000000 5427420.500000 4085.959473 19 18 19
-11792766.000000 -35119196.000000 -61814236.000000 13 12 13
-5391.152344 -604787.812500 231918.578125 11 9 10
-35316328.000000 -20857356.000000 -47131172.000000 12 12 13
-23612994.000000 -26522276.000000 -52252308.000000 24 22 21
4221262.500000 -25174752.000000 -8099572.500000 70 67 69
468431040.000000 499924128.000000 1124617088.000000 14 13 13
3666066.250000 -24132364.000000 -8020284.000000 18 15 15
-4096382.250000 -21993528.000000 -19792988.000000 16 12 11
15488419.000000 -37571872.000000 -4624237.000000 24 21 20
14359674.000000 -21260384.000000 -10090379.000000 33 29 28
-16247733.000000 -30612318.000000 -54497948.000000 11 10 9
2457153.000000 194942.187500 -2294973.250000 54 52 53
9460584.000000 696399.312500 -18558390.000000 64 60 60
15820432.000000 -36929208.000000 -5141908.500000 24 20 20
3735829.250000 -24503906.000000 -8309281.500000 17 15 14
1095490.875000 -179425.375000 283948.812500 89 86 87
-14102973.000000 -31925084.000000 -55325248.000000 10 9 10
-32307894.000000 -21945616.000000 -48009832.000000 11 10 10
581961.500000 -1622277.750000 290.533691 58 56 57
1244088.500000 -20894.154297 -11849020.000000 126 125 125
41451468.000000 -351037152.000000 508237600.000000 12 11 11
-428.149017 -1228345.000000 -93346.945312 15 12 13
-14514431.000000 -31644524.000000 -55105244.000000 11 7 8
-14710508.000000 -33250762.000000 -60527084.000000 46 45 46
-4424074.500000 -23906080.000000 -20103920.000000 24 20 20
586424.125000 -1623538.875000 292.056305 12 10 10
19554878.000000 -37282432.000000 219526.203125 66 65 65
20731228.000000 -42262444.000000 -3737507.250000 56 59 60
3467339.000000 -15739370.000000 6540713.000000 32 29 27
9971332.000000 12296085.000000 -22339912.000000 50 48 48
25656360.000000 -35307360.000000 9469925.000000 69 68 69
-24160164.000000 -26034830.000000 -51410880.000000 10 8 8
-15851158.000000 -30734762.000000 -54266476.000000 13 12 13
1038983808.000000 299536896.000000 87749208.000000 59 59 59
-1260984.750000 -2466623.000000 585730.875000 82 80 80
-15110361.000000 -33042620.000000 -60509012.000000 15 13 15
-14151799.000000 -31872580.000000 -55258788.000000 9 8 8
517681.031250 4870756.500000 -12287061.000000 18 14 13
-2081526.250000 -10461135.000000 -765261.250000 42 36 35
518922592.000000 561828992.000000 1245370624.000000 20 18 16
-15729743.000000 -30912180.000000 -54650160.000000 13 10 11
490599.843750 -1081170.000000 86611.929688 82 79 79
-12714168.000000 40816292.000000 16715317.000000 28 22 20
-16466723.000000 -30664542.000000 -54963440.000000 8 8 8
-1034509.562500 -2612208.000000 -621.861816 11 9 9
-15375809.000000 55475808.000000 17596206.000000 28 25 24
933944.500000 5977413.000000 -13558544.000000 16 13 13
200970.265625 -2266364.500000 -8723621.000000 36 31 30
13616757.000000 -35771208.000000 -5808596.500000 41 37 36
3759391.250000 -20594576.000000 59063.964844 39 35 33
1599037.000000 -361156.812500 -1237316.000000 14 12 13
1108211.250000 6394997.000000 -14049026.000000 14 11 11
18710010.000000 -32003450.000000 209697.515625 28 26 26
434893280.000000 448341760.000000 1049845952.000000 47 46 46
316864.625000 -135979.687500 -13736.632812 49 47 47
-27108338.000000 -24619310.000000 -50826712.000000 19 18 18
-14507351.000000 -31648852.000000 -55123528.000000 12 9 9
938735.937500 5978504.000000 -13558571.000000 15 11 11
1484469.750000 6920925.000000 -14636082.000000 11 10 9
481876576.000000 518215552.000000 1181828480.000000 12 12 11
-12310503.000000 30037700.000000 -75755392.000000 11 8 8
-4272692.000000 -23032148.000000 -19966276.000000 20 18 17
10208330.000000 12285482.000000 -22565894.000000 19 16 16
-1335253.875000 -11400650.000000 -9956289.000000 31 28 26
-11768471.000000 -35140676.000000 -61830880.000000 10 9 10
