ply
format ascii 1.0
element vertex 296
property float x
property float y
property float z
property uchar blue
property uchar green
property uchar red
end_header
-46524072.000000 -23928282.000000 -70754392.000000 54 52 53
-30718128.000000 -15249435.000000 -48250160.000000 18 15 16
5179271.500000 24627140.000000 34382588.000000 18 15 13
-59010896.000000 -30341468.000000 -87009504.000000 57 55 56
-48771112.000000 -24174792.000000 -68850024.000000 13 10 11
-46621680.000000 -24001668.000000 -70883688.000000 56 53 54
8990684.000000 4503073.000000 13411788.000000 51 50 51
22601598.000000 54094392.000000 53064448.000000 28 25 23
-273535840.000000 253248496.000000 7712441.000000 10 8 8
-274234688.000000 257119200.000000 9913455.000000 9 8 8
26532754.000000 67552488.000000 77027840.000000 28 26 25
-42932200.000000 -23789286.000000 -47841696.000000 31 29 27
-10962962.000000 66739036.000000 37887116.000000 22 20 19
-45673400.000000 -23493204.000000 -69643584.000000 8 7 7
-26288794.000000 52367604.000000 12609081.000000 19 16 16
-84941704.000000 -40191020.000000 -103725864.000000 10 8 9
314397.218750 17442946.000000 22570656.000000 21 20 19
-52369424.000000 -28843266.000000 -62395552.000000 53 51 52
-50283252.000000 156958672.000000 98088776.000000 15 12 12
-42467188.000000 -21256886.000000 -59012900.000000 13 11 10
42324176.000000 132092576.000000 161636752.000000 15 12 12
29461684.000000 153362192.000000 160123376.000000 18 15 14
22455396.000000 52717992.000000 54307196.000000 19 16 16
-56451796.000000 -27650850.000000 -82788688.000000 55 53 53
-115289496.000000 31357886.000000 -69996104.000000 46 44 45
7313249.000000 26874110.000000 27197672.000000 13 10 11
17035614.000000 45073436.000000 48721560.000000 25 19 19
267670928.000000 1874500.625000 425012640.000000 12 11 12
-4960544.000000 11305629.000000 15699431.000000 17 15 13
-46685896.000000 -23148798.000000 -70279768.000000 28 22 24
13809645.000000 38550528.000000 40304368.000000 14 11 11
2516544.250000 21424872.000000 19415430.000000 16 13 12
-62353916.000000 -32019952.000000 -91183448.000000 53 52 52
6342899.500000 3054678.000000 9281029.000000 55 54 54
-64723368.000000 -35475324.000000 -78505416.000000 12 11 9
-67160048.000000 -34650704.000000 -97183272.000000 11 11 11
19576088.000000 9652160.000000 31051100.000000 45 43 44
-150600272.000000 198937168.000000 70459512.000000 20 18 18
-46303336.000000 -22894480.000000 -64329568.000000 26 22 22
-20068998.000000 -10398314.000000 -32814458.000000 51 49 50
-62076100.000000 -31327408.000000 -90401464.000000 51 50 50
-73342632.000000 -36077404.000000 -99691608.000000 15 13 13
-21407052.000000 -2575222.750000 -44646780.000000 18 16 16
741014.937500 18818628.000000 24677126.000000 105 104 104
20117974.000000 53130560.000000 72870296.000000 68 67 68
-65687172.000000 -32050920.000000 -94032856.000000 49 47 48
-43711928.000000 -23707124.000000 -47038124.000000 15 12 11
-183162048.000000 217592912.000000 38436132.000000 17 15 15
21269294.000000 54709984.000000 52565132.000000 20 17 15
46926736.000000 29865756.000000 58751064.000000 18 15 16
-38811288.000000 -8848327.000000 -90376136.000000 27 23 23
28117430.000000 137219632.000000 161748704.000000 15 14 13
-2894365.250000 14303475.000000 20538270.000000 32 27 25
499755.687500 18692198.000000 25020494.000000 43 42 42
28932658.000000 137744288.000000 161480688.000000 18 17 16
18506946.000000 47423504.000000 69156632.000000 26 23 21
264101200.000000 6473868.500000 -22855146.000000 67 70 72
-47582144.000000 -25273060.000000 -59198808.000000 15 11 12
26515184.000000 137874768.000000 160679360.000000 20 19 19
70724232.000000 34421424.000000 96630424.000000 46 46 48
-63208020.000000 -34618568.000000 -76574760.000000 72 69 70
-46745904.000000 -24102818.000000 -71094640.000000 56 54 54
-92685096.000000 169783488.000000 78389048.000000 48 48 49
-62046460.000000 156092336.000000 100990376.000000 41 39 40
-128057000.000000 199702128.000000 65999832.000000 14 12 13
-49089128.000000 -24394968.000000 -68642312.000000 20 16 17
9936345.000000 31179978.000000 34896996.000000 81 80 80
-18705434.000000 142982576.000000 124678136.000000 49 47 49
-33172034.000000 149567104.000000 111945840.000000 20 17 17
-32892282.000000 -14485480.000000 -45390048.000000 29 27 27
31119224.000000 130034432.000000 146748192.000000 26 21 20
27148708.000000 149135952.000000 171317104.000000 10 8 8
-54933372.000000 -27213250.000000 -76945360.000000 13 10 10
-75715040.000000 -36640644.000000 -102208080.000000 14 10 10
-193561312.000000 220474352.000000 40565788.000000 12 9 9
51597256.000000 136632048.000000 180782128.000000 15 15 14
-44756584.000000 -21913690.000000 -59622196.000000 50 48 48
-41982592.000000 -20602476.000000 -58662856.000000 20 18 18
-39322412.000000 -21429910.000000 -43604316.000000 12 11 10
-185962480.000000 215424992.000000 33992476.000000 10 9 9
-23823892.000000 -5120698.000000 -38641948.000000 19 17 16
-73975376.000000 -37888472.000000 -105161336.000000 54 52 52
-100340352.000000 191961264.000000 102428144.000000 47 47 48
-98311592.000000 -45177168.000000 -111652272.000000 18 14 16
-40253268.000000 -21029408.000000 -42499632.000000 25 22 21
8588437.000000 27834676.000000 38909428.000000 48 48 48
-88002.000000 16813180.000000 23789690.000000 12 12 10
5818254.000000 2833444.750000 8260353.000000 11 10 11
-59730712.000000 -30285528.000000 -79652256.000000 52 50 50
21986478.000000 58036240.000000 81171528.000000 17 15 13
-73367360.000000 -30840538.000000 -112268360.000000 16 14 14
-48876036.000000 -24847882.000000 -65072792.000000 49 48 48
-3878698.000000 10482565.000000 15845653.000000 16 16 16
10039073.000000 31996040.000000 35756720.000000 95 93 95
-49799928.000000 -25626642.000000 -75132304.000000 58 57 57
-67789096.000000 -37851044.000000 -83288768.000000 52 51 50
-240482224.000000 241238304.000000 35221868.000000 10 9 9
26320232.000000 62582112.000000 72745480.000000 24 21 21
8543817.000000 4087145.250000 13061026.000000 55 54 54
9260401.000000 4373999.000000 14378751.000000 13 10 10
-69013688.000000 -35244256.000000 -91660280.000000 51 50 51
21850780.000000 53132772.000000 60382560.000000 26 21 20
5846624.000000 2800091.250000 8539013.000000 14 12 12
-36471740.000000 -16479536.000000 -49615252.000000 17 14 14
83716136.000000 42434716.000000 136914992.000000 52 50 51
3054577.250000 21283712.000000 19697588.000000 33 29 27
221876608.000000 12400071.000000 304147328.000000 14 12 13
-58011844.000000 -29405188.000000 -78497112.000000 14 12 12
-244536176.000000 249611408.000000 28436972.000000 15 14 14
6585682.500000 3121685.250000 9822846.000000 55 54 53
20497772.000000 53851076.000000 60135964.000000 12 10 9
-43866684.000000 -21660946.000000 -66506152.000000 10 8 9
17063196.000000 48227208.000000 68278112.000000 15 13 12
18087644.000000 47504744.000000 69122984.000000 29 27 24
-22522764.000000 -11379047.000000 -36346568.000000 11 9 10
235442032.000000 10608219.000000 -72949928.000000 42 43 43
-83510920.000000 -44872004.000000 -119615872.000000 10 9 10
-44637256.000000 162799056.000000 108675224.000000 11 10 10
-24426550.000000 -1688065.000000 -35632056.000000 20 17 16
-2932246.750000 14383955.000000 4697278.500000 18 15 13
-65511532.000000 -32886362.000000 -94547784.000000 8 6 7
22362762.000000 173489552.000000 191292240.000000 18 16 16
9992243.000000 5075594.500000 15027943.000000 51 49 50
7564939.500000 28806242.000000 38584152.000000 67 66 66
15152391.000000 41204864.000000 49237880.000000 62 61 62
-237284336.000000 244653312.000000 28191656.000000 10 7 7
3612193.000000 22990462.000000 21740770.000000 51 51 50
20605016.000000 58211256.000000 80871216.000000 20 18 16
-88061064.000000 167821920.000000 77892808.000000 15 12 12
17264212.000000 44805072.000000 48869420.000000 26 19 19
-85380008.000000 -41035612.000000 -112778432.000000 20 18 19
30066184.000000 16488125.000000 45819068.000000 16 14 15
-39265428.000000 -18144076.000000 -54202692.000000 18 15 15
6692170.500000 28248976.000000 25777180.000000 26 21 21
7749703.500000 3677027.750000 11856000.000000 48 46 46
32064032.000000 140970480.000000 150435376.000000 17 15 14
30790890.000000 130476648.000000 146823280.000000 23 19 18
21003548.000000 52060488.000000 62082820.000000 21 16 16
30252122.000000 153367616.000000 159871072.000000 19 16 16
-35765912.000000 -15715334.000000 -50535848.000000 17 13 13
-92970464.000000 176491984.000000 81380256.000000 8 7 7
6759607.500000 3264743.750000 9880056.000000 54 53 53
-499858.312500 17726224.000000 22414492.000000 24 23 22
28785352.000000 126237728.000000 149402976.000000 17 14 14
-173452112.000000 211801280.000000 40908376.000000 13 11 11
30603224.000000 153076112.000000 160077072.000000 19 16 16
-43829564.000000 -21656168.000000 -66410356.000000 13 11 12
-278957088.000000 255372848.000000 3492720.750000 13 10 11
6836916.500000 27178692.000000 26043706.000000 19 15 15
-44139132.000000 -21910286.000000 -66923388.000000 15 11 12
12518913.000000 37847652.000000 52186052.000000 96 94 93
15054670.000000 43368880.000000 58031032.000000 100 97 97
4732062.000000 23223344.000000 35427756.000000 37 35 33
-54835644.000000 -27486766.000000 -77094776.000000 14 10 11
30214516.000000 128601168.000000 151548944.000000 75 73 73
-6236635.500000 10299459.000000 8217626.000000 22 17 16
20168334.000000 45300244.000000 55974356.000000 70 69 71
21804882.000000 52932716.000000 60915784.000000 23 18 18
-40138040.000000 -22028658.000000 -42818252.000000 16 13 12
-115623352.000000 196137456.000000 93435624.000000 46 46 46
-55634872.000000 -27758984.000000 -75575824.000000 30 27 27
-58824688.000000 -30233076.000000 -86737400.000000 56 54 55
5963098.500000 2820059.750000 8776469.000000 12 8 11
-3134204.750000 -1535964.250000 -5665602.000000 57 55 55
21868986.000000 58033284.000000 81241048.000000 22 19 16
-70753800.000000 -34897652.000000 -96927832.000000 13 11 12
-82450112.000000 -37600400.000000 -103405744.000000 53 51 51
-73914520.000000 -36522632.000000 -104020608.000000 18 14 14
-127337968.000000 193158736.000000 68930528.000000 18 16 16
549255680.000000 -162885760.000000 537612864.000000 14 12 13
17467822.000000 45802436.000000 55099448.000000 102 100 100
-49365712.000000 -26788378.000000 -67948472.000000 19 17 17
-60399512.000000 -33903784.000000 -71707416.000000 20 17 17
12739509.000000 36133480.000000 31320228.000000 23 21 20
-54774820.000000 -26857208.000000 -80626608.000000 16 13 13
216758144.000000 -8868264.000000 -33870200.000000 56 57 58
-40132224.000000 -23319306.000000 -43470064.000000 19 16 16
-44382360.000000 -21450088.000000 -62817388.000000 16 13 13
7716018.000000 3752618.000000 11569033.000000 7 5 5
-34337316.000000 -17484154.000000 -53768124.000000 53 51 51
-83931024.000000 -41267756.000000 -115246952.000000 18 16 17
-137058288.000000 195008416.000000 78279520.000000 15 14 14
-87426184.000000 -44635904.000000 -106151456.000000 11 10 9
9536356.000000 32085966.000000 35886892.000000 43 42 43
22372014.000000 58810684.000000 80640936.000000 16 13 12
68024032.000000 34320196.000000 110369664.000000 10 8 9
4369063.000000 23786350.000000 34734260.000000 14 11 9
15230282.000000 44693092.000000 64175264.000000 19 17 16
-136582240.000000 194975360.000000 78670064.000000 16 15 15
-45694876.000000 -26925384.000000 -51676068.000000 24 20 19
-96595552.000000 -46629212.000000 -112889368.000000 23 22 23
7097254.500000 3447239.500000 10654583.000000 17 13 14
7025190.500000 3565544.000000 10075301.000000 11 9 10
26892672.000000 66022900.000000 78608664.000000 60 55 55
31867252.000000 141161088.000000 150485984.000000 14 12 11
160608064.000000 76592040.000000 276661120.000000 13 11 12
-5816434.000000 51379060.000000 195106176.000000 24 20 21
24999794.000000 68386728.000000 76667568.000000 22 19 18
7157091.500000 27184812.000000 26323150.000000 25 20 20
5846554.000000 2819406.000000 8344431.000000 54 53 53
27086176.000000 137921440.000000 160918224.000000 16 15 15
-89583312.000000 175563872.000000 83206040.000000 9 7 8
15719248.000000 41791376.000000 44844488.000000 23 19 18
-70882488.000000 -34980188.000000 -96716320.000000 14 12 12
-131298960.000000 194167760.000000 66473936.000000 12 10 11
7093361.000000 28465986.000000 38197104.000000 104 102 102
13589620.000000 38841936.000000 51201340.000000 49 47 46
81089016.000000 13453215.000000 89494304.000000 17 16 15
-86260104.000000 -39819204.000000 -112853016.000000 19 17 18
-585961.125000 15905309.000000 7751484.000000 16 14 13
-24626880.000000 -12442175.000000 -39504800.000000 11 9 9
-73787064.000000 -37137448.000000 -104514712.000000 51 50 50
4900967.500000 2287560.500000 6881937.000000 9 6 8
-40212732.000000 -17289042.000000 -53994392.000000 23 19 19
-96014728.000000 184042560.000000 101574432.000000 17 15 15
-45078544.000000 -23512288.000000 -59800072.000000 54 53 53
-62407432.000000 -32081272.000000 -91290032.000000 50 48 48
7491728.000000 27908506.000000 25674840.000000 26 21 21
2065546.250000 21347936.000000 14922789.000000 24 20 19
-299782880.000000 263156352.000000 -4678113.000000 9 8 9
24805688.000000 63522224.000000 71942776.000000 23 19 20
-190503456.000000 224495680.000000 39135744.000000 18 18 18
32621444.000000 140685840.000000 150638432.000000 13 10 10
-49042832.000000 -25706672.000000 -64669300.000000 76 74 74
-47281600.000000 -24725856.000000 -59741580.000000 16 13 12
18504182.000000 47158376.000000 69284248.000000 24 21 18
4850908.500000 2262276.000000 6813422.500000 14 11 12
25436434.000000 142002624.000000 163818800.000000 32 30 28
18010602.000000 45733884.000000 55008616.000000 107 104 105
-23599276.000000 -5687342.500000 -38713700.000000 18 16 15
-73387672.000000 -35680156.000000 -99667920.000000 15 13 13
4005924.500000 23896370.000000 34472408.000000 26 22 18
-36799436.000000 -16707459.000000 -48773544.000000 21 18 18
55453712.000000 26178736.000000 62882032.000000 15 13 13
-39768136.000000 -19618150.000000 -53840332.000000 16 13 13
-45668852.000000 -23489420.000000 -69628752.000000 11 9 10
30374462.000000 141094560.000000 150333792.000000 14 11 11
98716048.000000 23656670.000000 110872208.000000 37 37 39
29515116.000000 149750768.000000 156166000.000000 25 22 21
-60796732.000000 -29714240.000000 -88093336.000000 82 80 80
-207166272.000000 225657648.000000 48299412.000000 10 8 8
22314232.000000 58863064.000000 81425248.000000 43 38 35
21899286.000000 165335664.000000 182808560.000000 20 18 18
-159654992.000000 201523520.000000 65112532.000000 12 10 10
9788517.000000 5105578.500000 14320171.000000 19 18 19
254115184.000000 6516684.500000 415475712.000000 13 12 13
-38040676.000000 -19166382.000000 -58800524.000000 11 9 10
79793864.000000 24166500.000000 98338840.000000 24 22 21
26806520.000000 162179040.000000 170878624.000000 70 67 69
8929775.000000 31033344.000000 29441296.000000 14 13 13
22439086.000000 185202592.000000 184145568.000000 18 15 15
22383492.000000 54226632.000000 53015576.000000 24 21 20
-21717712.000000 -3619269.250000 -35158808.000000 33 29 28
-143167504.000000 200486896.000000 63606540.000000 11 10 9
-30314070.000000 -14969052.000000 -47852256.000000 64 60 60
16095289.000000 41778424.000000 44869364.000000 24 20 20
22824900.000000 165383856.000000 182965008.000000 17 15 14
-230594208.000000 246664944.000000 35699356.000000 10 9 10
5798583.500000 2740302.250000 8474869.000000 58 56 57
23535060.000000 57598748.000000 69129016.000000 126 125 125
26655190.000000 149247840.000000 171806112.000000 12 11 11
-263867968.000000 251312656.000000 12201673.000000 11 7 8
472364448.000000 -120933312.000000 496596320.000000 46 45 46
5980094.000000 2858303.000000 8722909.000000 12 10 10
20395008.000000 54189012.000000 75394544.000000 32 29 27
-2934632.500000 15103918.000000 12712725.000000 50 48 48
1138870.000000 19269466.000000 24731688.000000 69 68 69
50485632.000000 42347072.000000 73789104.000000 10 8 8
-218637024.000000 231522496.000000 23254888.000000 13 12 13
510975072.000000 -148528528.000000 514018304.000000 15 13 15
-260251248.000000 253981376.000000 17808498.000000 9 8 8
-21620412.000000 -3300618.750000 -35240460.000000 18 14 13
13175886.000000 36202780.000000 30432436.000000 42 36 35
-2486215.000000 14172663.000000 20641538.000000 20 18 16
-195012592.000000 220861248.000000 39654224.000000 13 10 11
2404230.750000 20735704.000000 19731714.000000 28 22 20
-125077880.000000 182233920.000000 74613816.000000 8 8 8
-4721398.500000 -2367722.000000 -8308848.500000 11 9 9
-41134924.000000 -10099596.000000 -93214712.000000 28 25 24
-46064620.000000 -22362180.000000 -65085980.000000 16 13 13
-5443626.500000 11066985.000000 15150213.000000 36 31 30
25640588.000000 67044744.000000 77723688.000000 41 37 36
20300998.000000 53459432.000000 75809088.000000 39 35 33
-54427112.000000 -27688642.000000 -77027536.000000 14 11 11
-4898219.000000 11015116.000000 15436225.000000 28 26 26
13019970.000000 38199824.000000 52020372.000000 47 46 46
-11010392.000000 17650410.000000 16701903.000000 19 18 18
-264935680.000000 251393120.000000 11830163.000000 12 9 9
-46266876.000000 -22218860.000000 -64834472.000000 15 11 11
-69789304.000000 -37621832.000000 -84535096.000000 11 10 9
228599.531250 17180520.000000 22607146.000000 12 12 11
-71916920.000000 -34492816.000000 -96031000.000000 11 8 8
-42838712.000000 -23558034.000000 -47354048.000000 20 18 17
-6313170.500000 10686690.000000 8533934.000000 19 16 16
-5202651.500000 11117983.000000 15440690.000000 31 28 26
237636848.000000 12235515.000000 405032544.000000 10 9 10
