ply
format ascii 1.0
element vertex 374
property float x
property float y
property float z
property uchar blue
property uchar green
property uchar red
end_header
-176.007614 -7.481399 -76.962410 29 28 29
0.114144 0.049416 0.150398 13 11 12
-125.034142 -15.544723 -33.882225 52 51 52
1.114612 0.323870 1.926668 26 24 24
0.018204 0.023596 0.046931 32 32 32
0.003291 0.001870 0.005972 24 23 23
-145.561737 -9.609256 -72.037460 43 44 44
20.900124 13.974501 28.774324 50 52 54
0.344713 0.182363 0.601323 48 45 43
-64.613899 -5.123906 -24.621605 29 50 105
0.108905 0.051967 0.159309 17 15 15
0.044787 0.018243 0.095970 17 15 16
0.004701 0.002388 0.007032 20 17 19
0.017458 0.009521 0.027070 16 14 14
0.694150 0.273195 0.857747 26 26 26
-78.655121 -4.487367 -36.546837 73 73 74
1.142967 0.487803 1.833704 47 43 43
0.112976 0.052207 0.156095 14 12 12
0.015831 0.022601 0.044847 16 16 15
0.380344 0.395390 0.795058 37 40 41
0.058247 0.024627 0.078473 18 16 16
-263.009155 -78.704147 -91.484367 41 40 40
0.015048 0.007010 0.021033 55 55 55
0.128631 0.060692 0.185823 17 14 14
-138.598312 -10.177996 -70.838280 20 20 20
-41.886021 -3.723607 -17.779140 110 107 107
1.434907 0.407216 1.312942 13 12 12
0.011389 0.019867 0.041161 15 15 15
-148.704300 -28.022602 -74.656990 25 24 25
0.005346 0.002566 0.008441 57 56 56
-72.445557 -12.099829 -35.721077 51 50 50
0.258820 0.109908 0.350632 53 48 48
1.247472 0.690969 3.290524 58 57 57
1.009204 0.351602 1.182668 75 74 74
45.003624 29.903669 62.305500 52 53 55
1.078457 0.384247 1.947659 20 18 18
0.550710 0.306813 1.030545 34 33 32
0.108963 0.050185 0.165848 35 33 33
-146.144745 -9.559593 -72.366898 38 39 39
-119.506073 -9.051401 -64.926910 12 12 13
0.974238 0.683396 2.616264 57 56 57
1.628880 0.797460 4.479749 31 30 30
0.008010 0.004456 0.012195 25 23 24
0.360087 0.437971 0.792153 36 38 39
0.802238 0.396992 2.188963 65 63 64
-216.609848 -64.680237 -90.839882 33 36 38
0.000881 0.000254 0.001033 24 23 23
-120.424339 -8.668108 -65.203812 28 29 30
0.013490 0.022365 0.042986 14 14 15
-170.567032 -40.395245 -39.293613 75 78 81
0.120053 0.053393 0.295147 36 35 35
1.651177 0.250508 2.586609 33 31 31
-212.102798 -14.252052 -78.262619 55 55 57
-234.170624 -29.310633 -73.527748 19 18 18
0.029018 0.015311 0.039928 9 8 9
-76.238869 -12.967916 -36.462791 36 34 34
-184.084808 -16.542730 -77.111450 28 27 27
1.100939 0.637652 1.305415 13 13 13
0.014607 0.020692 0.043960 8 6 6
-187.161560 -9.683294 -78.044052 53 54 54
-195.779846 -9.815162 -78.093277 16 16 16
0.107598 0.054544 0.187139 33 31 31
-102.527061 -16.197601 -37.849632 51 48 47
-88.186623 -14.279796 -38.066338 24 18 19
0.360806 0.123022 0.718134 61 59 61
0.122639 0.064549 0.222908 21 19 18
0.511474 0.236527 1.077398 21 31 57
-125.841827 -14.817399 -33.912846 51 50 50
1.059561 0.727783 2.766157 35 34 34
-84.683365 -10.502390 -22.398825 43 40 40
0.018523 0.023825 0.047153 15 15 14
0.661416 0.413754 1.572562 33 30 30
-71.989487 -9.922740 -24.324549 37 34 32
0.356132 0.163844 0.535325 69 67 67
-72.187683 -10.033325 -24.576330 30 26 25
1.149179 0.330361 1.861657 25 24 23
-178.881439 -9.496789 -77.175949 44 46 46
0.994908 0.671288 2.602063 41 39 39
0.000930 0.000303 0.001147 9 7 7
0.000989 0.000320 0.001284 36 34 34
0.015259 0.023473 0.044104 21 20 21
0.705981 0.276579 0.864311 35 34 34
-80.005280 -11.321823 -23.151705 41 36 35
1.120780 0.494271 1.876501 19 17 16
1.060105 0.331795 1.074109 30 28 29
0.723271 0.228632 1.505729 33 46 89
0.112137 0.048533 0.156217 52 51 51
-72.577705 -23.382690 -39.570572 72 71 72
0.000953 0.000300 0.001168 41 39 40
0.522890 0.201400 0.644618 86 81 80
1.382963 0.451738 1.413233 21 18 19
0.000922 0.000301 0.001145 10 9 10
-222.666489 -16.598053 -76.333694 11 22 57
0.015833 0.022456 0.045030 5 5 5
0.110428 0.051271 0.152572 16 14 14
-161.421707 -25.876217 -75.833305 10 8 8
-245.082611 -30.951641 -71.068993 19 19 18
1.029104 0.538703 2.525810 24 22 21
0.058478 0.026167 0.078447 17 15 15
0.030272 0.016527 0.043034 23 21 22
0.429751 0.217985 1.210886 35 33 33
-64.578064 -5.364523 -24.779026 24 45 102
1.100503 0.645083 1.303909 25 25 26
0.001659 0.000317 0.001803 7 7 10
1.105551 0.483944 1.899874 18 15 15
0.391063 0.170204 0.835367 89 88 88
-75.571274 -8.227154 -11.329734 52 48 50
0.661691 0.278571 0.897147 12 9 8
0.363998 0.160791 0.733715 87 85 89
-67.620331 -4.528051 -33.969780 24 23 23
0.519477 0.235525 1.082900 11 15 34
-239.997650 -31.538193 -72.423622 12 11 11
-114.251495 -15.630462 -36.338146 18 14 14
0.896582 0.375084 1.368300 21 17 16
-56.832706 -5.726267 -11.050900 41 36 37
1.425111 0.407411 1.309092 25 24 25
0.015079 0.007957 0.021940 12 10 11
0.898249 0.416415 2.268588 65 63 61
-71.944794 -12.456420 -35.762714 41 40 40
-209.669846 -13.108367 -77.376823 48 49 56
0.698359 0.253274 0.845297 112 111 111
0.058213 0.025025 0.076541 18 15 16
1.242955 0.685394 3.266646 43 41 41
0.598685 0.288073 0.976871 30 28 27
0.686456 0.465785 1.800853 41 38 38
0.007959 0.004234 0.012216 47 47 47
0.007200 0.003968 0.011273 20 18 18
0.567966 0.165125 1.053816 18 28 61
0.001295 0.000502 0.001960 31 29 29
0.015579 0.008288 0.027864 14 13 13
-69.627731 -7.242160 -14.442538 100 98 99
0.006372 0.002898 0.008949 23 19 21
0.377275 0.410729 0.792831 35 37 38
-50.516247 -6.241171 -13.228663 67 62 62
-50.232769 -6.032650 -13.269678 94 90 89
-138.796249 -14.074367 -70.728256 36 35 35
0.016795 0.023635 0.045609 23 24 24
-154.809113 -10.236065 -74.091171 15 15 15
0.557752 0.307129 1.019234 19 16 16
-167.924576 -26.340813 -76.384697 27 27 27
1.033306 0.644687 1.763225 18 16 16
0.577151 0.276353 1.276227 67 64 63
0.592683 0.260762 1.276132 60 59 59
0.430599 0.272742 1.018942 30 27 26
1.285133 0.447756 1.619283 12 9 9
-338.165619 -81.246513 -82.132835 72 72 72
1.438043 0.399735 1.298614 27 26 28
-88.241386 -14.108450 -38.056450 37 33 31
0.552478 0.305843 1.029870 21 17 16
0.112536 0.048476 0.155428 35 33 33
-44.511032 -2.206944 -18.091753 82 77 80
0.002498 0.001309 0.004838 23 22 21
0.672362 0.260544 0.922739 33 29 28
0.354724 0.150944 0.706172 88 86 87
0.990004 0.598583 1.405000 72 72 72
0.038463 0.017666 0.058515 26 22 21
-229.490616 -34.263153 -74.935150 18 17 18
0.006756 0.003592 0.009810 21 20 21
0.011634 0.006175 0.017244 17 15 15
-56.731647 -8.929415 -24.640965 59 56 54
0.000942 0.000322 0.001190 13 11 11
-43.549820 -6.691308 -18.294964 84 78 78
0.628250 0.298543 0.941459 23 20 20
-52.113190 -3.268151 -18.663076 137 135 145
0.000950 0.000294 0.001144 14 11 13
0.126085 0.067328 0.239260 14 12 10
-309.798523 -28.699924 -44.763134 22 22 23
0.011163 0.004346 0.023106 61 60 60
0.101305 0.047659 0.136658 18 16 16
-72.490471 -4.865005 -35.303120 22 19 20
0.216172 0.219896 0.414797 31 31 31
-96.468620 -31.220024 -44.265953 10 10 10
-83.224037 -4.657746 -37.183315 43 42 42
0.204912 0.223691 0.416731 11 12 13
0.018483 0.023728 0.047000 16 16 15
-111.693825 -16.566753 -36.860771 44 41 41
-63.244717 -7.859371 -16.634169 43 38 38
0.369291 0.178938 0.815728 58 55 55
0.000838 0.000254 0.000960 14 12 13
-119.239372 -8.401567 -64.218781 50 50 51
0.104381 0.045777 0.250104 15 12 13
-75.761040 -12.253670 -36.426361 20 17 16
1.118082 0.333736 1.910668 48 47 47
0.002675 0.001292 0.004236 67 65 65
0.661831 0.301734 0.898645 36 34 34
1.029421 0.642811 1.761562 24 23 22
-87.658913 -13.216144 -37.961220 22 20 20
0.810959 0.267043 1.497934 52 50 50
0.356919 0.170786 0.587101 66 64 63
1.042184 0.421920 2.357827 49 47 47
-95.291847 -31.218912 -43.164387 15 14 14
-157.556000 -25.284794 -75.070435 42 41 42
0.424120 0.380055 0.790371 40 43 43
0.143204 0.066023 0.377248 56 56 56
-220.263657 -30.122866 -77.250450 39 39 39
0.108375 0.052153 0.158457 51 50 50
1.109326 0.564775 1.323152 66 68 70
0.056810 0.025693 0.076037 24 21 22
-69.326813 -4.157470 -24.719467 111 111 116
1.123972 0.573424 1.309749 35 39 42
-72.443222 -12.066609 -35.751965 55 55 55
0.076173 0.033548 0.149911 27 42 90
-87.474960 -13.150480 -38.109207 40 39 38
-170.475815 -15.572088 -76.085869 15 13 14
0.393393 0.425041 0.785506 8 7 8
1.108699 0.563945 1.323490 66 68 70
0.016765 0.023496 0.045358 11 11 11
0.117956 0.067987 0.215117 31 29 28
0.376400 0.166729 0.545789 50 47 47
0.055143 0.031397 0.143253 24 22 22
-281.446350 -29.793083 -60.161983 15 14 15
1.243674 0.536966 1.689388 20 17 17
0.197689 0.208850 0.419975 54 58 60
-192.337372 -9.505362 -77.228058 44 46 46
-61.430019 -5.851138 -8.519265 130 128 131
0.005299 0.002540 0.008368 35 34 34
-85.795258 -13.446012 -37.964325 40 38 38
0.658398 0.279521 0.901745 17 15 15
1.022115 0.354354 1.188505 40 38 38
0.392894 0.394558 1.074053 56 55 55
-58.335121 -2.379781 -24.775835 68 66 66
-240.149979 -30.808619 -72.599266 35 35 35
-138.359070 -24.521801 -71.582275 54 54 55
-154.159668 -50.526005 -84.989189 16 18 20
0.080570 0.033820 0.181410 26 24 25
-196.937866 -9.807651 -78.799377 30 30 31
-48.770271 -2.376104 -18.559458 33 29 30
1.189822 0.381908 1.811749 15 14 14
0.816646 0.267516 1.499835 50 47 47
0.000772 0.000225 0.000941 57 56 56
0.002328 0.000889 0.004356 46 47 60
0.751490 0.238816 0.770774 62 60 62
0.000992 0.000361 0.001278 39 37 38
1.097745 0.722188 1.783114 4 4 4
-72.459236 -9.493315 -24.551329 84 80 78
-62.717155 -7.492036 -16.737812 100 96 95
0.014336 0.021214 0.043822 30 32 32
0.034790 0.016347 0.074246 13 18 40
-179.986328 -9.576224 -77.646523 51 52 52
0.059061 0.030535 0.107304 21 17 17
0.136221 0.062234 0.348466 12 10 11
0.000965 0.000326 0.001227 9 7 8
-118.081642 -15.348182 -35.701054 25 23 23
-303.721924 -33.427437 -47.268303 19 18 20
1.148398 0.378256 1.860753 49 49 48
-38.873253 -2.089096 -17.257517 74 70 72
0.393052 0.415036 1.164419 55 54 54
-214.521683 -63.394958 -88.716278 38 41 44
-97.597931 -0.021373 -38.519958 21 38 87
0.002396 0.001100 0.004033 20 17 17
-105.420441 -1.941065 -38.417255 86 86 89
0.016902 0.008591 0.024313 25 22 23
-113.260674 -15.489216 -36.854336 15 13 13
0.339141 0.182166 0.655289 53 49 48
0.216911 0.218322 0.415449 24 24 25
0.338762 0.392206 0.801258 10 10 11
-48.847652 -2.415772 -18.608063 51 46 48
1.096656 0.393963 1.972275 41 41 40
-55.085159 -7.050228 -18.126745 41 36 34
-156.201447 -28.936470 -75.784988 18 17 17
-110.871429 -8.175826 -37.130802 19 34 86
-97.101822 -4.739723 -38.236736 63 63 63
0.008704 0.004125 0.013187 16 14 14
0.000857 0.000248 0.001010 34 32 33
1.006012 0.590003 1.386683 48 49 50
-153.447418 -15.096504 -22.299738 21 20 21
0.693842 0.274468 0.857466 33 31 31
0.057239 0.025609 0.076988 67 65 64
-91.555382 -8.101776 -37.703068 60 58 59
0.906562 0.397746 1.349135 41 38 37
0.015393 0.021205 0.045162 37 38 39
0.000942 0.000324 0.001194 24 23 23
-276.331268 -31.345600 -61.744843 53 53 55
1.085210 0.678677 1.788660 37 38 38
1.168431 0.296934 1.846265 23 21 22
-204.716141 -64.392990 -88.849190 4 5 5
0.008126 0.004533 0.012352 16 15 15
0.065499 0.030579 0.099743 43 41 41
0.136245 0.073825 0.265676 38 35 34
0.000944 0.000317 0.001203 10 8 9
-281.155945 -31.440371 -60.534187 32 31 32
-156.002167 -15.506021 -74.268738 32 32 32
0.689346 0.269452 0.855761 23 22 22
-48.719627 -2.385862 -18.472540 52 48 50
-219.789474 -30.773932 -76.105141 27 27 27
-71.700310 -12.021922 -35.744919 23 21 22
0.087527 0.052196 0.182681 58 56 56
-148.933701 -47.142395 -82.762779 49 49 50
-143.940872 -24.736254 -72.643028 22 21 22
-108.798683 -14.374695 -37.449131 54 51 51
-142.630951 -27.483723 -73.672646 12 11 10
-81.526054 -10.192107 -23.131218 45 43 42
0.000853 0.000275 0.001004 32 30 30
1.083865 0.497732 1.942117 19 18 18
-145.877747 -9.542508 -72.487595 51 52 53
-157.708618 -9.350530 -74.664604 24 24 25
0.015541 0.021091 0.045254 39 40 41
0.756691 0.242166 0.776266 63 61 63
-89.672363 -4.687697 -37.616428 24 21 22
0.534686 0.347399 1.242541 31 29 29
-92.774712 -10.280029 -19.304136 30 25 25
0.135745 0.075350 0.269199 24 21 20
0.404536 0.360515 0.791301 41 43 43
0.396156 0.159019 0.517291 24 21 21
0.096447 0.049382 0.167817 17 14 13
0.513811 0.132300 0.840519 150 147 150
0.001287 0.000469 0.001759 15 13 13
1.056331 0.360731 1.096957 36 35 36
-50.208279 -2.084662 -18.679449 147 144 146
0.416633 0.379438 0.792907 10 11 12
0.000944 0.000323 0.001198 16 14 14
-145.785706 -24.483770 -73.026512 30 29 29
-154.553009 -25.579901 -74.915054 47 46 47
1.143682 0.474160 1.837799 16 14 14
0.003762 0.001880 0.006458 18 16 16
-254.279953 -29.653732 -69.721733 40 41 42
-195.319000 -9.791786 -77.832130 30 31 32
0.018277 0.023382 0.046828 14 14 14
0.707020 0.365683 0.832165 51 53 55
0.390639 0.422215 0.786487 15 17 18
0.303858 0.119676 0.629926 60 59 59
-96.083168 -6.174308 -38.455250 86 85 86
-43.242233 -5.669357 -14.596696 82 77 75
-104.144264 -16.101810 -37.823814 41 38 38
0.013938 0.006446 0.029523 18 28 59
-216.993561 -30.350695 -75.052048 23 21 21
1.299032 0.478230 1.604971 18 16 16
-230.055771 -29.280180 -74.386337 14 14 14
12.623681 6.636898 17.386681 21 19 20
-40.895512 -2.185945 -17.385626 56 53 54
-50.243958 -5.796197 -13.269279 39 34 33
0.020200 0.010791 0.029336 13 11 12
0.599317 0.283144 0.978353 12 9 8
-93.745804 -10.277884 -18.721556 22 19 20
-184.220642 -16.637930 -77.022499 22 20 21
0.096552 0.056137 0.200369 53 51 50
-145.593826 -24.407459 -73.547943 47 46 47
0.052930 0.023232 0.071142 38 35 35
1.375246 0.423893 1.441331 28 27 27
0.105806 0.051829 0.160515 17 15 15
-243.919693 -30.211319 -71.922714 10 9 9
-337.627380 -82.000282 -80.693695 39 40 40
0.059436 0.024573 0.077302 37 35 36
-71.437157 -11.917686 -35.666725 44 42 42
1.003738 0.596811 1.389201 53 54 53
-93.277184 -9.796698 -19.344025 59 56 57
-67.317726 -7.217175 -33.916672 43 43 43
0.550898 0.251102 1.185363 89 86 87
-72.957413 -5.219267 -24.199163 28 48 116
1.118287 0.558080 1.316435 44 46 48
-213.937500 -29.693184 -76.989479 54 54 55
0.008729 0.004347 0.012461 25 22 23
-170.275101 -10.919184 -76.376884 23 22 22
0.243085 0.085062 0.726414 54 52 54
-75.859322 -12.333291 -36.424999 34 30 30
0.195727 0.217077 0.418682 54 57 59
-208.916916 -64.150864 -90.725830 8 8 9
0.486693 0.246823 1.141832 85 84 83
-333.946167 -82.161034 -82.053764 66 64 63
0.729452 0.496343 1.916628 47 44 43
1.103262 0.646600 1.305124 23 22 24
-155.049149 -15.308266 -73.781799 24 24 24
1.205569 0.349994 1.783637 57 56 57
-149.870789 -9.214358 -73.321136 43 45 45
0.003566 0.001514 0.007165 20 27 51
0.004569 0.002235 0.007320 57 57 57
0.540423 0.205739 0.611114 81 77 79
0.007190 0.003827 0.011137 13 12 12
-72.353317 -12.707512 -35.964714 21 19 19
0.015175 0.008327 0.030246 42 39 38
-278.951874 -30.951612 -61.952690 53 54 56
1.140077 0.316479 1.873083 53 53 53
-240.371613 -30.465500 -72.556953 11 10 10
-122.373161 -15.612383 -66.210220 21 20 20
