ply
format ascii 1.0
element vertex 373
property float x
property float y
property float z
property uchar blue
property uchar green
property uchar red
end_header
63.013184 22.975225 150.569702 29 28 29
0.146586 0.061540 0.198389 13 11 12
29.559238 12.803823 49.267456 52 51 52
1.283119 0.601498 3.549380 26 24 24
0.020122 0.026358 0.053426 32 32 32
0.003287 0.001899 0.005983 24 23 23
56.830879 26.342669 157.782196 43 44 44
21.070032 13.649997 28.770945 50 52 54
0.473583 0.246251 0.867687 48 45 43
19.932421 8.554648 43.170792 29 50 105
0.140286 0.065099 0.210844 17 15 15
0.037523 0.014519 0.081292 17 15 16
0.007095 0.003577 0.010588 20 17 19
0.023583 0.012540 0.036419 16 14 14
0.900835 0.331116 1.157598 26 26 26
29.945826 13.087925 78.283310 73 73 74
1.194322 0.764427 2.948186 47 43 43
0.145332 0.065257 0.206276 14 12 12
0.017202 0.024911 0.050284 16 16 15
0.022826 0.029843 0.063442 37 40 41
0.104919 0.044941 0.148447 18 16 16
103.505554 78.116081 189.854034 41 40 40
0.019168 0.008692 0.026708 55 55 55
0.165928 0.076060 0.246450 17 14 14
54.831806 27.178432 158.702499 20 20 20
15.156070 7.437357 37.137886 110 107 107
1.602827 0.547451 2.069070 13 12 12
0.011978 0.021399 0.044839 15 15 15
53.796116 40.388142 150.952591 25 24 25
0.006495 0.003104 0.010271 57 56 56
28.875914 20.651320 81.700516 51 50 50
0.311453 0.135153 0.453839 53 48 48
1.307847 0.705626 3.608469 58 57 57
1.175882 0.467883 1.753201 75 74 74
45.692436 29.412031 62.746857 52 53 55
1.204961 0.701058 3.537865 20 18 18
0.734994 0.398112 1.435186 34 33 32
0.140730 0.062916 0.220150 35 33 33
56.218426 25.923452 155.972290 38 39 39
1.024909 0.709084 2.878034 57 56 57
1.741878 0.823393 5.020727 31 30 30
0.010269 0.005637 0.015602 25 23 24
0.020505 0.031451 0.060918 36 38 39
1.008843 0.462982 2.782839 65 63 64
75.529694 63.832558 165.307388 33 36 38
0.001036 0.000454 0.001283 24 23 23
47.803822 25.219343 151.607849 28 29 30
0.014401 0.024280 0.047431 14 14 15
41.101402 24.822165 62.825291 75 78 81
0.122660 0.051767 0.305256 36 35 35
1.879156 0.245678 3.046273 33 31 31
70.808525 26.079762 143.478195 55 55 57
63.174839 27.736540 113.703064 19 18 18
0.036960 0.018926 0.050599 9 8 9
29.648516 20.833054 80.634338 36 34 34
64.158218 28.713221 146.644867 28 27 27
0.165759 0.124334 0.281231 13 13 13
0.015829 0.022822 0.049160 8 6 6
0.139892 0.069008 0.250394 33 31 31
31.039299 17.397787 64.282860 51 48 47
32.209946 20.159548 77.398766 24 18 19
0.392859 0.127066 0.811905 61 59 61
0.159288 0.081664 0.298377 21 19 18
0.722993 0.323462 1.598023 21 31 57
28.805105 12.100994 47.621891 51 50 50
1.135870 0.768565 3.097992 35 34 34
18.574877 8.235682 30.815481 43 40 40
0.020516 0.026654 0.053777 15 15 14
0.674748 0.414247 1.671687 33 30 30
19.037010 9.767203 37.360306 37 34 32
0.219182 0.101283 0.350736 69 67 67
19.528252 10.079326 38.414917 30 26 25
1.277817 0.567108 3.207873 25 24 23
63.172466 24.128384 148.761063 44 46 46
1.050359 0.697658 2.870333 41 39 39
0.001079 0.000511 0.001412 9 7 7
0.001145 0.000525 0.001585 36 34 34
0.016537 0.025773 0.049313 21 20 21
0.995357 0.364969 1.270888 35 34 34
18.592663 9.077433 32.696522 41 36 35
1.218367 0.828579 3.202590 19 17 16
1.294696 0.446485 1.652908 30 28 29
1.016047 0.303928 2.217449 33 46 89
0.144481 0.060598 0.206770 52 51 51
28.969351 34.158165 92.458626 72 71 72
0.001122 0.000511 0.001458 41 39 40
0.534016 0.251131 0.857785 86 81 80
1.432563 0.578228 2.064140 21 18 19
0.001057 0.000505 0.001396 10 9 10
65.202034 23.893009 124.928177 11 22 57
0.017246 0.024809 0.050588 5 5 5
0.141999 0.064080 0.201519 16 14 14
58.155575 37.519363 150.440536 10 8 8
63.088383 26.906958 107.860542 19 19 18
1.054292 0.536174 2.700635 24 22 21
0.105232 0.047854 0.148225 17 15 15
0.039026 0.020686 0.055185 23 21 22
0.806488 0.413122 2.482152 35 33 33
19.826025 8.677554 43.038292 24 45 102
0.161792 0.123225 0.275254 25 25 26
0.002636 0.000541 0.002891 7 7 10
1.210410 0.831327 3.304561 18 15 15
0.698935 0.294766 1.565537 89 88 88
11.239330 4.365301 14.796356 52 48 50
0.813790 0.322578 1.146115 12 9 8
0.599358 0.256351 1.259968 87 85 89
31.124741 14.636914 86.096642 24 23 23
0.772994 0.339446 1.694607 11 15 34
61.421906 27.142937 107.631668 12 11 11
1.140648 0.584907 2.278145 21 17 16
9.908356 4.030570 14.569325 41 36 37
1.544547 0.529845 1.994927 25 24 25
0.019480 0.010032 0.028235 12 10 11
1.155696 0.524217 3.089325 65 63 61
28.498411 20.947664 81.291649 41 40 40
67.258507 24.238863 136.766449 48 49 56
0.659219 0.284959 1.029901 112 111 111
0.101349 0.044396 0.140553 36 33 33
1.302606 0.699493 3.580483 43 41 41
0.749206 0.345209 1.271441 30 28 27
1.071172 0.731199 2.982654 41 38 38
0.010275 0.005392 0.015748 47 47 47
0.009371 0.005108 0.014657 20 18 18
0.848569 0.230194 1.653075 18 28 61
0.001546 0.000757 0.002497 31 29 29
0.012219 0.006325 0.021989 14 13 13
12.785282 5.127479 19.036142 100 98 99
0.008863 0.003918 0.012343 23 19 21
0.022412 0.030602 0.062806 35 37 38
10.825328 5.095656 18.455097 67 62 62
10.859039 5.042831 18.553259 94 90 89
54.158360 30.370468 156.338669 36 35 35
0.018381 0.026174 0.051457 23 24 24
57.914539 25.878635 153.671783 15 15 15
0.723081 0.386105 1.376941 19 16 16
58.389107 36.202335 145.560532 27 27 27
0.503139 0.465800 1.301873 18 16 16
0.873557 0.407940 2.024715 67 64 63
0.594048 0.251892 1.330677 60 59 59
0.448977 0.279430 1.106681 30 27 26
1.324868 0.619140 2.410635 12 9 9
147.212402 81.981995 212.086319 72 72 72
1.596138 0.532063 2.032711 27 26 28
31.734619 19.783121 76.277122 37 33 31
0.737923 0.397059 1.435582 21 17 16
0.144814 0.060448 0.205469 35 33 33
15.165966 6.115402 35.446068 82 77 80
0.002330 0.001264 0.004540 23 22 21
0.794084 0.368979 1.402756 33 29 28
0.634738 0.262661 1.324623 88 86 87
63.850147 28.199207 146.286118 16 16 16
0.123414 0.104684 0.258122 72 72 72
0.091072 0.042483 0.144921 26 22 21
64.624153 31.622063 119.268768 18 17 18
0.009661 0.004987 0.013884 21 20 21
0.015413 0.008012 0.022774 17 15 15
19.657816 12.305630 48.279896 59 56 54
0.001083 0.000533 0.001456 13 11 11
14.767439 9.194604 35.868286 84 78 78
0.779435 0.352868 1.213660 23 20 20
15.286290 6.046360 31.469009 137 135 145
0.001137 0.000511 0.001447 14 11 13
0.163803 0.085225 0.320630 14 12 10
43.155525 13.263024 54.882294 22 22 23
0.004683 0.001791 0.009625 61 60 60
0.129882 0.059461 0.179876 18 16 16
28.843493 13.836229 80.271362 22 19 20
0.023023 0.029594 0.059913 31 31 31
34.286682 34.324696 86.254860 10 10 10
30.999189 13.014141 77.516472 43 42 42
0.020569 0.028991 0.057900 11 12 13
0.020484 0.026560 0.053630 16 16 15
29.319971 15.044392 55.622681 44 41 41
13.809952 6.333315 23.175600 43 38 38
0.417494 0.194420 0.950779 58 55 55
0.000990 0.000465 0.001197 14 12 13
49.624477 26.133894 157.149490 50 50 51
0.106251 0.044209 0.257658 15 12 13
29.668453 20.340790 80.988617 20 17 16
1.265030 0.601787 3.431374 48 47 47
0.004222 0.002142 0.006834 67 65 65
0.824335 0.355389 1.162951 36 34 34
0.465891 0.433299 1.212176 24 23 22
31.680725 19.235594 76.637222 22 20 20
1.193606 0.513150 2.997428 52 50 50
0.431592 0.201886 0.743419 66 64 63
1.048073 0.405597 2.470415 49 47 47
31.682051 31.848866 79.249840 15 14 14
56.445881 36.927219 148.740280 42 41 42
0.028605 0.031233 0.068790 40 43 43
0.146718 0.064281 0.391522 56 56 56
68.328346 33.037830 132.704605 39 39 39
0.139606 0.065355 0.209711 51 50 50
0.174840 0.116030 0.298161 66 68 70
0.089232 0.042295 0.126758 22 19 20
19.559916 7.478230 39.912853 111 111 116
0.183276 0.120570 0.304356 35 39 42
29.557968 21.135944 83.711929 55 55 55
0.136802 0.058614 0.278963 27 42 90
31.320751 19.010092 75.933022 40 39 38
63.103134 29.911186 154.268219 15 13 14
0.024107 0.032124 0.063676 8 7 8
0.174624 0.115810 0.298024 66 68 70
0.018369 0.026048 0.051224 11 11 11
0.153098 0.086265 0.287650 31 29 28
0.441229 0.191877 0.675052 50 47 47
0.071993 0.040034 0.193102 24 22 22
54.310623 19.209766 79.186340 15 14 15
1.290314 0.767330 2.575009 20 17 17
0.019485 0.026933 0.057587 54 58 60
64.019066 22.771454 140.660263 44 46 46
1.304902 0.654257 2.460998 13 10 10
8.461610 3.262272 11.048054 130 128 131
0.006108 0.002916 0.009655 35 34 34
29.995409 18.767817 73.897705 40 38 38
0.808671 0.323580 1.150495 17 15 15
1.329584 0.526597 1.963080 40 38 38
0.393849 0.396015 1.118143 56 55 55
19.619919 7.504754 46.837505 68 66 66
65.724876 28.737299 115.255058 35 35 35
53.087025 40.016468 156.252762 54 54 55
57.213856 66.654724 176.853455 16 18 20
0.080403 0.031978 0.183146 26 24 25
69.056442 24.469343 150.379074 30 30 31
15.282655 5.851770 33.231400 33 29 30
1.330459 0.635521 3.083835 15 14 14
1.227809 0.526495 3.068824 50 47 47
0.000751 0.000358 0.000963 57 56 56
0.002629 0.001113 0.005132 46 47 60
0.850135 0.309456 1.104744 62 60 62
0.001166 0.000593 0.001599 39 37 38
0.950746 0.914828 2.336560 4 4 4
19.881941 9.947863 38.997250 84 80 78
13.497616 6.135740 22.888571 100 96 95
0.015455 0.023276 0.048785 30 32 32
0.025863 0.011649 0.055692 13 18 40
63.208546 24.101791 148.582687 51 52 52
0.112815 0.057620 0.212880 21 17 17
0.139176 0.060399 0.360501 12 10 11
0.001120 0.000539 0.001516 9 7 8
29.130302 13.463244 51.968445 25 23 23
43.894314 14.781600 57.066532 19 18 20
1.276606 0.644946 3.209860 49 49 48
14.819842 6.535162 38.314732 74 70 72
0.649509 0.714506 2.070386 55 54 54
75.249741 63.008442 163.645432 38 41 44
30.420280 8.462316 66.688850 21 38 87
63.851662 27.324556 111.864357 16 14 13
0.003512 0.001729 0.006110 20 17 17
32.324512 9.572762 65.983765 86 86 89
0.021883 0.010833 0.031358 25 22 23
31.142626 15.215707 58.346821 15 13 13
0.550384 0.290596 1.114669 53 49 48
0.023288 0.029563 0.060318 24 24 25
0.018474 0.027919 0.059791 10 10 11
15.330114 5.884945 33.325439 51 46 48
1.309500 0.779308 3.882845 41 41 40
14.596425 7.298776 28.332968 41 36 34
56.941296 41.020554 152.934525 18 17 17
32.496925 12.384067 62.314022 19 34 86
32.077682 11.839664 70.241714 63 63 63
0.011321 0.005272 0.017134 16 14 14
0.000982 0.000438 0.001224 34 32 33
0.127745 0.103797 0.257939 48 49 50
9.646890 3.684582 13.565897 21 20 21
0.895587 0.330925 1.151003 33 31 31
0.101398 0.046205 0.143555 48 46 45
31.352009 14.465103 71.894485 60 58 59
1.118338 0.596935 2.170915 41 38 37
0.016769 0.023477 0.050741 37 38 39
0.001079 0.000534 0.001457 24 23 23
56.301926 20.835249 83.749001 53 53 55
0.869745 0.800502 2.174028 37 38 38
1.316956 0.515066 3.201157 23 21 22
70.208763 63.649548 160.541763 4 5 5
0.010353 0.005697 0.015702 16 15 15
0.114292 0.053350 0.182309 43 41 41
0.176356 0.093152 0.355071 38 35 34
0.001077 0.000521 0.001462 10 8 9
55.361462 20.120293 80.905914 32 31 32
59.748024 31.032379 157.508224 32 32 32
0.854230 0.311504 1.101982 23 22 22
15.108453 5.791197 32.808949 52 48 50
64.568092 31.454035 124.567146 27 27 27
29.019857 21.040121 83.169716 23 21 22
0.114246 0.066673 0.245790 58 56 56
55.194496 63.541134 173.605286 49 49 50
52.929287 38.101295 150.480896 22 21 22
31.237740 15.396049 60.987610 54 51 51
54.719181 42.978050 159.589615 12 11 10
60.550365 26.010908 103.586258 12 12 11
0.000976 0.000479 0.001215 32 30 30
1.208615 0.899657 3.529234 19 18 18
56.068512 25.908104 156.094559 51 52 53
0.016967 0.023396 0.050940 39 40 41
0.924822 0.339195 1.204155 63 61 63
31.373260 12.340342 73.321831 24 21 22
0.023191 0.029463 0.095436 31 29 29
16.937141 6.706302 24.923656 30 25 25
0.175533 0.095074 0.359526 24 21 20
0.025585 0.028535 0.065626 41 43 43
0.440871 0.173379 0.608335 24 21 21
0.124592 0.062140 0.222994 17 14 13
0.915565 0.287064 1.897251 150 147 150
0.001561 0.000723 0.002252 15 13 13
1.316130 0.498408 1.727401 36 35 36
15.045856 5.520062 32.057251 147 144 146
0.027609 0.030823 0.068080 10 11 12
0.001081 0.000532 0.001461 16 14 14
55.891434 39.516262 157.296082 30 29 29
55.929760 37.770573 150.357803 47 46 47
1.211861 0.755466 3.000005 16 14 14
0.004101 0.002072 0.007069 18 16 16
61.330990 24.562908 101.246796 40 41 42
65.419556 23.195059 142.410370 30 31 32
0.020238 0.026164 0.053392 14 14 14
0.919800 0.448382 1.126222 51 53 55
0.023804 0.031817 0.063476 15 17 18
0.339255 0.128027 0.730525 60 59 59
31.789499 12.831587 70.533508 86 85 86
11.620044 6.059472 23.124699 82 77 75
30.355339 16.710220 62.229820 41 38 38
0.005742 0.002586 0.012097 18 28 59
62.771076 30.646055 121.462082 23 21 21
1.366615 0.668746 2.436168 18 16 16
64.862679 29.111185 119.088989 14 14 14
12.702551 6.444874 17.394033 21 19 20
14.407645 6.132350 35.583656 56 53 54
10.881343 4.966929 18.593922 39 34 33
0.026198 0.013621 0.037874 13 11 12
0.757996 0.342682 1.287269 12 9 8
66.509811 65.974380 166.993347 13 14 14
16.658834 6.517395 24.094612 22 19 20
63.811905 28.581161 145.631866 22 20 21
0.126890 0.072101 0.271564 53 51 50
1.211089 0.891356 3.546223 29 28 28
55.000206 38.965019 155.915695 47 46 47
0.092572 0.041050 0.129242 38 35 35
1.446870 0.559003 2.142908 28 27 27
0.136387 0.065021 0.212611 17 15 15
63.969238 27.176744 110.386536 10 9 9
137.590012 76.807091 197.001373 39 40 40
0.106490 0.044742 0.145528 37 35 36
0.125989 0.104156 0.256130 53 54 53
17.424156 6.705465 25.554434 59 56 57
28.304071 16.673708 82.679657 43 43 43
0.833528 0.368825 1.876762 89 86 87
19.132751 7.440525 36.946068 28 48 116
0.180527 0.116783 0.303130 44 46 48
66.835999 33.098198 132.831604 54 54 55
0.012124 0.005784 0.017085 25 22 23
62.582870 26.141090 153.684631 23 22 22
0.008472 0.008387 0.041988 54 52 54
29.704489 20.438992 81.163567 34 30 30
0.018990 0.027618 0.056843 54 57 59
78.274612 69.526978 177.903488 8 8 9
0.561447 0.272808 1.352352 85 84 83
133.102753 75.502983 193.228119 66 64 63
1.045479 0.714060 2.901067 47 44 43
0.166056 0.126018 0.281349 23 22 24
57.590828 29.814566 152.027573 24 24 24
1.336380 0.570795 2.975981 57 56 57
57.529301 25.666412 156.879715 43 45 45
0.003127 0.001390 0.006394 20 27 51
0.005170 0.002533 0.008297 57 57 57
0.497395 0.229795 0.734743 81 77 79
0.009322 0.004906 0.014426 13 12 12
29.387630 21.736401 83.825615 21 19 19
0.007515 0.003898 0.014641 42 39 38
58.916065 21.507271 87.227020 53 54 56
1.267483 0.548290 3.241816 53 53 53
63.662037 27.631981 111.539604 11 10 10
47.423229 31.628567 149.927109 21 20 20
