ply
format ascii 1.0
element vertex 302
property float x
property float y
property float z
property uchar blue
property uchar green
property uchar red
end_header
938.993774 584.067871 -2519.641113 30 26 25
-0.213947 0.045425 -0.300452 8 7 8
901.004700 584.682312 -2340.231934 26 24 24
938.651978 583.578369 -2518.601807 35 33 33
9301382.000000 7085251.000000 12649831.000000 50 52 54
-0.303713 -0.275748 -0.874302 33 30 30
-1580.778198 -411.903259 -5024.696289 48 45 43
-8.561158 0.141394 -8.725337 17 15 15
-0.311804 -0.281699 -0.890622 13 12 12
938.879700 583.779907 -2520.023438 26 26 26
938.772583 584.644958 -2518.608398 51 52 53
939.183838 584.645264 -2519.609863 47 43 43
-4303.496094 -1698.160278 -6217.134277 14 12 12
-21.161177 -4.376247 -25.631687 11 9 9
939.491150 584.395630 -2520.390137 13 12 13
939.581177 584.704712 -2520.103760 24 23 23
63091140.000000 34696200.000000 85182944.000000 55 55 55
-12461702.000000 493034.250000 36958128.000000 17 16 16
-128137256.000000 -1630920.625000 460929760.000000 30 30 30
939.489624 584.397400 -2520.395020 13 12 12
973.596558 572.679382 -2663.791992 25 24 25
939.169067 584.661255 -2519.586670 24 23 22
-702.985046 -140.900955 -2987.347900 23 19 19
938.104004 583.447144 -2518.755127 10 10 11
-3.183616 2.199963 -0.337835 58 57 57
939.124390 584.082397 -2520.013428 75 74 74
938.919617 584.232178 -2512.928955 20 18 18
-0.229835 0.007710 -0.339660 11 11 11
938.551636 583.607849 -2519.002686 34 33 32
41761280.000000 2425442.750000 -136188880.000000 38 39 39
935.675598 588.357666 -2495.525879 12 12 13
-3.299918 2.215926 -0.557770 57 56 57
-3.043764 2.188131 -0.037213 30 29 29
937.007324 583.063599 -2517.225098 9 9 10
-10843.054688 -3756.923096 -16788.132812 24 22 22
-315019.687500 -36234.941406 -648045.312500 43 39 40
936.770264 582.955261 -2516.746826 36 38 39
24713946.000000 14747504.000000 39527792.000000 43 42 42
1115.165649 570.010315 -3013.304932 28 29 30
-3.592595 2.164422 -1.168737 14 14 15
24533150.000000 15067291.000000 32820552.000000 9 8 9
950.245117 581.621033 -2565.710693 36 34 34
38297.183594 3255.494385 -161049.796875 28 27 27
939.483276 584.391174 -2519.949707 13 13 13
-3.579513 2.166752 -1.141745 8 6 6
-0.229680 -0.020268 -0.389970 42 42 44
-58402.335938 -18775.230469 -101813.359375 33 31 31
939.064880 584.750366 -2519.329346 37 35 35
938.567749 583.607666 -2518.978760 17 15 14
55445.484375 6012.647461 119353.890625 89 86 87
21469.195312 6831.320312 38977.664062 21 19 18
938.688782 583.627686 -2519.012451 21 31 57
-3.303219 2.215736 -0.579536 35 34 34
952.465210 171.203369 1805.820801 60 58 59
255.040710 243.136230 770.185669 23 23 23
939.361023 584.499817 -2520.055176 18 16 15
-0.233504 -0.107849 -0.546928 6 5 6
-3.344069 2.201911 -0.694172 33 30 30
939.232056 584.628235 -2519.902588 25 24 23
938.996887 584.103455 -2519.516357 24 39 77
-0.317853 -0.285917 -0.899376 9 7 7
-1.904289 1.137433 -0.693298 40 40 41
939.137573 584.687317 -2519.495361 19 17 16
939.496216 584.395203 -2520.410889 20 19 20
1218.926514 358.422546 74.646172 33 46 89
23438210.000000 13784777.000000 33217930.000000 52 51 51
-21258.744141 -3088.979248 -45316.792969 79 76 76
1419245.750000 847404.625000 2252605.000000 92 87 86
-0.315155 -0.284079 -0.895552 10 9 10
655.024170 263.790192 951.875549 16 14 14
845.262634 605.312256 -2113.357178 10 8 8
938.955017 584.075684 -2519.486816 66 63 60
-3.230167 2.192101 -0.464666 24 22 21
8856967.000000 5589507.500000 12253624.000000 23 21 22
938.563782 583.526306 -2518.211426 35 33 33
18185742.000000 5268468.500000 18929672.000000 7 7 10
939.113159 584.708740 -2519.453125 18 15 15
15304.288086 2423.200928 28194.501953 89 88 88
938.826599 583.749878 -2519.851318 12 9 8
23839.498047 4630.041016 43471.382812 87 85 89
939.008545 584.293518 -2519.427002 57 54 54
-125627008.000000 4104815.250000 373226176.000000 24 23 23
938.705322 583.632935 -2519.043945 11 15 34
-8721.576172 -2199.535645 -21209.044922 52 48 47
938.954529 584.075928 -2519.488037 21 17 16
703.678955 438.587708 -1889.174805 34 30 31
939.490967 584.397156 -2520.394043 25 24 25
51803948.000000 31703678.000000 73257848.000000 12 10 11
730.175232 403.860016 -1476.655640 46 42 43
-0.233830 -0.104708 -0.540698 8 7 8
7.555303 3.474054 14.242576 33 38 55
18907108.000000 11657310.000000 28292904.000000 47 47 47
10579661.000000 6732641.000000 16196474.000000 20 18 18
938.917847 583.720276 -2519.533447 18 28 61
-0.227632 -0.004593 -0.364149 40 41 42
-0.315562 -0.284420 -0.894876 14 13 13
939.250854 584.061096 -2518.146729 49 49 50
939.055481 584.098755 -2519.714355 23 38 87
937.456787 583.205322 -2517.760010 35 37 38
-185.230972 -64.898499 -298.322174 54 53 52
-13137.643555 177.874878 25206.509766 36 35 35
-3.597073 2.155261 -1.201390 23 24 24
938.861023 584.673706 -2518.872314 15 15 15
938.567871 583.618103 -2519.070312 19 16 16
939.188782 584.646362 -2519.634766 17 15 15
955.808167 581.557251 -2593.443848 27 27 27
5.362218 205.165207 -2171.137207 67 64 63
1506.433838 222.546585 2994.000000 60 59 59
-3.357548 2.199730 -0.722025 30 27 26
939.314758 584.537170 -2519.955566 32 30 30
939.498291 584.361877 -2520.270020 50 53 55
939.493347 584.393799 -2520.408936 27 26 28
945.869385 583.518250 -2550.574951 37 33 31
959.777893 351.369019 1368.275146 35 33 33
939.277344 584.623535 -2520.063232 54 53 53
586314.250000 354099.906250 1126724.750000 23 22 21
280.220551 281.183746 -2287.090576 33 29 28
939.324036 584.546082 -2520.097412 55 56 58
828126.875000 63802.449219 -3476777.250000 16 16 16
939.120789 584.646484 -2519.622314 19 18 18
939.278809 584.583008 -2520.000977 58 57 58
939.334229 584.519592 -2519.986816 11 10 10
921.659485 587.811401 -2437.501465 59 56 54
-0.309845 -0.280283 -0.887798 13 11 11
938.729614 583.705078 -2519.596924 23 20 20
0.807430 0.416047 1.726384 57 57 57
939.219910 584.669678 -2519.902588 48 47 47
438308.750000 131702.875000 822576.062500 14 12 10
938.971863 583.725769 -2519.227295 10 9 10
468.267334 292.448608 -1259.747803 24 26 27
30505.810547 10712.392578 48068.097656 58 56 56
4.948863 1.949344 9.103971 16 14 14
939.116272 583.848083 -2520.232910 56 54 55
939.249390 584.798218 -2519.403076 10 10 10
939.167053 584.083130 -2520.166260 36 34 34
939.034851 583.063416 -2514.739502 19 18 20
10220550.000000 6242496.000000 13655961.000000 41 39 40
1146.110107 571.485168 -3092.159668 50 50 51
15958676.000000 10268881.000000 22944450.000000 20 19 20
938.752869 583.633362 -2518.972900 39 37 37
-249.874893 -87.270302 -350.475677 18 16 16
-42089.160156 -4724.408691 -87023.179688 20 17 18
-0.221130 0.178437 -0.065754 18 17 18
936.950439 583.045593 -2517.158936 10 10 11
458.769226 289.331696 -1273.952393 54 51 52
939.119812 584.692322 -2519.104004 24 23 22
-0.303676 -0.275715 -0.873811 45 43 43
938.966797 584.119446 -2519.366699 52 50 50
-9116.151367 -8409.289062 -27311.080078 14 14 14
-10011.993164 -1659.466553 -18879.023438 54 54 59
-3149.045166 -616.832642 -5392.626465 49 47 47
964.612305 578.773743 -2626.774902 42 41 42
939.315125 584.566895 -2520.174072 15 26 58
938.054382 583.440186 -2518.720947 40 43 43
44.192329 20.541090 71.497398 51 50 50
2230.902100 908.994080 1091.653076 28 24 22
939.479248 584.407104 -2520.054688 66 68 70
938.884827 583.782104 -2520.024902 28 27 27
956.033325 579.827026 -2586.546875 55 55 55
-93937.875000 -17767.880859 -173617.375000 17 27 59
939.492676 584.392944 -2520.397949 40 39 40
-52468.128906 -47929.988281 470180.656250 94 90 89
945.895813 583.614319 -2549.627441 40 39 38
-40257312.000000 -654285.875000 144583584.000000 15 13 14
937.403687 583.205261 -2517.791748 8 7 8
939.479370 584.407654 -2520.055664 66 68 70
5.529467 2.495459 10.358000 18 27 55
-1.903444 1.096097 -0.761271 32 32 33
939.197693 584.668762 -2519.627686 36 35 35
84545904.000000 -2877927.750000 -249608016.000000 15 14 15
7872.752441 2888.699219 14664.637695 31 29 28
939.532898 584.789429 -2520.286621 4 5 5
939.298462 584.540466 -2519.826904 20 17 17
939.275452 584.567200 -2519.816162 36 34 33
467.033752 292.719238 -1259.583496 54 58 60
939.347839 584.526184 -2520.126709 14 24 58
939.343933 584.514404 -2520.006104 13 10 10
939.328979 584.528320 -2519.990234 16 14 13
939.026611 584.076416 -2519.718018 38 36 36
938.819397 583.746338 -2519.829834 17 15 15
939.095276 584.724548 -2519.404541 28 26 25
939.166382 584.682983 -2519.744629 16 14 14
938.556274 583.609558 -2519.014404 27 25 24
939.257263 584.598877 -2519.907959 15 14 14
3.011212 1.143649 5.724363 30 29 29
41429408.000000 22832086.000000 55745688.000000 28 27 27
-8215.314453 -778.399719 -18710.769531 29 26 27
975.863892 573.599792 -2664.435303 23 22 22
812.717407 622.892883 -2019.864014 23 21 22
939.193909 584.089661 -2520.229248 42 40 42
939.088135 584.695984 -2518.947754 4 4 4
542.276855 317.321838 -1132.135742 53 47 47
-1.904417 1.109332 -0.708251 52 54 55
939.321045 584.549255 -2520.086914 55 54 57
17499554.000000 10259024.000000 24447484.000000 33 31 32
34036.792969 -24501.449219 152700.000000 28 24 26
939.214722 584.637573 -2519.814697 49 49 48
938.795349 584.649231 -2518.677979 30 31 32
4.921625 1.921207 9.120691 14 12 13
939.548889 584.758301 -2520.439941 38 41 44
939.163269 584.650696 -2519.787598 19 18 18
1.001350 0.538298 2.100982 26 24 23
42847204.000000 25367022.000000 59765436.000000 25 22 23
938.589844 583.614502 -2519.012451 47 44 43
602.990051 417.979767 -852.638733 24 24 25
-54649420.000000 1747282.125000 161788768.000000 23 21 22
937.364746 583.135925 -2517.418701 10 10 11
939.046814 584.760437 -2519.276367 31 30 30
-0.214797 0.045717 -0.298325 16 16 16
976.455017 583.311768 -2696.949219 41 41 40
988.961731 568.977417 -2737.158203 18 17 17
939.442078 584.447815 -2519.859375 48 49 50
-1481.046021 -522.515259 -2308.777588 22 20 19
938.876038 583.779541 -2520.020020 33 31 31
37727.738281 3204.325928 -158593.890625 60 58 59
938.807495 583.733093 -2519.756348 37 35 35
953.413452 580.993958 -2577.557373 20 17 16
-0.308743 -0.279486 -0.886109 24 23 23
938.871948 583.695068 -2519.381348 60 58 59
939.373291 584.273071 -2519.042236 53 53 55
939.097534 584.692810 -2519.047607 37 38 38
939.257446 584.608459 -2519.992432 23 21 22
939.395020 584.471436 -2520.140625 14 13 13
197.773788 72.693611 312.112335 33 32 32
-0.314233 -0.283439 -0.894011 10 8 9
32044304.000000 17658770.000000 44011112.000000 16 14 15
938.883911 583.783142 -2520.041992 30 28 28
939.286133 584.103760 -2518.304199 32 31 32
6626991.500000 -249459.968750 -22480718.000000 32 32 32
938.880981 583.780090 -2520.023438 23 22 22
939.397766 584.468506 -2520.146729 21 18 18
50425.160156 16118.201172 95730.773438 59 57 57
958.434875 578.875427 -2596.397461 22 21 22
975.280212 571.231140 -2665.958740 12 11 10
938.846924 583.769104 -2519.963379 23 23 23
-0.314507 -0.283398 -0.894998 38 36 36
-70476480512.000000 -110754600.000000 216115871744.000000 51 52 53
938.759888 584.645691 -2518.566650 24 24 25
-3.578025 2.166174 -1.142808 39 40 41
939.490601 584.396912 -2520.401123 34 35 36
-3.296527 2.213438 -0.564400 40 39 38
939.275574 584.621338 -2520.056885 24 21 22
939.379089 584.289001 -2519.384033 24 21 21
-4620.179199 -1300.808350 -9492.456055 24 21 20
-1086.600830 -237.229111 -3942.659424 27 23 22
938.118896 583.447449 -2518.744141 41 43 43
310.827179 105.931129 549.382080 17 14 13
939.339905 584.544800 -2520.199707 59 58 59
-0.309908 -0.280327 -0.887781 16 14 14
975.676636 574.360291 -2665.472900 30 29 29
939.287476 584.577271 -2519.983887 11 22 52
939.188904 584.645508 -2519.639160 16 14 14
-0.300313 -0.273024 -0.871546 15 14 14
936.859375 583.004395 -2516.990479 10 11 11
937.433289 583.209167 -2517.812500 15 17 18
937.502075 123.878113 1780.240967 60 59 59
939.450256 584.629333 -2520.523193 41 38 38
10709165.000000 6349368.000000 14934662.000000 15 13 14
-90828.554688 -29602.326172 -165442.718750 76 71 70
938.996155 584.125732 -2519.665527 24 22 22
938.661621 584.668945 -2518.310547 16 14 15
938.955139 584.625183 -2519.095215 26 26 26
938.716736 583.684875 -2519.454346 12 9 8
939.498962 584.833252 -2520.161865 13 14 14
23474162.000000 14850721.000000 32495140.000000 44 42 43
939.168884 584.058777 -2519.341064 22 19 20
939.581360 584.691833 -2521.054688 22 20 21
77788.421875 24107.835938 150223.796875 53 51 50
994.844971 568.442078 -2739.960693 47 46 47
939.436401 584.446289 -2519.825439 53 55 56
900.658875 343.635773 1417.656128 17 15 15
-15894.625000 -1754.556030 -33121.781250 119 116 117
-0.303764 -0.275854 -0.875847 14 13 13
-3.119602 2.180190 -0.243480 41 40 39
55761220.000000 31374970.000000 76197752.000000 12 10 10
-17355.228516 -5651.979492 -29805.982422 40 39 37
961.197083 577.450745 -2605.412354 54 54 55
957.599304 579.213745 -2591.717773 44 42 42
939.227905 584.632935 -2519.906982 36 36 35
-0.317496 -0.285678 -0.898649 57 56 56
939.332214 584.218689 -2519.082520 42 41 42
933.388000 586.392883 -2494.965332 43 43 43
2.552118 1.416856 5.222183 16 14 14
939.483215 584.404907 -2520.077637 44 46 48
-0.320124 -0.287452 -0.902468 21 18 19
939.202637 584.658264 -2519.869629 23 22 22
466.919067 292.679108 -1259.436157 54 57 59
-3.258395 2.188482 -0.541069 58 58 58
939.481323 584.387756 -2519.933838 23 22 24
-24068892.000000 1227746.250000 81569512.000000 24 24 24
939.289185 584.578735 -2520.007324 57 56 57
938.612244 584.674377 -2518.176270 43 45 45
939.296875 584.568054 -2520.058350 16 15 14
20796244.000000 11917586.000000 32510176.000000 57 57 57
444.728424 282.871521 -1296.885498 81 77 79
11859138.000000 7319318.500000 17925222.000000 13 12 12
990.846802 568.112549 -2727.931641 15 14 14
939.300049 584.159058 -2518.511719 53 54 56
18243418.000000 5320645.000000 18887258.000000 9 9 11
939.226990 584.634583 -2519.905273 53 53 53
938.703308 585.022156 -2517.948486 51 50 50
620.842346 231.313187 1014.304443 41 40 39
