ply
format ascii 1.0
element vertex 217
property float x
property float y
property float z
property uchar blue
property uchar green
property uchar red
end_header
-6406430.000000 -1983787.500000 2387929.750000 50 48 48
5.685683 2.913124 8.816120 54 52 53
-165.724380 -81.611725 -198.362686 18 15 16
-6371878.000000 -1969715.000000 2634477.250000 51 50 51
5.678174 2.808471 9.040617 8 5 7
5.699090 3.046314 8.598824 56 54 55
-6422725.500000 -1993534.625000 2306297.250000 14 11 11
-3211642.750000 -997464.750000 1172559.000000 16 13 13
5740880896.000000 1803646464.000000 -606057344.000000 12 9 9
5.675367 2.908805 8.823773 11 9 10
-6407659.000000 -1999138.250000 2450601.000000 13 10 11
5.693112 2.920203 8.824728 56 53 54
-6351735.500000 -1979982.750000 2659332.500000 13 11 12
-61504833621852160.000000 -19326603360206848.000000 6841657416744960.000000 18 16 16
-17537468317749765004591104.000000 -5506910543549778567888896.000000 2121406697357222820708352.000000 8 6 7
7.069737 3.541541 10.548090 51 50 51
-6379151.500000 -2023872.250000 2185069.250000 19 17 16
-339.075012 -165.842804 -390.383209 19 17 17
5.750010 2.917726 8.307409 54 52 52
5.715698 2.767254 8.454710 55 54 55
-6407466.000000 -1940945.250000 2566650.250000 12 11 10
5772013568.000000 1758372480.000000 -512550848.000000 18 16 14
4.874834 2.345550 6.918692 82 80 80
16.351931 8.058169 25.946445 32 30 31
5765462528.000000 1812619776.000000 -529518880.000000 17 14 14
6.736225 3.512118 9.855102 19 18 19
5.689236 2.857286 8.983596 11 9 10
5.669418 3.134008 8.992503 59 58 58
5737006080.000000 1802378240.000000 -525386336.000000 18 15 15
5721215488.000000 1751105408.000000 -875522432.000000 14 14 13
5710842880.000000 1741758592.000000 -870698240.000000 12 12 10
-6409200.500000 -2000215.250000 2515452.500000 14 11 11
-6410438.000000 -2000790.125000 2403319.250000 16 13 13
-6399254.000000 -1995837.875000 2447928.250000 15 12 13
5717414400.000000 1794204416.000000 -798985088.000000 14 13 13
5.654078 3.168410 9.180588 52 50 51
6.462327 3.144382 9.691598 7 5 5
-331.425140 -159.559357 -445.578796 15 12 12
-2635902222336.000000 -800506445824.000000 641908473856.000000 15 13 13
5.667499 2.878620 9.067038 53 51 51
5.672478 2.907780 8.820490 8 7 7
5.767336 2.815403 8.265511 10 8 8
-6412210.000000 -1982562.750000 2434404.750000 49 48 48
-6404164.500000 -1996265.000000 2338688.750000 12 9 9
-340.284790 -162.932190 -391.092194 53 51 52
5771842048.000000 1757948544.000000 -516253568.000000 11 9 7
5.707544 2.708839 8.513985 53 52 52
-6329867.500000 -1917357.500000 2765943.750000 11 10 9
-330.007141 -159.021225 -452.053345 17 14 13
-338.283539 -166.317474 -396.799011 13 11 10
-163.334320 -78.556396 -216.160278 20 16 15
5745350144.000000 1749277568.000000 -511825664.000000 12 10 9
5721784320.000000 1779037824.000000 -770885824.000000 43 42 43
5.687766 2.913736 8.745024 58 57 57
-38063151228387328.000000 -11939051305172992.000000 4056008737423360.000000 11 10 9
-325.058075 -158.974884 -469.785431 55 54 53
5771926016.000000 1758900864.000000 -514526720.000000 12 11 9
-39566205098393600.000000 -12407773971087360.000000 4221390748123136.000000 11 10 9
7.825369 3.746806 11.967376 55 54 54
-6307878.500000 -1959642.500000 2780293.250000 13 11 11
-337.373871 -165.499695 -406.054321 31 29 29
-6388057.000000 -1927703.500000 2716326.250000 11 9 9
-25567298.000000 -12915998.000000 -41462444.000000 10 8 9
9.231823 4.366303 14.340856 13 10 10
5.687434 2.801950 8.745877 12 10 11
5.696325 2.768905 8.527464 55 53 53
4.030447 1.902588 5.738079 54 53 53
4.566462 2.186717 6.669535 14 12 12
-339.641296 -161.685471 -398.060425 24 20 19
-337.596191 -166.180862 -403.025818 17 14 14
-44.970673 -22.835054 -73.413696 50 47 48
13.213017 6.422928 19.661051 17 13 14
-2670422.250000 -831300.187500 1165662.625000 17 15 14
-12.598453 -6.512604 -20.484480 89 86 87
4.837196 2.454161 6.936854 11 9 10
5.706801 2.915975 8.565731 57 55 56
-6387843.000000 -1980916.750000 2529655.000000 14 12 12
5.634032 2.671347 8.404553 55 54 53
5745463808.000000 1803490304.000000 -605478528.000000 12 10 9
-1263210840428666412859392.000000 -396959412861030908297216.000000 152497125572731253817344.000000 7 5 5
-332.011078 -159.926941 -442.693970 17 15 13
-6413575.000000 -2002968.750000 2307339.000000 17 13 13
-6373876.500000 -2023254.250000 2157670.250000 16 13 11
5721142784.000000 1795990272.000000 -730505664.000000 14 11 11
-6375883.000000 -2023978.625000 2183523.000000 24 22 21
5.680822 2.790140 8.799389 10 8 9
5714796544.000000 1779576320.000000 -776216704.000000 53 52 53
14044949327466463232.000000 4298987935144869888.000000 -3388933980584673280.000000 47 46 46
5746501632.000000 1750283392.000000 -594715264.000000 15 13 12
4.962556 2.389509 7.261819 55 54 54
5728616960.000000 1828362624.000000 -627897216.000000 17 15 14
5.973637 2.996643 8.832911 15 12 13
-6409295.000000 -1942283.125000 2567097.750000 12 11 9
5.652836 2.855867 9.345551 11 9 10
5712691200.000000 1735553920.000000 -802136128.000000 27 26 24
5773090816.000000 1814669440.000000 -497243040.000000 22 19 18
-6364611.000000 -1949536.750000 1875198.125000 17 13 12
5.719525 2.708519 8.494457 11 9 10
5.693041 2.714549 8.832428 57 56 56
4.690270 2.241117 6.841308 12 10 10
-324.453156 -161.315399 -469.862183 55 54 53
18.436539 9.101007 29.260290 45 43 44
-2137049.750000 -667595.937500 757176.937500 30 27 28
-21530920162951168.000000 -6543467501060096.000000 2500641092009984.000000 11 10 11
5.719643 2.846751 8.407251 8 6 7
-3204439.500000 -998415.187500 1209103.375000 26 22 22
5.643321 2.926286 9.451252 51 49 50
5.657753 2.856543 9.291078 13 10 11
-331.269745 -162.556427 -442.556824 50 48 48
-6350709.500000 -1978061.500000 2658417.750000 14 12 12
5.723991 2.864426 8.489375 51 50 50
-338.724243 -161.326462 -403.707764 12 10 9
-6344691.000000 -1975705.625000 2680910.250000 15 13 13
7.843004 3.985205 11.797763 51 49 50
5690520576.000000 1742341760.000000 -768052864.000000 47 47 48
5.772147 2.728876 8.163243 53 51 51
4431346516292130816462422016.000000 1390739585536257129608904704.000000 -535377934789888650757799936.000000 8 7 7
-332.132294 -159.817352 -442.207794 15 13 11
-319.526154 -160.615433 -484.676086 18 16 15
-64991698526142464.000000 -20429639008649216.000000 7244176919887872.000000 12 10 11
5.743176 2.773792 8.384595 49 47 48
5767219200.000000 1809522048.000000 -608531840.000000 10 8 8
5725602304.000000 1798627840.000000 -676298752.000000 17 12 11
-121977285954764800.000000 -39045599227543552.000000 12589565978083328.000000 17 15 15
-6376090.000000 -2023444.750000 2157886.000000 18 14 13
-6405036.000000 -2000741.000000 2306932.750000 17 14 13
-321.565063 -161.103607 -478.924164 55 53 53
18.885124 10.345027 28.766550 16 14 15
5.708837 2.776990 8.580888 7 5 5
-2130424.250000 -663630.125000 761329.062500 105 103 103
7.700769 3.874627 11.847269 82 79 79
5747948032.000000 1792882304.000000 -558191808.000000 49 49 49
-6394380.500000 -1993606.250000 2334911.750000 12 10 9
-328.020111 -159.853577 -457.470184 56 54 54
5719376896.000000 1823702912.000000 -776927168.000000 18 15 15
5.661229 2.858707 9.298395 11 9 9
5.742126 2.862401 8.275273 51 50 50
5718776832.000000 1741909504.000000 -804359936.000000 10 9 7
5745472512.000000 1747528704.000000 -622440832.000000 19 17 16
-23281177318129664.000000 -7100074861527040.000000 2708484491575296.000000 8 8 8
5.663057 3.004928 9.151952 52 51 51
-22808947811418112.000000 -6944997551112192.000000 2648771292823552.000000 10 9 9
5.729804 2.932140 8.429449 11 11 11
5.287952 2.501071 7.703889 84 82 82
5706114048.000000 1775693824.000000 -767358848.000000 48 47 48
4.257928 2.051210 6.075575 54 53 53
5772213248.000000 1809048576.000000 -496769856.000000 28 25 24
5772191744.000000 1805144704.000000 -497976032.000000 25 23 23
-23867179008.000000 -7469032960.000000 6072326656.000000 20 17 17
26996535556555832360435712.000000 8640163811445640748072960.000000 -2913069183637174999842816.000000 13 11 11
-322.195435 -164.702621 -471.985474 19 16 16
5.793731 2.809435 8.095874 12 11 12
-330.361176 -160.171951 -448.982147 53 52 52
-338.831207 -165.315643 -395.329529 54 53 53
5.706208 2.913379 8.494032 50 48 48
5735443456.000000 1782717568.000000 -688830848.000000 43 42 42
-3863078303975866368.000000 -1212295407384657920.000000 466091878186483712.000000 11 9 10
5711242752.000000 1749150976.000000 -873303872.000000 13 13 12
5.677883 3.129839 8.908143 55 53 54
5.303566 2.560544 7.751794 54 53 53
-6331157.500000 -1978470.375000 1867660.000000 18 15 13
-6405769.000000 -1999343.875000 2419862.500000 16 13 13
-339.147247 -161.770737 -403.987152 15 12 12
5731719168.000000 1829570176.000000 -628222016.000000 14 11 10
5728698880.000000 1799376896.000000 -676680448.000000 17 12 12
5.763836 2.860567 8.241169 7 4 5
-42622087214399488.000000 -13397390270660608.000000 4570602727800832.000000 12 10 10
-43060684979699712.000000 -13531449084870656.000000 4608237378732032.000000 12 10 10
-339.470398 -164.068939 -394.426483 15 11 12
-6390041.000000 -2027788.750000 2188711.000000 17 15 14
-4444847.000000 -1373359.375000 1915813.125000 46 44 45
-6387554.000000 -2025813.125000 2161669.500000 23 20 19
5.710551 2.911169 8.497660 53 52 52
-330.068787 -159.086609 -451.959595 16 14 13
-161.840240 -80.266190 -219.513321 83 80 80
-21664669739515904.000000 -6585290281975808.000000 2518195965526016.000000 13 13 13
-328.058655 -163.318680 -452.721222 13 10 10
-166.525589 -81.961792 -191.990219 15 11 12
5735593472.000000 1754270720.000000 -690334976.000000 45 44 44
5.716174 2.768759 11.213745 14 12 13
-6424146.000000 -1985434.625000 2438142.500000 49 48 48
-6399824.500000 -1944280.125000 2548438.750000 46 45 45
5732350976.000000 1757414144.000000 -647960064.000000 44 43 43
7.227524 3.432914 11.060913 48 46 46
-6425549.500000 -1971252.125000 2406705.250000 16 13 12
5.686063 2.919549 8.815131 56 54 54
5729462784.000000 1756515328.000000 -688338368.000000 47 46 46
5.685959 2.715123 8.743527 49 47 47
190222880228325117392846848.000000 60884880767827977034530816.000000 -20517478718017798905266176.000000 14 12 13
-6413420.500000 -2001218.375000 2452452.000000 15 12 12
-6396948.500000 -1996008.000000 2512723.250000 14 10 11
-51952121980911616.000000 -15882552837406720.000000 6646521483231232.000000 50 48 49
5748089856.000000 1758421376.000000 -560057600.000000 48 47 48
-323.907410 -161.236694 -469.910583 55 53 53
-6398025.000000 -1995752.500000 2416550.750000 15 11 11
3.436361 1.599190 4.824574 14 11 12
-6388850.500000 -1934954.750000 2609990.500000 11 10 9
5.745236 2.687560 8.264725 17 15 16
-50774927279652864.000000 -15524248411963392.000000 6500312206540800.000000 49 47 49
4473338979649428419113910272.000000 1404084550494988977953570816.000000 -540448243759476605534076928.000000 9 7 8
-166.626144 -79.471382 -197.570648 21 18 18
-18281322136993792.000000 -5551376763453440.000000 2041798058835968.000000 21 21 19
-6430290.000000 -2001906.625000 2275960.750000 29 27 27
5731919360.000000 1784672256.000000 -650550272.000000 52 50 52
4370142580638803959023140864.000000 1354083396304602226048892928.000000 -568038928190059539628818432.000000 15 12 12
-322.708496 -161.260376 -474.512451 15 12 12
-329.653351 -162.870728 -447.841949 19 15 14
763.762024 406.715332 1211.754883 83 82 82
-6387766.500000 -1993230.000000 2508832.250000 13 10 10
-332.239929 -161.914734 -439.276794 19 16 16
-6384593.000000 -1982310.500000 2503878.250000 30 27 27
-6397111.000000 -2028526.500000 2190779.750000 18 16 15
5.715018 2.918274 8.578062 56 54 55
-6333825.000000 -1973560.750000 2676491.750000 15 13 13
-6325999.000000 -1969835.000000 2695466.500000 14 10 10
5756991488.000000 1810054912.000000 -495749568.000000 19 16 16
4.883646 2.309295 7.187770 12 8 11
