ply
format ascii 1.0
element vertex 332
property float x
property float y
property float z
property uchar blue
property uchar green
property uchar red
end_header
-0.004236 -0.000109 0.004128 54 52 53
0.033375 0.030460 0.119298 18 15 16
-0.093580 -0.243845 -0.740690 18 15 13
-0.004236 -0.000109 0.004128 56 54 55
-0.004236 -0.000109 0.004128 57 55 56
-0.473784 -0.498094 -1.570596 13 10 11
-0.004236 -0.000109 0.004128 56 53 54
-0.013917 -0.006970 -0.020764 51 50 51
-0.004236 -0.000109 0.004128 58 56 57
-0.004236 -0.000109 0.004127 19 16 18
-7.817146 -8.089011 -22.867682 28 25 23
-31.089272 -55.146545 -172.770920 10 8 8
-30.904842 -56.456223 -177.291763 9 8 8
-0.004236 -0.000109 0.004128 52 50 51
-10.220353 -11.052169 -32.058083 28 26 25
-0.404342 -0.464366 -1.447275 31 29 27
-15.422891 -15.935843 -44.910553 22 20 19
-0.004236 -0.000109 0.004128 8 7 7
-9.256068 -8.960848 -25.055847 19 16 16
0.064735 0.058412 0.231901 53 51 52
-30.119301 -42.568886 -128.717834 15 12 12
-0.004236 -0.000109 0.004128 53 52 52
0.067736 0.060987 0.234777 13 11 10
0.118639 0.059568 0.229417 15 12 12
-15.672597 -24.245291 -74.422226 18 15 14
-0.642881 -0.578703 -1.835579 11 9 9
0.095135 0.062507 0.231586 19 16 16
-0.012875 -0.006085 -0.018789 57 56 56
-0.004237 -0.000109 0.004127 17 13 15
-0.004236 -0.000109 0.004128 55 53 53
-0.670159 -0.588794 -1.872339 46 44 45
-3.775346 -3.548025 -10.181988 13 10 11
-6.926457 -6.891514 -19.747181 25 19 19
-0.082337 -0.121024 -0.376332 162 158 158
-0.004236 -0.000109 0.004128 54 52 52
0.084154 0.059039 0.232442 17 15 13
-0.137494 -0.145633 -0.443468 28 22 24
-0.309006 -0.356628 -1.142658 14 11 11
-0.328237 -0.384015 -1.221910 16 13 12
-0.004236 -0.000109 0.004128 53 52 52
-0.012946 -0.006232 -0.018945 55 54 54
-0.542801 -0.534693 -1.683281 12 11 9
-0.004236 -0.000109 0.004128 11 11 11
-0.018937 -0.009346 -0.030054 45 43 44
-31.394569 -48.216370 -152.229706 20 18 18
-0.193666 -0.213235 -0.650164 26 22 22
-0.004236 -0.000109 0.004128 51 49 50
-0.004236 -0.000109 0.004128 51 50 50
-0.635230 -0.574714 -1.824387 15 13 13
-0.335419 -0.411514 -1.320533 18 16 16
-0.119783 -0.197369 -0.599629 105 104 104
-9.186593 -9.324389 -27.692671 68 67 68
-0.004236 -0.000109 0.004128 49 47 48
0.068638 0.058419 0.233108 15 12 11
-31.072556 -49.800056 -150.823151 17 15 15
-7.831318 -8.109374 -22.921476 20 17 15
-12.407401 -12.177361 -34.713020 18 15 16
-0.004236 -0.000109 0.004127 34 32 31
-0.082978 -0.098671 -0.298352 134 131 132
-0.146747 -0.172411 -0.526576 48 44 43
-5.303813 -2.556755 -9.801605 25 24 24
-14.305582 -13.767038 -40.719574 17 16 15
-0.228323 -0.225901 -0.718972 27 23 23
-0.271370 -0.221061 -0.685267 15 14 13
-0.004236 -0.000109 0.004128 12 10 11
-0.127424 -0.205285 -0.620725 32 27 25
-0.324464 -0.382847 -1.210607 43 42 42
-0.333985 -0.394870 -1.246020 16 14 14
-15.626164 -22.536228 -70.586380 18 17 16
-8.580366 -8.531183 -25.408905 26 23 21
0.040411 -0.040241 -0.584100 67 70 72
-0.008125 -0.003035 -0.006557 12 9 10
0.066456 0.059493 0.233505 15 11 12
-0.160945 -0.197761 -0.615825 42 37 37
-6.739568 -6.505452 -19.048689 70 70 71
-18.038242 -18.294466 -54.198986 46 46 48
-0.533609 -0.530100 -1.668594 46 45 45
-0.148593 -0.216311 -0.646694 42 37 35
-0.004236 -0.000109 0.004128 56 54 54
-30.316681 -42.948860 -130.769547 48 48 49
-30.447491 -42.187531 -131.054276 41 39 40
-30.951368 -48.703159 -147.003708 14 12 13
-0.203951 -0.218314 -0.667103 20 16 17
-0.198279 -0.296457 -0.938127 81 80 80
-30.416153 -42.101604 -130.792542 49 47 49
-30.255266 -42.314453 -129.684280 20 17 17
-0.367428 -0.439676 -1.380443 29 27 27
-15.259462 -21.209057 -64.963066 26 21 20
-0.275675 -0.209099 -0.646434 10 8 8
-0.514026 -0.518428 -1.637271 13 10 10
-0.650153 -0.581152 -1.846114 14 10 10
-0.244686 -0.347593 -1.078570 25 22 20
-31.237549 -50.501968 -155.727386 12 9 9
-15.304191 -23.385553 -73.936974 15 15 14
-0.436370 -0.479270 -1.505722 50 48 48
-0.416211 -0.469688 -1.471268 20 18 18
-0.004237 -0.000109 0.004127 15 13 13
-0.404688 -0.461370 -1.444390 12 11 10
-30.988607 -48.762939 -147.125427 10 9 9
-0.326115 -0.409925 -1.300699 19 17 16
-0.004236 -0.000109 0.004128 54 52 52
-31.354469 -50.210312 -158.209625 47 47 48
-0.008007 -0.002890 -0.006336 82 80 80
-0.153529 -0.196036 -0.582074 25 22 21
-0.004236 -0.000109 0.004128 59 58 58
-0.311086 -0.365635 -1.158660 48 48 48
-0.325596 -0.384752 -1.215666 12 12 10
-9.963864 -10.298186 -30.838791 17 15 13
-0.679388 -0.593387 -1.888015 16 14 14
-0.462563 -0.493281 -1.551287 49 48 48
-3.290040 -3.181996 -9.171270 95 93 95
-0.004236 -0.000109 0.004128 58 57 57
-31.137142 -54.849415 -175.108337 10 9 9
-0.409441 -0.463931 -1.457140 18 15 15
-9.665467 -10.271587 -29.755449 24 21 21
-0.015655 -0.007493 -0.023944 55 54 54
-0.016971 -0.008023 -0.026362 13 10 10
-0.596860 -0.558038 -1.767222 51 50 51
-5.536261 -5.726884 -16.497505 26 21 20
-0.012833 -0.006145 -0.018743 14 12 12
0.069934 0.060994 0.234456 17 14 14
-0.022825 -0.011584 -0.037281 52 50 51
-4.957523 -4.552546 -12.977245 23 22 21
-30.731634 -33.871338 -123.895973 14 12 13
-0.700650 -0.604980 -1.925293 17 15 14
-0.526595 -0.525130 -1.657527 14 12 12
-30.878908 -56.481754 -177.795547 15 14 14
-0.014019 -0.006645 -0.020912 55 54 53
-0.295027 -0.332994 -1.070346 12 10 9
-0.004236 -0.000109 0.004128 10 8 9
-0.289061 -0.332569 -1.051289 15 13 12
-8.588364 -8.537516 -25.436443 29 27 24
-0.004236 -0.000109 0.004128 11 9 10
-0.020107 -0.065641 -0.762177 42 43 43
-0.004236 -0.000109 0.004128 11 9 10
-0.135965 -0.340673 -1.058346 20 17 17
-30.614298 -44.959198 -136.903900 11 10 10
-0.172410 -0.303736 -0.957854 18 15 13
-0.004236 -0.000109 0.004128 8 6 7
-0.287699 -0.186158 -0.565735 18 16 16
-0.014346 -0.007289 -0.021579 51 49 50
-1.225337 -0.621406 -2.263381 19 15 16
-0.195411 -0.297298 -0.928295 67 66 66
-6.682215 -6.542304 -18.938044 62 61 62
-31.066631 -55.179974 -172.634537 10 7 7
-0.121489 -0.262798 -0.822380 51 51 50
-10.004062 -10.313040 -30.925949 20 18 16
-30.135809 -42.556591 -128.778976 15 12 12
-0.182348 -0.212809 -0.657278 35 28 29
-6.901093 -6.864738 -19.678368 26 19 19
-0.014991 -0.008214 -0.022836 16 14 15
-0.169282 -0.200450 -0.609403 18 15 15
-2.553441 -2.460777 -7.054143 26 21 21
-0.015700 -0.007455 -0.024026 48 46 46
-0.100547 -0.126066 -0.381068 30 27 28
-15.436642 -22.578831 -68.696960 17 15 14
-15.254585 -21.247463 -65.118774 23 19 18
0.044158 -0.042035 -0.111047 21 16 16
-15.680174 -24.237646 -74.299370 19 16 16
-0.388324 -0.451122 -1.419520 17 13 13
-0.004236 -0.000109 0.004127 14 11 12
-30.607056 -44.906033 -136.496201 8 7 7
-0.012922 -0.006235 -0.018886 54 53 53
-0.269537 -0.234202 -0.733514 17 14 14
-30.974478 -48.690731 -146.956635 13 11 11
-15.695453 -24.211861 -74.229965 19 16 16
-0.004236 -0.000109 0.004128 13 11 12
-31.073809 -55.268330 -172.654388 13 10 11
-0.008889 -0.092823 -0.273002 19 15 15
0.031144 0.030606 0.119913 15 11 12
-0.083851 -0.161338 -0.486999 96 94 93
-0.382999 -0.439511 -1.390436 12 10 9
-0.076513 -0.152353 -0.460185 100 97 97
-4.288066 -3.951003 -11.585663 37 35 33
-0.514216 -0.518527 -1.637676 14 10 11
-15.345163 -21.175772 -65.761093 75 73 73
-0.044530 -0.124990 -0.361162 22 17 16
-7.430120 -7.412672 -21.458960 70 69 71
-5.535347 -5.721259 -16.520340 23 18 18
-0.155089 -0.197049 -0.585292 16 13 12
-31.342539 -50.227108 -158.172699 46 46 46
-0.011439 -0.005017 -0.012723 83 82 82
-0.148502 -0.216263 -0.646570 34 30 27
-0.511304 -0.517418 -1.632730 30 27 27
-0.004236 -0.000109 0.004128 56 54 55
-0.013269 -0.006273 -0.019528 12 8 11
-0.115601 -0.056567 -0.208867 57 55 55
-0.129396 -0.215556 -0.665013 22 19 16
-0.619184 -0.567651 -1.800712 13 11 12
-30.976162 -47.243122 -144.440292 18 16 16
-0.076656 -0.149793 -0.461555 102 100 100
0.066063 0.061277 0.237070 19 17 17
-0.510650 -0.519900 -1.631497 20 17 17
0.089863 0.062488 0.232463 23 21 20
-0.004236 -0.000109 0.004128 55 54 55
-0.000498 -0.089156 -0.684650 56 57 58
0.069428 0.058133 0.232023 19 16 16
-0.444883 -0.482787 -1.520981 16 13 13
-0.014276 -0.006944 -0.021410 7 5 5
-0.004236 -0.000109 0.004128 53 51 51
-31.384123 -48.172787 -152.150650 15 14 14
-0.693013 -0.599087 -1.907214 11 10 9
-0.313302 -0.364928 -1.163303 43 42 43
0.099357 0.059335 0.231319 16 13 12
-0.021687 -0.010952 -0.035167 10 8 9
-0.094504 -0.245863 -0.742870 14 11 9
-0.291896 -0.337921 -1.067489 19 17 16
-31.378662 -48.211777 -152.284805 16 15 15
0.066948 0.057693 0.230636 24 20 19
-0.749697 -0.621220 -1.985484 23 22 23
-0.861503 -0.575347 -2.171005 17 13 14
-0.011928 -0.006052 -0.017104 11 9 10
-5.090128 -5.519565 -16.082697 60 55 55
-15.469314 -22.589531 -68.752838 14 12 11
-0.326753 -0.385354 -1.218863 14 14 13
-0.037631 -0.018031 -0.064556 13 11 12
-6.368320 -6.275207 -17.952240 24 20 20
-0.004236 -0.000109 0.004128 11 10 11
-0.285919 -0.312639 -1.008181 22 19 18
-0.112991 -0.186611 -0.580279 25 20 20
-0.011839 -0.005701 -0.016890 54 53 53
-0.004236 -0.000109 0.004128 57 56 56
-15.641627 -22.496521 -70.599602 16 15 15
-30.606394 -44.910976 -136.496826 9 7 8
-6.373519 -6.277585 -17.965462 23 19 18
-0.008011 -0.002835 -0.006325 80 78 78
-0.618782 -0.567493 -1.800106 14 12 12
-30.968630 -47.202461 -144.245361 12 10 11
-0.100800 -0.178814 -0.542700 104 102 102
-0.044140 -0.191513 -0.584018 49 47 46
-0.713897 -0.607658 -1.936265 14 12 12
-0.338372 -0.395164 -1.258068 16 14 13
-0.720414 -0.610276 -1.945344 11 9 9
-0.004236 -0.000109 0.004128 11 9 9
-0.004236 -0.000109 0.004128 51 50 50
-0.011248 -0.005238 -0.015789 9 6 8
-0.004236 -0.000109 0.004128 52 51 51
-0.135410 -0.212262 -0.642200 31 27 25
-31.368227 -48.244659 -152.269791 17 15 15
0.066831 0.060138 0.233589 54 53 53
-0.004236 -0.000109 0.004128 50 48 48
-0.467096 -0.508332 -1.574962 12 12 12
-2.511413 -2.424012 -6.943101 26 21 21
-0.004236 -0.000109 0.004128 55 53 54
-1.740690 -1.654848 -4.780104 24 20 19
-30.907333 -56.468945 -177.457977 9 8 9
-9.667590 -10.298503 -29.802101 23 19 20
-31.152515 -51.542942 -157.065277 18 18 18
-15.455860 -22.548372 -68.625084 13 10 10
-0.004236 -0.000109 0.004128 13 11 12
-0.198477 -0.216762 -0.659041 76 74 74
-0.442927 -0.484124 -1.517160 16 13 12
-8.581982 -8.526516 -25.400169 24 21 18
-0.011253 -0.005236 -0.015800 14 11 12
-15.716270 -23.035208 -72.460442 32 30 28
-0.077693 -0.150749 -0.464933 107 104 105
-0.326084 -0.410139 -1.300957 18 16 15
-0.635428 -0.574787 -1.824646 15 13 13
-2.853462 -2.688356 -7.874891 26 22 18
-0.395465 -0.455697 -1.430065 21 18 18
-12.402927 -12.160408 -34.687763 15 13 13
-0.169956 -0.201602 -0.611368 16 13 13
-0.004236 -0.000109 0.004128 55 53 54
-0.004236 -0.000109 0.004128 11 9 10
-0.192295 -0.262095 -0.532630 16 12 13
-15.458989 -22.560637 -68.792107 14 11 11
-18.104239 -18.338970 -54.449421 37 37 39
-15.628552 -23.707840 -72.507408 25 22 21
-31.373611 -52.281895 -166.136948 10 8 8
-0.053231 -0.123803 -0.365955 43 38 35
-15.827576 -26.206711 -83.317871 20 18 18
-31.386007 -48.232178 -152.200684 12 10 10
-0.012790 -0.006669 -0.018713 19 18 19
-0.004236 -0.000109 0.004128 11 9 10
-0.004236 -0.000109 0.004128 12 11 11
-16.889870 -16.736076 -49.815079 24 22 21
-15.791859 -25.514212 -79.418907 70 67 69
-0.318324 -0.369750 -1.182262 14 13 13
-0.004236 -0.000109 0.004128 10 8 8
-15.614191 -28.306438 -88.858437 18 15 15
-0.417634 -0.427039 -1.358903 16 12 11
-7.824048 -8.098994 -22.892994 24 21 20
-0.347608 -0.420326 -1.331733 33 29 28
-31.104187 -48.310734 -148.326233 11 10 9
-0.004236 -0.000109 0.004127 54 52 53
-0.712744 -0.607182 -1.934659 13 11 11
0.015918 0.017061 0.069336 64 60 60
-15.819151 -26.221087 -83.319550 17 15 14
-0.013557 -0.005968 -0.016634 89 86 87
-30.885437 -56.488552 -177.488770 10 9 10
-0.012917 -0.006102 -0.018883 58 56 57
-4.546306 -4.770809 -13.878656 126 125 125
-0.275570 -0.209037 -0.644495 12 11 11
-0.008799 -0.003405 -0.007809 15 12 13
-31.082502 -55.158836 -172.353439 11 7 8
-0.542865 -0.534711 -1.683380 12 11 10
-0.012799 -0.006114 -0.018668 12 10 10
-0.089258 -0.130727 -0.396627 41 36 34
-7.552087 -7.382994 -21.739981 66 65 65
0.054211 -0.035321 -0.073715 32 29 27
0.084295 0.060421 0.233120 50 48 48
-0.222771 -0.325349 -1.015158 69 68 69
-16.255796 -16.633974 -47.820950 10 8 8
-31.171446 -51.474873 -156.853363 13 12 13
-0.011600 -0.005643 -0.016465 11 10 11
-0.008023 -0.002839 -0.006352 82 80 80
-30.896049 -56.488514 -177.273254 9 8 8
-0.311804 -0.400564 -1.271993 18 14 13
-2.382974 -2.362262 -6.656841 42 36 35
-0.329006 -0.389136 -1.228130 20 18 16
-31.243994 -50.489635 -155.662231 13 10 11
-0.004236 -0.000109 0.004128 7 5 5
-0.009974 -0.004006 -0.009987 82 79 79
-0.021344 -0.104432 -0.305209 28 22 20
-31.010447 -44.856400 -140.403931 8 8 8
-0.053819 -0.026958 -0.094661 11 9 9
-0.234631 -0.228592 -0.725723 28 25 24
-0.326405 -0.384990 -1.218062 13 13 12
-0.455747 -0.488571 -1.539759 16 13 13
-10.226179 -11.025068 -32.097828 41 37 36
-0.136027 -0.225941 -0.698141 39 35 33
-0.004236 -0.000109 0.004127 14 12 13
-0.513025 -0.517972 -1.635846 14 11 11
-0.300658 -0.350013 -1.110122 47 46 46
-0.004236 -0.000109 0.004128 49 47 47
-31.079336 -55.140236 -172.399597 12 9 9
-0.455410 -0.488405 -1.539075 15 11 11
-0.574752 -0.549204 -1.733270 11 10 9
-0.326399 -0.385133 -1.218222 12 12 11
-0.396525 -0.461605 -1.433764 20 18 17
0.083102 0.060025 0.233278 19 16 16
-15.649890 -22.487909 -70.554840 20 19 19
