ply
format ascii 1.0
element vertex 215
property float x
property float y
property float z
property uchar blue
property uchar green
property uchar red
end_header
0.057793 0.020439 0.067776 72 76 76
0.350439 0.260490 -0.382071 77 84 82
0.397110 0.097428 -0.140454 46 49 46
0.020350 0.208892 -0.424215 75 82 82
0.214511 0.136571 0.375291 79 83 83
0.217893 0.126904 0.183031 62 65 71
0.169620 0.031017 0.361204 36 28 38
0.101154 -0.027742 0.336665 72 74 72
0.024028 -0.094560 -0.144483 68 75 75
0.347343 0.387122 -0.394960 72 78 79
0.289427 0.119980 -0.112278 78 84 84
0.160188 -0.254797 -0.483091 14 12 14
0.094577 -0.064465 -0.195900 67 75 74
0.205990 -0.108178 -0.466858 50 53 59
0.232411 -0.095885 -0.251212 69 74 76
0.173167 0.061002 0.164502 96 103 106
-0.000120 0.004314 -0.195789 118 125 124
0.224847 -0.112841 -0.205402 38 40 62
0.301798 -0.200467 -0.487342 68 73 74
0.245513 -0.225587 -0.571457 68 73 75
0.173965 -0.122300 0.058461 67 72 70
0.194654 0.255953 -0.457631 77 83 82
0.151652 0.314841 -0.068725 74 79 77
0.139337 -0.028025 -0.437329 66 72 73
0.208547 -0.210478 -0.305042 71 75 74
0.240260 -0.140661 -0.452324 80 83 82
-2.038126 1.743758 -2.814614 32 30 27
0.283692 0.071095 0.353686 67 74 73
0.149852 -0.186707 -0.360794 61 68 69
0.170336 -0.253779 -0.439022 79 83 82
0.282646 0.174375 -0.436619 61 62 61
0.181385 0.150502 0.088121 98 105 106
0.017935 0.170743 -0.294861 80 85 85
0.020176 0.041534 0.209780 74 79 78
0.298362 0.135077 -0.422455 67 74 73
-0.433119 0.790773 -0.476631 73 78 77
0.219840 0.021113 -0.395791 80 84 83
0.045349 -0.151688 -0.404583 65 66 62
-0.015296 -0.171666 0.532601 99 111 114
0.009704 -0.139861 0.398658 84 94 96
0.143171 -0.120646 -0.452199 72 78 79
-0.125307 -0.067468 0.079128 108 114 114
-0.397973 0.596606 -0.522542 70 75 73
0.465175 0.184382 -0.298753 74 81 81
0.006562 -0.070258 -0.306996 73 78 79
0.049854 -0.105418 0.071053 101 108 107
0.018385 0.243749 -0.214840 66 73 74
0.069219 -0.091172 -0.425840 76 79 78
0.119415 -0.164443 -0.193636 72 77 75
0.063487 -0.028524 -0.440519 63 70 71
0.003059 0.179773 0.028266 77 82 81
-0.005503 0.057603 0.047961 59 64 63
0.129059 0.092986 0.123559 72 77 76
-0.133531 -0.165963 0.097526 75 78 77
0.207437 0.290894 -0.264771 72 79 78
-0.122294 0.196772 -0.295296 117 124 123
0.244637 -0.195725 -0.631932 67 72 79
0.028190 -0.149805 0.134043 79 82 81
0.020401 -0.133472 -0.026659 90 96 98
0.367748 0.236075 -0.345127 75 81 80
0.103745 0.192416 0.186310 72 78 81
0.033627 0.183128 0.130626 75 80 79
-0.100369 -0.071006 0.401990 71 76 76
0.232684 0.051900 0.372365 75 80 79
0.083808 0.163832 0.060549 80 84 83
0.129032 -0.063246 0.125897 103 113 117
0.142038 0.314076 -0.275204 77 83 82
0.255377 0.207781 -0.285366 70 76 74
0.074025 -0.071374 -0.214982 72 78 76
0.106984 0.167727 -0.027696 189 203 200
0.069038 -0.101018 -0.112491 111 118 118
0.196557 0.228420 -0.292797 77 83 82
-0.001426 -0.110643 0.072482 79 82 81
0.159170 0.033545 -0.420238 18 13 28
0.152246 -0.088590 -0.404204 72 77 76
0.058784 -0.041419 0.169573 66 71 69
-0.029607 -0.002308 -0.264963 67 74 75
0.103618 -0.056586 0.066728 74 79 78
0.187718 0.154325 0.135522 75 78 76
-0.075824 0.260187 -0.345661 136 148 144
0.062571 -0.018682 0.074303 77 82 81
0.084813 -0.152280 -0.467936 71 76 75
0.050028 0.069501 0.171202 75 79 78
-0.016103 -0.041116 0.141244 115 122 121
0.071262 -0.246413 -0.203174 64 71 70
0.249770 0.111774 0.262267 76 80 80
0.014326 -0.108812 0.162975 113 120 120
-0.007660 -0.018715 0.110401 89 99 101
0.273522 0.199350 -0.300326 68 75 75
-0.029788 -0.040127 -0.050269 18 10 8
0.116272 0.131597 0.304187 72 76 78
0.004749 0.035643 -0.058022 99 107 103
0.195592 -0.104802 -0.602915 79 84 84
0.034602 -0.069940 -0.093696 91 98 94
-0.080996 -0.105094 -0.280887 75 80 81
0.108512 0.229288 -0.219667 81 85 84
0.052375 0.263908 -0.253409 79 85 84
0.200973 0.041588 -0.207065 119 123 120
0.158109 -0.106066 -0.476131 73 79 79
0.350622 0.312242 -0.414237 76 83 81
-0.024453 -0.090409 -0.132302 67 73 71
0.158911 -0.044187 0.091897 105 112 114
-0.123483 -0.217614 0.093573 42 39 39
-0.034082 -0.034432 0.194596 73 79 78
0.156403 0.205490 -0.164803 70 70 66
-0.100600 -0.276560 -0.192768 77 81 81
0.107467 -0.195182 -0.258107 57 62 63
0.012603 0.196489 0.180786 59 62 59
0.128418 0.106681 0.174315 79 83 81
0.150559 -0.059568 -0.342472 74 80 80
-0.137404 -0.333001 0.626725 57 65 67
0.033549 -0.252913 0.011595 70 75 73
0.119305 0.097407 0.215007 71 75 73
0.097320 -0.238307 -0.210896 64 70 71
0.343352 0.230765 -0.361718 79 83 84
-0.055163 -0.067710 0.049348 71 77 77
0.290451 0.191142 -0.449734 73 79 78
-0.088036 -0.140653 0.179484 74 77 76
0.025418 0.156911 -0.198400 147 158 155
-0.258973 -0.412591 0.728824 61 66 64
-0.114574 -0.073575 -0.141892 77 81 81
0.034523 -0.152231 -0.308862 76 81 80
0.158130 -0.134474 -0.360050 78 82 80
0.044240 -0.055071 -0.061198 70 73 73
0.232906 0.153962 -0.299791 36 35 33
0.144982 -0.236593 -0.426481 67 70 71
0.233599 -0.156992 -0.368800 62 68 65
-0.254335 -0.101915 0.007790 79 82 82
-0.095067 -0.304420 0.271639 81 85 85
0.200983 0.193438 -0.200159 71 78 77
-0.700050 0.828560 -0.995269 75 80 80
0.024601 0.085077 0.045709 74 79 78
-0.412083 0.382806 -0.539373 113 120 117
0.127422 -0.110673 0.082979 75 80 80
0.033893 -0.132145 -0.085002 64 67 65
-0.384844 0.560218 -0.467708 76 81 80
0.042386 -0.188762 -0.364286 63 68 67
-0.171654 -0.283587 0.143107 81 85 85
0.041818 -0.030568 -0.149781 71 74 72
0.045507 0.236686 -0.219760 75 78 77
0.333378 0.202677 -0.287632 48 50 49
-1.222202 1.070424 -1.600262 52 55 52
0.022085 -0.007526 0.221468 79 83 82
-0.013491 -0.172008 -0.474632 72 75 72
0.020495 -0.084847 0.135218 71 77 77
0.194893 -0.105402 -0.518728 77 82 80
0.009001 0.070900 -0.142606 86 92 101
-0.031674 0.129763 0.116064 53 57 55
0.118806 -0.095679 -0.409270 73 77 75
0.076649 -0.013222 0.013357 101 108 107
0.137054 0.335736 -0.337225 81 85 84
0.191452 -0.101932 -0.502378 80 83 82
-0.369746 -0.148126 -0.539936 72 76 77
0.080973 -0.171834 -0.446406 63 68 71
0.132275 -0.086374 -0.547137 76 82 81
0.152258 0.189064 -0.301013 79 83 84
-0.126875 -0.108504 -0.385524 75 78 77
-0.081930 -0.070094 0.232400 77 80 80
0.101303 0.024539 0.077404 96 104 103
0.257975 -0.046357 0.409473 33 24 33
0.215726 0.166759 -0.324521 72 78 77
0.229723 0.101190 -0.337584 65 73 73
0.208769 0.238656 -0.316741 82 85 84
-0.212056 0.285465 -0.114730 76 79 76
-0.057698 -0.131300 -0.302972 67 74 75
-0.243682 -0.426172 1.854263 76 82 80
0.203530 0.205297 -0.472745 74 80 79
0.157163 -0.253602 -0.583370 66 72 73
0.099496 0.187941 0.381590 81 84 83
0.232437 -0.137743 -0.399806 70 75 76
0.139878 0.041400 0.173060 72 76 74
0.198918 0.263240 -0.219240 73 79 79
-0.152323 0.473976 -0.465720 100 110 107
0.241767 0.261247 -0.249556 69 77 76
-0.115232 -0.500730 1.729964 68 76 77
0.059263 -0.187716 -0.485709 72 78 77
0.140935 0.353990 -0.381644 72 77 76
0.458877 0.259578 -0.308541 68 73 72
0.056074 -0.320305 0.538480 58 63 63
0.250664 -0.032125 -0.479753 75 80 80
0.171583 -0.185496 -0.473639 50 53 56
0.216975 0.131899 -0.208055 151 161 157
-0.087457 0.367924 0.189096 73 76 75
-0.156773 0.230826 -0.293101 111 117 114
0.081733 -0.133634 -0.405955 61 66 64
0.028003 -0.180789 -0.691770 70 76 77
0.051906 -0.064945 -0.131550 94 102 102
0.109057 -0.145892 -0.378170 48 53 59
0.182464 -0.033100 -0.593512 64 69 69
0.012397 -0.074870 -0.124283 113 120 119
0.071346 -0.153598 -0.215749 77 81 81
-0.132394 0.193316 -0.428540 147 156 157
-0.002876 0.197464 0.221400 73 75 73
0.246807 0.201574 -0.406037 70 76 78
0.110670 0.058938 -0.039653 111 118 115
0.056398 -0.166226 -0.342607 72 78 75
0.213086 0.281008 -0.188065 107 116 114
0.002411 -0.246782 0.776900 106 115 111
0.153083 -0.281040 -0.402834 77 80 79
0.102366 -0.108619 -0.528542 75 80 83
0.147367 -0.134286 -0.188824 73 78 81
0.102845 0.091158 0.286542 76 81 79
0.008504 -0.155339 -0.074843 64 68 69
0.142474 0.183196 -0.396575 81 85 83
0.226610 -0.132907 -0.427050 62 72 77
0.097783 0.017687 0.024025 75 78 78
0.086422 -0.075304 0.023783 72 76 75
0.026921 -0.147340 -0.219821 73 78 76
0.157048 0.029402 0.264624 49 51 50
0.066580 0.131695 0.048052 68 72 74
0.209581 0.101265 0.282522 32 23 32
-0.534742 0.939087 -0.472605 76 82 79
0.129288 0.048469 0.176017 55 52 54
0.138842 0.340797 -0.306666 27 25 22
0.128265 0.126385 -0.482706 74 80 82
